<svg width="453" height="113" viewBox="0 0 453 113" fill="none" xmlns="http://www.w3.org/2000/svg">
<path d="M74.569 12.4601C77.481 12.4601 79.929 13.0361 81.913 14.1881C83.929 15.3401 85.465 17.1001 86.521 19.4681L84.505 21.0041C83.577 18.7641 82.265 17.1481 80.569 16.1561C78.905 15.1641 76.841 14.6681 74.377 14.6681C72.489 14.6681 70.889 14.9721 69.577 15.5801C68.265 16.1561 67.257 16.9401 66.553 17.9321C65.881 18.8921 65.545 19.9801 65.545 21.1961C65.545 22.6681 66.025 23.8841 66.985 24.8441C67.945 25.8041 69.705 26.5721 72.265 27.1481L78.505 28.4921C81.609 29.1641 83.785 30.1401 85.033 31.4201C86.313 32.6681 86.953 34.2841 86.953 36.2681C86.953 37.9961 86.441 39.5321 85.417 40.8761C84.425 42.2201 83.049 43.2601 81.289 43.9961C79.529 44.7321 77.465 45.1001 75.097 45.1001C72.825 45.1001 70.793 44.7961 69.001 44.1881C67.241 43.5481 65.753 42.6681 64.537 41.5481C63.321 40.3961 62.425 39.0201 61.849 37.4201L63.961 35.7881C64.409 37.2921 65.145 38.5881 66.169 39.6761C67.225 40.7321 68.521 41.5321 70.057 42.0761C71.593 42.6201 73.305 42.8921 75.193 42.8921C76.985 42.8921 78.585 42.6521 79.993 42.1721C81.401 41.6601 82.489 40.9241 83.257 39.9641C84.057 39.0041 84.457 37.8201 84.457 36.4121C84.457 35.0681 83.977 33.9321 83.017 33.0041C82.089 32.0761 80.425 31.3721 78.025 30.8921L71.497 29.4521C69.481 29.0041 67.849 28.4121 66.601 27.6761C65.353 26.9401 64.441 26.0601 63.865 25.0361C63.321 23.9801 63.049 22.7961 63.049 21.4841C63.049 19.8521 63.513 18.3641 64.441 17.0201C65.369 15.6441 66.697 14.5401 68.425 13.7081C70.153 12.8761 72.201 12.4601 74.569 12.4601ZM103.568 45.1001C101.36 45.1001 99.3917 44.6041 97.6637 43.6121C95.9357 42.6201 94.5757 41.1961 93.5837 39.3401C92.6237 37.4521 92.1437 35.2121 92.1437 32.6201C92.1437 30.0281 92.6237 27.8041 93.5837 25.9481C94.5757 24.0601 95.9037 22.6201 97.5677 21.6281C99.2317 20.6361 101.136 20.1401 103.28 20.1401C105.456 20.1401 107.312 20.6201 108.848 21.5801C110.384 22.5401 111.568 23.8841 112.4 25.6121C113.232 27.3081 113.648 29.2761 113.648 31.5161C113.648 31.8041 113.632 32.0921 113.6 32.3801C113.6 32.6361 113.584 32.8761 113.552 33.1001H93.6317V30.9401H112.496L111.296 31.2761C111.264 28.5241 110.528 26.3321 109.088 24.7001C107.68 23.0681 105.728 22.2521 103.232 22.2521C101.504 22.2521 99.9837 22.6681 98.6717 23.5001C97.3597 24.3001 96.3357 25.4841 95.5997 27.0521C94.8637 28.5881 94.4957 30.4441 94.4957 32.6201C94.4957 34.7641 94.8637 36.6201 95.5997 38.1881C96.3677 39.7561 97.4237 40.9561 98.7677 41.7881C100.144 42.5881 101.728 42.9881 103.52 42.9881C105.376 42.9881 106.96 42.5881 108.272 41.7881C109.616 40.9881 110.656 39.8841 111.392 38.4761L113.312 39.5801C112.736 40.7321 111.968 41.7241 111.008 42.5561C110.048 43.3561 108.944 43.9801 107.696 44.4281C106.448 44.8761 105.072 45.1001 103.568 45.1001ZM130.286 45.1001C128.078 45.1001 126.11 44.6041 124.382 43.6121C122.654 42.6201 121.294 41.1961 120.302 39.3401C119.342 37.4521 118.862 35.2121 118.862 32.6201C118.862 30.0281 119.342 27.8041 120.302 25.9481C121.294 24.0601 122.622 22.6201 124.286 21.6281C125.95 20.6361 127.854 20.1401 129.998 20.1401C132.174 20.1401 134.03 20.6201 135.566 21.5801C137.102 22.5401 138.286 23.8841 139.118 25.6121C139.95 27.3081 140.366 29.2761 140.366 31.5161C140.366 31.8041 140.35 32.0921 140.318 32.3801C140.318 32.6361 140.302 32.8761 140.27 33.1001H120.35V30.9401H139.214L138.014 31.2761C137.982 28.5241 137.246 26.3321 135.806 24.7001C134.398 23.0681 132.446 22.2521 129.95 22.2521C128.222 22.2521 126.702 22.6681 125.39 23.5001C124.078 24.3001 123.054 25.4841 122.318 27.0521C121.582 28.5881 121.214 30.4441 121.214 32.6201C121.214 34.7641 121.582 36.6201 122.318 38.1881C123.086 39.7561 124.142 40.9561 125.486 41.7881C126.862 42.5881 128.446 42.9881 130.238 42.9881C132.094 42.9881 133.678 42.5881 134.99 41.7881C136.334 40.9881 137.374 39.8841 138.11 38.4761L140.03 39.5801C139.454 40.7321 138.686 41.7241 137.726 42.5561C136.766 43.3561 135.662 43.9801 134.414 44.4281C133.166 44.8761 131.79 45.1001 130.286 45.1001ZM183.268 12.9401V15.1481H171.7V44.6201H169.3V15.1481H157.732V12.9401H183.268ZM187.432 44.6201V9.58012H189.832V25.5161C190.536 23.8201 191.672 22.5081 193.24 21.5801C194.808 20.6201 196.616 20.1401 198.664 20.1401C200.456 20.1401 202.04 20.4761 203.416 21.1481C204.792 21.7881 205.864 22.7801 206.632 24.1241C207.432 25.4361 207.832 27.0681 207.832 29.0201V44.6201H205.432V29.7881C205.432 27.1961 204.776 25.2921 203.464 24.0761C202.184 22.8281 200.504 22.2041 198.424 22.2041C196.92 22.2041 195.512 22.5561 194.2 23.2601C192.92 23.9641 191.864 24.9721 191.032 26.2841C190.232 27.5961 189.832 29.1961 189.832 31.0841V44.6201H187.432ZM225.911 45.1001C223.703 45.1001 221.735 44.6041 220.007 43.6121C218.279 42.6201 216.919 41.1961 215.927 39.3401C214.967 37.4521 214.487 35.2121 214.487 32.6201C214.487 30.0281 214.967 27.8041 215.927 25.9481C216.919 24.0601 218.247 22.6201 219.911 21.6281C221.575 20.6361 223.479 20.1401 225.623 20.1401C227.799 20.1401 229.655 20.6201 231.191 21.5801C232.727 22.5401 233.911 23.8841 234.743 25.6121C235.575 27.3081 235.991 29.2761 235.991 31.5161C235.991 31.8041 235.975 32.0921 235.943 32.3801C235.943 32.6361 235.927 32.8761 235.895 33.1001H215.975V30.9401H234.839L233.639 31.2761C233.607 28.5241 232.871 26.3321 231.431 24.7001C230.023 23.0681 228.071 22.2521 225.575 22.2521C223.847 22.2521 222.327 22.6681 221.015 23.5001C219.703 24.3001 218.679 25.4841 217.943 27.0521C217.207 28.5881 216.839 30.4441 216.839 32.6201C216.839 34.7641 217.207 36.6201 217.943 38.1881C218.711 39.7561 219.767 40.9561 221.111 41.7881C222.487 42.5881 224.071 42.9881 225.863 42.9881C227.719 42.9881 229.303 42.5881 230.615 41.7881C231.959 40.9881 232.999 39.8841 233.735 38.4761L235.655 39.5801C235.079 40.7321 234.311 41.7241 233.351 42.5561C232.391 43.3561 231.287 43.9801 230.039 44.4281C228.791 44.8761 227.415 45.1001 225.911 45.1001ZM261.005 42.4121H280.013V44.6201H258.605V12.9401H261.005V42.4121ZM300.042 28.8281C300.042 26.7481 299.482 25.1321 298.362 23.9801C297.242 22.8281 295.642 22.2521 293.562 22.2521C291.738 22.2521 290.17 22.6521 288.858 23.4521C287.546 24.2201 286.57 25.5161 285.93 27.3401L283.962 26.0921C284.666 24.2041 285.834 22.7481 287.466 21.7241C289.13 20.6681 291.178 20.1401 293.61 20.1401C295.37 20.1401 296.906 20.4601 298.218 21.1001C299.562 21.7081 300.602 22.6201 301.338 23.8361C302.074 25.0521 302.442 26.5721 302.442 28.3961V40.3961C302.442 42.0921 303.21 42.9401 304.746 42.9401C305.418 42.9401 305.994 42.8281 306.474 42.6041L306.33 44.5241C305.786 44.8121 305.082 44.9561 304.218 44.9561C303.482 44.9561 302.794 44.8121 302.154 44.5241C301.514 44.2361 300.986 43.7561 300.57 43.0841C300.186 42.4121 299.994 41.5001 299.994 40.3481V39.0521L300.666 39.0041C300.378 40.3801 299.738 41.5321 298.746 42.4601C297.786 43.3561 296.666 44.0281 295.386 44.4761C294.106 44.8921 292.826 45.1001 291.546 45.1001C290.042 45.1001 288.698 44.8601 287.514 44.3801C286.33 43.9001 285.402 43.2121 284.73 42.3161C284.058 41.3881 283.722 40.2521 283.722 38.9081C283.722 37.1161 284.314 35.6761 285.498 34.5881C286.714 33.4681 288.41 32.7001 290.586 32.2841L300.522 30.3161V32.3321L291.786 34.0601C289.898 34.4441 288.49 35.0041 287.562 35.7401C286.634 36.4761 286.17 37.4841 286.17 38.7641C286.17 40.0761 286.666 41.1161 287.658 41.8841C288.65 42.6201 290.058 42.9881 291.882 42.9881C292.81 42.9881 293.754 42.8601 294.714 42.6041C295.674 42.3481 296.554 41.9481 297.354 41.4041C298.186 40.8281 298.842 40.1241 299.322 39.2921C299.802 38.4281 300.042 37.3881 300.042 36.1721V28.8281ZM314.697 13.9481V38.2841C314.697 39.7881 315.049 40.9401 315.753 41.7401C316.489 42.5081 317.545 42.8921 318.921 42.8921C319.817 42.8921 320.601 42.7481 321.273 42.4601C321.977 42.1401 322.601 41.6921 323.145 41.1161L324.057 43.0841C323.449 43.6921 322.681 44.1881 321.753 44.5721C320.825 44.9241 319.785 45.1001 318.633 45.1001C317.385 45.1001 316.281 44.8761 315.321 44.4281C314.361 43.9481 313.609 43.2281 313.065 42.2681C312.553 41.3081 312.297 40.0921 312.297 38.6201V14.6201L314.697 13.9481ZM323.673 20.6201V22.6841H307.497V20.6201H323.673ZM338.599 45.1001C336.391 45.1001 334.423 44.6041 332.695 43.6121C330.967 42.6201 329.607 41.1961 328.615 39.3401C327.655 37.4521 327.175 35.2121 327.175 32.6201C327.175 30.0281 327.655 27.8041 328.615 25.9481C329.607 24.0601 330.935 22.6201 332.599 21.6281C334.263 20.6361 336.167 20.1401 338.311 20.1401C340.487 20.1401 342.343 20.6201 343.879 21.5801C345.415 22.5401 346.599 23.8841 347.431 25.6121C348.263 27.3081 348.679 29.2761 348.679 31.5161C348.679 31.8041 348.663 32.0921 348.631 32.3801C348.631 32.6361 348.615 32.8761 348.583 33.1001H328.663V30.9401H347.527L346.327 31.2761C346.295 28.5241 345.559 26.3321 344.119 24.7001C342.711 23.0681 340.759 22.2521 338.263 22.2521C336.535 22.2521 335.015 22.6681 333.703 23.5001C332.391 24.3001 331.367 25.4841 330.631 27.0521C329.895 28.5881 329.527 30.4441 329.527 32.6201C329.527 34.7641 329.895 36.6201 330.631 38.1881C331.399 39.7561 332.455 40.9561 333.799 41.7881C335.175 42.5881 336.759 42.9881 338.551 42.9881C340.407 42.9881 341.991 42.5881 343.303 41.7881C344.647 40.9881 345.687 39.8841 346.423 38.4761L348.343 39.5801C347.767 40.7321 346.999 41.7241 346.039 42.5561C345.079 43.3561 343.975 43.9801 342.727 44.4281C341.479 44.8761 340.103 45.1001 338.599 45.1001ZM363.638 45.1001C361.206 45.1001 359.046 44.6041 357.158 43.6121C355.302 42.6201 353.99 41.1961 353.222 39.3401L355.286 37.9481C355.862 39.5481 356.886 40.7961 358.358 41.6921C359.862 42.5561 361.686 42.9881 363.83 42.9881C365.942 42.9881 367.59 42.5721 368.774 41.7401C369.99 40.9081 370.598 39.8041 370.598 38.4281C370.598 37.5001 370.294 36.7001 369.686 36.0281C369.11 35.3241 368.006 34.7961 366.374 34.4441L360.758 33.2441C358.454 32.7641 356.806 31.9961 355.814 30.9401C354.854 29.8521 354.374 28.5401 354.374 27.0041C354.374 25.7241 354.758 24.5721 355.526 23.5481C356.294 22.5241 357.35 21.7081 358.694 21.1001C360.07 20.4601 361.67 20.1401 363.494 20.1401C365.894 20.1401 367.878 20.6201 369.446 21.5801C371.014 22.5081 372.118 23.9161 372.758 25.8041L370.742 27.1001C370.262 25.4041 369.366 24.1721 368.054 23.4041C366.774 22.6361 365.254 22.2521 363.494 22.2521C362.15 22.2521 360.966 22.4601 359.942 22.8761C358.95 23.2601 358.166 23.8041 357.59 24.5081C357.046 25.1801 356.774 25.9641 356.774 26.8601C356.774 27.7881 357.094 28.6361 357.734 29.4041C358.374 30.1401 359.51 30.6841 361.142 31.0361L366.902 32.2841C369.174 32.7641 370.758 33.5001 371.654 34.4921C372.55 35.4521 372.998 36.6521 372.998 38.0921C372.998 39.5321 372.614 40.7801 371.846 41.8361C371.078 42.8921 369.99 43.7081 368.582 44.2841C367.174 44.8281 365.526 45.1001 363.638 45.1001ZM383.697 13.9481V38.2841C383.697 39.7881 384.049 40.9401 384.753 41.7401C385.489 42.5081 386.545 42.8921 387.921 42.8921C388.817 42.8921 389.601 42.7481 390.273 42.4601C390.977 42.1401 391.601 41.6921 392.145 41.1161L393.057 43.0841C392.449 43.6921 391.681 44.1881 390.753 44.5721C389.825 44.9241 388.785 45.1001 387.633 45.1001C386.385 45.1001 385.281 44.8761 384.321 44.4281C383.361 43.9481 382.609 43.2281 382.065 42.2681C381.553 41.3081 381.297 40.0921 381.297 38.6201V14.6201L383.697 13.9481ZM392.673 20.6201V22.6841H376.497V20.6201H392.673Z" fill="#1E293B"/>
<path d="M164.727 68.9401C166.935 68.9401 168.839 69.3241 170.439 70.0921C172.039 70.8281 173.271 71.8841 174.135 73.2601C175.031 74.6361 175.479 76.2841 175.479 78.2041C175.479 80.1561 175.031 81.8201 174.135 83.1961C173.271 84.5721 172.039 85.6441 170.439 86.4121C168.839 87.1481 166.935 87.5161 164.727 87.5161H156.615V100.62H154.215V68.9401H164.727ZM164.439 85.2601C167.223 85.2601 169.335 84.6521 170.775 83.4361C172.215 82.1881 172.935 80.4441 172.935 78.2041C172.935 75.9641 172.215 74.2361 170.775 73.0201C169.335 71.7721 167.223 71.1481 164.439 71.1481H156.615V85.2601H164.439ZM181.667 100.62V65.5801H184.067V81.5161C184.771 79.8201 185.907 78.5081 187.475 77.5801C189.043 76.6201 190.851 76.1401 192.899 76.1401C194.691 76.1401 196.275 76.4761 197.651 77.1481C199.027 77.7881 200.099 78.7801 200.867 80.1241C201.667 81.4361 202.067 83.0681 202.067 85.0201V100.62H199.667V85.7881C199.667 83.1961 199.011 81.2921 197.699 80.0761C196.419 78.8281 194.739 78.2041 192.659 78.2041C191.155 78.2041 189.747 78.5561 188.435 79.2601C187.155 79.9641 186.099 80.9721 185.267 82.2841C184.467 83.5961 184.067 85.1961 184.067 87.0841V100.62H181.667ZM220.146 76.1401C222.386 76.1401 224.354 76.6361 226.05 77.6281C227.778 78.6201 229.122 80.0601 230.082 81.9481C231.074 83.8041 231.57 86.0281 231.57 88.6201C231.57 91.2121 231.074 93.4521 230.082 95.3401C229.122 97.1961 227.778 98.6201 226.05 99.6121C224.354 100.604 222.386 101.1 220.146 101.1C217.906 101.1 215.922 100.604 214.194 99.6121C212.498 98.6201 211.154 97.1961 210.162 95.3401C209.202 93.4521 208.722 91.2121 208.722 88.6201C208.722 86.0281 209.202 83.8041 210.162 81.9481C211.154 80.0601 212.498 78.6201 214.194 77.6281C215.922 76.6361 217.906 76.1401 220.146 76.1401ZM220.146 78.2041C218.322 78.2041 216.738 78.6201 215.394 79.4521C214.05 80.2841 212.994 81.4841 212.226 83.0521C211.49 84.5881 211.122 86.4441 211.122 88.6201C211.122 90.7641 211.49 92.6201 212.226 94.1881C212.994 95.7561 214.05 96.9561 215.394 97.7881C216.738 98.6201 218.322 99.0361 220.146 99.0361C221.97 99.0361 223.554 98.6201 224.898 97.7881C226.242 96.9561 227.282 95.7561 228.018 94.1881C228.786 92.6201 229.17 90.7641 229.17 88.6201C229.17 86.4441 228.786 84.5881 228.018 83.0521C227.282 81.4841 226.242 80.2841 224.898 79.4521C223.554 78.6201 221.97 78.2041 220.146 78.2041ZM241.994 69.9481V94.2841C241.994 95.7881 242.346 96.9401 243.05 97.7401C243.786 98.5081 244.842 98.8921 246.218 98.8921C247.114 98.8921 247.898 98.7481 248.57 98.4601C249.274 98.1401 249.898 97.6921 250.442 97.1161L251.354 99.0841C250.746 99.6921 249.978 100.188 249.05 100.572C248.122 100.924 247.082 101.1 245.93 101.1C244.682 101.1 243.578 100.876 242.618 100.428C241.658 99.9481 240.906 99.2281 240.362 98.2681C239.85 97.3081 239.594 96.0921 239.594 94.6201V70.6201L241.994 69.9481ZM250.97 76.6201V78.6841H234.794V76.6201H250.97ZM265.896 76.1401C268.136 76.1401 270.104 76.6361 271.8 77.6281C273.528 78.6201 274.872 80.0601 275.832 81.9481C276.824 83.8041 277.32 86.0281 277.32 88.6201C277.32 91.2121 276.824 93.4521 275.832 95.3401C274.872 97.1961 273.528 98.6201 271.8 99.6121C270.104 100.604 268.136 101.1 265.896 101.1C263.656 101.1 261.672 100.604 259.944 99.6121C258.248 98.6201 256.904 97.1961 255.912 95.3401C254.952 93.4521 254.472 91.2121 254.472 88.6201C254.472 86.0281 254.952 83.8041 255.912 81.9481C256.904 80.0601 258.248 78.6201 259.944 77.6281C261.672 76.6361 263.656 76.1401 265.896 76.1401ZM265.896 78.2041C264.072 78.2041 262.488 78.6201 261.144 79.4521C259.8 80.2841 258.744 81.4841 257.976 83.0521C257.24 84.5881 256.872 86.4441 256.872 88.6201C256.872 90.7641 257.24 92.6201 257.976 94.1881C258.744 95.7561 259.8 96.9561 261.144 97.7881C262.488 98.6201 264.072 99.0361 265.896 99.0361C267.72 99.0361 269.304 98.6201 270.648 97.7881C271.992 96.9561 273.032 95.7561 273.768 94.1881C274.536 92.6201 274.92 90.7641 274.92 88.6201C274.92 86.4441 274.536 84.5881 273.768 83.0521C273.032 81.4841 271.992 80.2841 270.648 79.4521C269.304 78.6201 267.72 78.2041 265.896 78.2041ZM292.294 101.1C289.862 101.1 287.702 100.604 285.814 99.6121C283.958 98.6201 282.646 97.1961 281.878 95.3401L283.942 93.9481C284.518 95.5481 285.542 96.7961 287.014 97.6921C288.518 98.5561 290.342 98.9881 292.486 98.9881C294.598 98.9881 296.246 98.5721 297.43 97.7401C298.646 96.9081 299.254 95.8041 299.254 94.4281C299.254 93.5001 298.95 92.7001 298.342 92.0281C297.766 91.3241 296.662 90.7961 295.03 90.4441L289.414 89.2441C287.11 88.7641 285.462 87.9961 284.47 86.9401C283.51 85.8521 283.03 84.5401 283.03 83.0041C283.03 81.7241 283.414 80.5721 284.182 79.5481C284.95 78.5241 286.006 77.7081 287.35 77.1001C288.726 76.4601 290.326 76.1401 292.15 76.1401C294.55 76.1401 296.534 76.6201 298.102 77.5801C299.67 78.5081 300.774 79.9161 301.414 81.8041L299.398 83.1001C298.918 81.4041 298.022 80.1721 296.71 79.4041C295.43 78.6361 293.91 78.2521 292.15 78.2521C290.806 78.2521 289.622 78.4601 288.598 78.8761C287.606 79.2601 286.822 79.8041 286.246 80.5081C285.702 81.1801 285.43 81.9641 285.43 82.8601C285.43 83.7881 285.75 84.6361 286.39 85.4041C287.03 86.1401 288.166 86.6841 289.798 87.0361L295.558 88.2841C297.83 88.7641 299.414 89.5001 300.31 90.4921C301.206 91.4521 301.654 92.6521 301.654 94.0921C301.654 95.5321 301.27 96.7801 300.502 97.8361C299.734 98.8921 298.646 99.7081 297.238 100.284C295.83 100.828 294.182 101.1 292.294 101.1Z" fill="#1E293B"/>
</svg>
