<svg width="453" height="57" viewBox="0 0 453 57" fill="none" xmlns="http://www.w3.org/2000/svg">
<path d="M97.0602 13.1999C100.228 13.1999 102.74 13.9999 104.596 15.5999C106.484 17.1999 107.428 19.3919 107.428 22.1759C107.428 24.9599 106.484 27.1359 104.596 28.7039C102.708 30.2399 100.18 31.0079 97.0122 31.0079L96.7722 31.1519H87.7002V44.8799H85.3002V13.1999H97.0602ZM97.0122 28.8959C99.5722 28.8959 101.524 28.3199 102.868 27.1679C104.244 26.0159 104.932 24.3519 104.932 22.1759C104.932 19.9999 104.244 18.3359 102.868 17.1839C101.524 15.9999 99.5722 15.4079 97.0122 15.4079H87.7002V28.8959H97.0122ZM98.8842 29.3279L109.108 44.8799H106.276L96.8682 30.6719L98.8842 29.3279ZM124.325 45.3599C122.117 45.3599 120.149 44.8639 118.421 43.8719C116.693 42.8799 115.333 41.4559 114.341 39.5999C113.381 37.7119 112.901 35.4719 112.901 32.8799C112.901 30.2879 113.381 28.0639 114.341 26.2079C115.333 24.3199 116.661 22.8799 118.325 21.8879C119.989 20.8959 121.893 20.3999 124.037 20.3999C126.213 20.3999 128.069 20.8799 129.605 21.8399C131.141 22.7999 132.325 24.1439 133.157 25.8719C133.989 27.5679 134.405 29.5359 134.405 31.7759C134.405 32.0639 134.389 32.3519 134.357 32.6399C134.357 32.8959 134.341 33.1359 134.309 33.3599H114.389V31.1999H133.253L132.053 31.5359C132.021 28.7839 131.285 26.5919 129.845 24.9599C128.437 23.3279 126.485 22.5119 123.989 22.5119C122.261 22.5119 120.741 22.9279 119.429 23.7599C118.117 24.5599 117.093 25.7439 116.357 27.3119C115.621 28.8479 115.253 30.7039 115.253 32.8799C115.253 35.0239 115.621 36.8799 116.357 38.4479C117.125 40.0159 118.181 41.2159 119.525 42.0479C120.901 42.8479 122.485 43.2479 124.277 43.2479C126.133 43.2479 127.717 42.8479 129.029 42.0479C130.373 41.2479 131.413 40.1439 132.149 38.7359L134.069 39.8399C133.493 40.9919 132.725 41.9839 131.765 42.8159C130.805 43.6159 129.701 44.2399 128.453 44.6879C127.205 45.1359 125.829 45.3599 124.325 45.3599ZM150.948 20.3999C152.58 20.3999 154.036 20.6559 155.316 21.1679C156.596 21.6799 157.684 22.4159 158.58 23.3759C159.476 24.3359 160.164 25.5039 160.644 26.8799L158.388 27.9359C157.876 26.2079 156.98 24.8799 155.7 23.9519C154.452 22.9919 152.852 22.5119 150.9 22.5119C149.14 22.5119 147.588 22.9279 146.244 23.7599C144.9 24.5599 143.86 25.7439 143.124 27.3119C142.388 28.8479 142.02 30.7039 142.02 32.8799C142.02 35.0239 142.388 36.8799 143.124 38.4479C143.86 40.0159 144.884 41.2159 146.196 42.0479C147.508 42.8479 149.06 43.2479 150.852 43.2479C152.196 43.2479 153.412 43.0239 154.5 42.5759C155.62 42.1279 156.532 41.4719 157.236 40.6079C157.972 39.7439 158.452 38.7199 158.676 37.5359L160.884 38.3039C160.468 39.7759 159.78 41.0399 158.82 42.0959C157.892 43.1519 156.756 43.9679 155.412 44.5439C154.068 45.0879 152.564 45.3599 150.9 45.3599C148.724 45.3599 146.772 44.8639 145.044 43.8719C143.348 42.8799 142.02 41.4559 141.06 39.5999C140.1 37.7119 139.62 35.4719 139.62 32.8799C139.62 30.2879 140.1 28.0639 141.06 26.2079C142.052 24.3199 143.396 22.8799 145.092 21.8879C146.82 20.8959 148.772 20.3999 150.948 20.3999ZM177.107 45.3599C174.899 45.3599 172.931 44.8639 171.203 43.8719C169.475 42.8799 168.115 41.4559 167.123 39.5999C166.163 37.7119 165.683 35.4719 165.683 32.8799C165.683 30.2879 166.163 28.0639 167.123 26.2079C168.115 24.3199 169.443 22.8799 171.107 21.8879C172.771 20.8959 174.675 20.3999 176.819 20.3999C178.995 20.3999 180.851 20.8799 182.387 21.8399C183.923 22.7999 185.107 24.1439 185.939 25.8719C186.771 27.5679 187.187 29.5359 187.187 31.7759C187.187 32.0639 187.171 32.3519 187.139 32.6399C187.139 32.8959 187.123 33.1359 187.091 33.3599H167.171V31.1999H186.035L184.835 31.5359C184.803 28.7839 184.067 26.5919 182.627 24.9599C181.219 23.3279 179.267 22.5119 176.771 22.5119C175.043 22.5119 173.523 22.9279 172.211 23.7599C170.899 24.5599 169.875 25.7439 169.139 27.3119C168.403 28.8479 168.035 30.7039 168.035 32.8799C168.035 35.0239 168.403 36.8799 169.139 38.4479C169.907 40.0159 170.963 41.2159 172.307 42.0479C173.683 42.8479 175.267 43.2479 177.059 43.2479C178.915 43.2479 180.499 42.8479 181.811 42.0479C183.155 41.2479 184.195 40.1439 184.931 38.7359L186.851 39.8399C186.275 40.9919 185.507 41.9839 184.547 42.8159C183.587 43.6159 182.483 44.2399 181.235 44.6879C179.987 45.1359 178.611 45.3599 177.107 45.3599ZM194.033 44.8799V20.8799H196.193L196.385 26.8799L196.001 26.5439C196.449 25.2319 197.121 24.1279 198.017 23.2319C198.913 22.3039 199.985 21.5999 201.233 21.1199C202.481 20.6399 203.825 20.3999 205.265 20.3999C207.057 20.3999 208.641 20.7359 210.017 21.4079C211.393 22.0799 212.465 23.0719 213.233 24.3839C214.033 25.6959 214.433 27.3439 214.433 29.3279V44.8799H212.033V30.0959C212.033 27.4719 211.377 25.5519 210.065 24.3359C208.785 23.1199 207.105 22.5119 205.025 22.5119C203.521 22.5119 202.113 22.8639 200.801 23.5679C199.521 24.2399 198.465 25.2319 197.633 26.5439C196.833 27.8559 196.433 29.4559 196.433 31.3439V44.8799H194.033ZM226.095 14.2079V38.5439C226.095 40.0479 226.447 41.1999 227.151 41.9999C227.887 42.7679 228.943 43.1519 230.319 43.1519C231.215 43.1519 231.999 43.0079 232.671 42.7199C233.375 42.3999 233.999 41.9519 234.543 41.3759L235.455 43.3439C234.847 43.9519 234.079 44.4479 233.151 44.8319C232.223 45.1839 231.183 45.3599 230.031 45.3599C228.783 45.3599 227.679 45.1359 226.719 44.6879C225.759 44.2079 225.007 43.4879 224.463 42.5279C223.951 41.5679 223.695 40.3519 223.695 38.8799V14.8799L226.095 14.2079ZM235.071 20.8799V22.9439H218.895V20.8799H235.071ZM266.25 13.1999C268.458 13.1999 270.362 13.5839 271.962 14.3519C273.562 15.0879 274.794 16.1439 275.658 17.5199C276.554 18.8959 277.002 20.5439 277.002 22.4639C277.002 24.4159 276.554 26.0799 275.658 27.4559C274.794 28.8319 273.562 29.9039 271.962 30.6719C270.362 31.4079 268.458 31.7759 266.25 31.7759H258.138V44.8799H255.738V13.1999H266.25ZM265.962 29.5199C268.746 29.5199 270.858 28.9119 272.298 27.6959C273.738 26.4479 274.458 24.7039 274.458 22.4639C274.458 20.2239 273.738 18.4959 272.298 17.2799C270.858 16.0319 268.746 15.4079 265.962 15.4079H258.138V29.5199H265.962ZM292.513 20.3999C294.753 20.3999 296.721 20.8959 298.417 21.8879C300.145 22.8799 301.489 24.3199 302.449 26.2079C303.441 28.0639 303.937 30.2879 303.937 32.8799C303.937 35.4719 303.441 37.7119 302.449 39.5999C301.489 41.4559 300.145 42.8799 298.417 43.8719C296.721 44.8639 294.753 45.3599 292.513 45.3599C290.273 45.3599 288.289 44.8639 286.561 43.8719C284.865 42.8799 283.521 41.4559 282.529 39.5999C281.569 37.7119 281.089 35.4719 281.089 32.8799C281.089 30.2879 281.569 28.0639 282.529 26.2079C283.521 24.3199 284.865 22.8799 286.561 21.8879C288.289 20.8959 290.273 20.3999 292.513 20.3999ZM292.513 22.4639C290.689 22.4639 289.105 22.8799 287.761 23.7119C286.417 24.5439 285.361 25.7439 284.593 27.3119C283.857 28.8479 283.489 30.7039 283.489 32.8799C283.489 35.0239 283.857 36.8799 284.593 38.4479C285.361 40.0159 286.417 41.2159 287.761 42.0479C289.105 42.8799 290.689 43.2959 292.513 43.2959C294.337 43.2959 295.921 42.8799 297.265 42.0479C298.609 41.2159 299.649 40.0159 300.385 38.4479C301.153 36.8799 301.537 35.0239 301.537 32.8799C301.537 30.7039 301.153 28.8479 300.385 27.3119C299.649 25.7439 298.609 24.5439 297.265 23.7119C295.921 22.8799 294.337 22.4639 292.513 22.4639ZM318.911 45.3599C316.479 45.3599 314.319 44.8639 312.431 43.8719C310.575 42.8799 309.263 41.4559 308.495 39.5999L310.559 38.2079C311.135 39.8079 312.159 41.0559 313.631 41.9519C315.135 42.8159 316.959 43.2479 319.103 43.2479C321.215 43.2479 322.863 42.8319 324.047 41.9999C325.263 41.1679 325.871 40.0639 325.871 38.6879C325.871 37.7599 325.567 36.9599 324.959 36.2879C324.383 35.5839 323.279 35.0559 321.647 34.7039L316.031 33.5039C313.727 33.0239 312.079 32.2559 311.087 31.1999C310.127 30.1119 309.647 28.7999 309.647 27.2639C309.647 25.9839 310.031 24.8319 310.799 23.8079C311.567 22.7839 312.623 21.9679 313.967 21.3599C315.343 20.7199 316.943 20.3999 318.767 20.3999C321.167 20.3999 323.151 20.8799 324.719 21.8399C326.287 22.7679 327.391 24.1759 328.031 26.0639L326.015 27.3599C325.535 25.6639 324.639 24.4319 323.327 23.6639C322.047 22.8959 320.527 22.5119 318.767 22.5119C317.423 22.5119 316.239 22.7199 315.215 23.1359C314.223 23.5199 313.439 24.0639 312.863 24.7679C312.319 25.4399 312.047 26.2239 312.047 27.1199C312.047 28.0479 312.367 28.8959 313.007 29.6639C313.647 30.3999 314.783 30.9439 316.415 31.2959L322.175 32.5439C324.447 33.0239 326.031 33.7599 326.927 34.7519C327.823 35.7119 328.271 36.9119 328.271 38.3519C328.271 39.7919 327.887 41.0399 327.119 42.0959C326.351 43.1519 325.263 43.9679 323.855 44.5439C322.447 45.0879 320.799 45.3599 318.911 45.3599ZM338.97 14.2079V38.5439C338.97 40.0479 339.322 41.1999 340.026 41.9999C340.762 42.7679 341.818 43.1519 343.194 43.1519C344.09 43.1519 344.874 43.0079 345.546 42.7199C346.25 42.3999 346.874 41.9519 347.418 41.3759L348.33 43.3439C347.722 43.9519 346.954 44.4479 346.026 44.8319C345.098 45.1839 344.058 45.3599 342.906 45.3599C341.658 45.3599 340.554 45.1359 339.594 44.6879C338.634 44.2079 337.882 43.4879 337.338 42.5279C336.826 41.5679 336.57 40.3519 336.57 38.8799V14.8799L338.97 14.2079ZM347.946 20.8799V22.9439H331.77V20.8799H347.946ZM361.192 45.3599C358.76 45.3599 356.6 44.8639 354.712 43.8719C352.856 42.8799 351.544 41.4559 350.776 39.5999L352.84 38.2079C353.416 39.8079 354.44 41.0559 355.912 41.9519C357.416 42.8159 359.24 43.2479 361.384 43.2479C363.496 43.2479 365.144 42.8319 366.328 41.9999C367.544 41.1679 368.152 40.0639 368.152 38.6879C368.152 37.7599 367.848 36.9599 367.24 36.2879C366.664 35.5839 365.56 35.0559 363.928 34.7039L358.312 33.5039C356.008 33.0239 354.36 32.2559 353.368 31.1999C352.408 30.1119 351.928 28.7999 351.928 27.2639C351.928 25.9839 352.312 24.8319 353.08 23.8079C353.848 22.7839 354.904 21.9679 356.248 21.3599C357.624 20.7199 359.224 20.3999 361.048 20.3999C363.448 20.3999 365.432 20.8799 367 21.8399C368.568 22.7679 369.672 24.1759 370.312 26.0639L368.296 27.3599C367.816 25.6639 366.92 24.4319 365.608 23.6639C364.328 22.8959 362.808 22.5119 361.048 22.5119C359.704 22.5119 358.52 22.7199 357.496 23.1359C356.504 23.5199 355.72 24.0639 355.144 24.7679C354.6 25.4399 354.328 26.2239 354.328 27.1199C354.328 28.0479 354.648 28.8959 355.288 29.6639C355.928 30.3999 357.064 30.9439 358.696 31.2959L364.456 32.5439C366.728 33.0239 368.312 33.7599 369.208 34.7519C370.104 35.7119 370.552 36.9119 370.552 38.3519C370.552 39.7919 370.168 41.0399 369.4 42.0959C368.632 43.1519 367.544 43.9679 366.136 44.5439C364.728 45.0879 363.08 45.3599 361.192 45.3599Z" fill="#1E293B"/>
</svg>
