<svg width="453" height="113" viewBox="0 0 453 113" fill="none" xmlns="http://www.w3.org/2000/svg">
<path d="M31.5901 36.364C30.9821 38.124 30.0701 39.644 28.8541 40.924C27.6701 42.204 26.2301 43.18 24.5341 43.852C22.8701 44.524 20.9981 44.86 18.9181 44.86C16.0381 44.86 13.5101 44.204 11.3341 42.892C9.19011 41.548 7.51011 39.66 6.29411 37.228C5.11011 34.796 4.51811 31.9 4.51811 28.54C4.51811 25.18 5.11011 22.284 6.29411 19.852C7.47811 17.42 9.14211 15.548 11.2861 14.236C13.4621 12.892 15.9901 12.22 18.8701 12.22C21.0141 12.22 22.8861 12.524 24.4861 13.132C26.1181 13.708 27.4941 14.588 28.6141 15.772C29.7341 16.924 30.5821 18.348 31.1581 20.044L28.8061 21.148C28.0701 18.94 26.9021 17.276 25.3021 16.156C23.7021 15.004 21.6061 14.428 19.0141 14.428C16.6461 14.428 14.5501 15.004 12.7261 16.156C10.9341 17.276 9.52611 18.892 8.50211 21.004C7.51011 23.084 7.01411 25.596 7.01411 28.54C7.01411 31.452 7.51011 33.964 8.50211 36.076C9.49411 38.188 10.8861 39.82 12.6781 40.972C14.4701 42.092 16.5501 42.652 18.9181 42.652C21.4781 42.652 23.6541 42.044 25.4461 40.828C27.2381 39.58 28.4861 37.788 29.1901 35.452L31.5901 36.364ZM37.9235 44.38V9.34H40.3235V25.276C41.0275 23.58 42.1635 22.268 43.7315 21.34C45.2995 20.38 47.1075 19.9 49.1555 19.9C50.9475 19.9 52.5315 20.236 53.9075 20.908C55.2835 21.548 56.3555 22.54 57.1235 23.884C57.9235 25.196 58.3235 26.828 58.3235 28.78V44.38H55.9235V29.548C55.9235 26.956 55.2675 25.052 53.9555 23.836C52.6755 22.588 50.9955 21.964 48.9155 21.964C47.4115 21.964 46.0035 22.316 44.6915 23.02C43.4115 23.724 42.3555 24.732 41.5235 26.044C40.7235 27.356 40.3235 28.956 40.3235 30.844V44.38H37.9235ZM76.403 19.9C78.643 19.9 80.611 20.396 82.307 21.388C84.035 22.38 85.379 23.82 86.339 25.708C87.331 27.564 87.827 29.788 87.827 32.38C87.827 34.972 87.331 37.212 86.339 39.1C85.379 40.956 84.035 42.38 82.307 43.372C80.611 44.364 78.643 44.86 76.403 44.86C74.163 44.86 72.179 44.364 70.451 43.372C68.755 42.38 67.411 40.956 66.419 39.1C65.459 37.212 64.979 34.972 64.979 32.38C64.979 29.788 65.459 27.564 66.419 25.708C67.411 23.82 68.755 22.38 70.451 21.388C72.179 20.396 74.163 19.9 76.403 19.9ZM76.403 21.964C74.579 21.964 72.995 22.38 71.651 23.212C70.307 24.044 69.251 25.244 68.483 26.812C67.747 28.348 67.379 30.204 67.379 32.38C67.379 34.524 67.747 36.38 68.483 37.948C69.251 39.516 70.307 40.716 71.651 41.548C72.995 42.38 74.579 42.796 76.403 42.796C78.227 42.796 79.811 42.38 81.155 41.548C82.499 40.716 83.539 39.516 84.275 37.948C85.043 36.38 85.427 34.524 85.427 32.38C85.427 30.204 85.043 28.348 84.275 26.812C83.539 25.244 82.499 24.044 81.155 23.212C79.811 22.38 78.227 21.964 76.403 21.964ZM104.481 19.9C106.721 19.9 108.689 20.396 110.385 21.388C112.113 22.38 113.457 23.82 114.417 25.708C115.409 27.564 115.905 29.788 115.905 32.38C115.905 34.972 115.409 37.212 114.417 39.1C113.457 40.956 112.113 42.38 110.385 43.372C108.689 44.364 106.721 44.86 104.481 44.86C102.241 44.86 100.257 44.364 98.5291 43.372C96.8331 42.38 95.4891 40.956 94.4971 39.1C93.5371 37.212 93.0571 34.972 93.0571 32.38C93.0571 29.788 93.5371 27.564 94.4971 25.708C95.4891 23.82 96.8331 22.38 98.5291 21.388C100.257 20.396 102.241 19.9 104.481 19.9ZM104.481 21.964C102.657 21.964 101.073 22.38 99.7291 23.212C98.3851 24.044 97.3291 25.244 96.5611 26.812C95.8251 28.348 95.4571 30.204 95.4571 32.38C95.4571 34.524 95.8251 36.38 96.5611 37.948C97.3291 39.516 98.3851 40.716 99.7291 41.548C101.073 42.38 102.657 42.796 104.481 42.796C106.305 42.796 107.889 42.38 109.233 41.548C110.577 40.716 111.617 39.516 112.353 37.948C113.121 36.38 113.505 34.524 113.505 32.38C113.505 30.204 113.121 28.348 112.353 26.812C111.617 25.244 110.577 24.044 109.233 23.212C107.889 22.38 106.305 21.964 104.481 21.964ZM130.879 44.86C128.447 44.86 126.287 44.364 124.399 43.372C122.543 42.38 121.231 40.956 120.463 39.1L122.527 37.708C123.103 39.308 124.127 40.556 125.599 41.452C127.103 42.316 128.927 42.748 131.071 42.748C133.183 42.748 134.831 42.332 136.015 41.5C137.231 40.668 137.839 39.564 137.839 38.188C137.839 37.26 137.535 36.46 136.927 35.788C136.351 35.084 135.247 34.556 133.615 34.204L127.999 33.004C125.695 32.524 124.047 31.756 123.055 30.7C122.095 29.612 121.615 28.3 121.615 26.764C121.615 25.484 121.999 24.332 122.767 23.308C123.535 22.284 124.591 21.468 125.935 20.86C127.311 20.22 128.911 19.9 130.735 19.9C133.135 19.9 135.119 20.38 136.687 21.34C138.255 22.268 139.359 23.676 139.999 25.564L137.983 26.86C137.503 25.164 136.607 23.932 135.295 23.164C134.015 22.396 132.495 22.012 130.735 22.012C129.391 22.012 128.207 22.22 127.183 22.636C126.191 23.02 125.407 23.564 124.831 24.268C124.287 24.94 124.015 25.724 124.015 26.62C124.015 27.548 124.335 28.396 124.975 29.164C125.615 29.9 126.751 30.444 128.383 30.796L134.143 32.044C136.415 32.524 137.999 33.26 138.895 34.252C139.791 35.212 140.239 36.412 140.239 37.852C140.239 39.292 139.855 40.54 139.087 41.596C138.319 42.652 137.231 43.468 135.823 44.044C134.415 44.588 132.767 44.86 130.879 44.86ZM156.747 44.86C154.539 44.86 152.571 44.364 150.843 43.372C149.115 42.38 147.755 40.956 146.763 39.1C145.803 37.212 145.323 34.972 145.323 32.38C145.323 29.788 145.803 27.564 146.763 25.708C147.755 23.82 149.083 22.38 150.747 21.388C152.411 20.396 154.315 19.9 156.459 19.9C158.635 19.9 160.491 20.38 162.027 21.34C163.563 22.3 164.747 23.644 165.579 25.372C166.411 27.068 166.827 29.036 166.827 31.276C166.827 31.564 166.811 31.852 166.779 32.14C166.779 32.396 166.763 32.636 166.731 32.86H146.811V30.7H165.675L164.475 31.036C164.443 28.284 163.707 26.092 162.267 24.46C160.859 22.828 158.907 22.012 156.411 22.012C154.683 22.012 153.163 22.428 151.851 23.26C150.539 24.06 149.515 25.244 148.779 26.812C148.043 28.348 147.675 30.204 147.675 32.38C147.675 34.524 148.043 36.38 148.779 37.948C149.547 39.516 150.603 40.716 151.947 41.548C153.323 42.348 154.907 42.748 156.699 42.748C158.555 42.748 160.139 42.348 161.451 41.548C162.795 40.748 163.835 39.644 164.571 38.236L166.491 39.34C165.915 40.492 165.147 41.484 164.187 42.316C163.227 43.116 162.123 43.74 160.875 44.188C159.627 44.636 158.251 44.86 156.747 44.86ZM208.155 12.7L196.923 32.044V44.38H194.523V32.044L183.291 12.7H186.123L192.315 23.548L195.723 29.548L199.131 23.548L205.323 12.7H208.155ZM219.559 19.9C221.799 19.9 223.767 20.396 225.463 21.388C227.191 22.38 228.535 23.82 229.495 25.708C230.487 27.564 230.983 29.788 230.983 32.38C230.983 34.972 230.487 37.212 229.495 39.1C228.535 40.956 227.191 42.38 225.463 43.372C223.767 44.364 221.799 44.86 219.559 44.86C217.319 44.86 215.335 44.364 213.607 43.372C211.911 42.38 210.567 40.956 209.575 39.1C208.615 37.212 208.135 34.972 208.135 32.38C208.135 29.788 208.615 27.564 209.575 25.708C210.567 23.82 211.911 22.38 213.607 21.388C215.335 20.396 217.319 19.9 219.559 19.9ZM219.559 21.964C217.735 21.964 216.151 22.38 214.807 23.212C213.463 24.044 212.407 25.244 211.639 26.812C210.903 28.348 210.535 30.204 210.535 32.38C210.535 34.524 210.903 36.38 211.639 37.948C212.407 39.516 213.463 40.716 214.807 41.548C216.151 42.38 217.735 42.796 219.559 42.796C221.383 42.796 222.967 42.38 224.311 41.548C225.655 40.716 226.695 39.516 227.431 37.948C228.199 36.38 228.583 34.524 228.583 32.38C228.583 30.204 228.199 28.348 227.431 26.812C226.695 25.244 225.655 24.044 224.311 23.212C222.967 22.38 221.383 21.964 219.559 21.964ZM246.293 44.86C244.629 44.86 243.141 44.556 241.829 43.948C240.517 43.34 239.477 42.396 238.709 41.116C237.973 39.804 237.605 38.172 237.605 36.22V20.38H240.005V35.644C240.005 38.14 240.597 39.948 241.781 41.068C242.997 42.188 244.693 42.748 246.869 42.748C248.149 42.748 249.301 42.524 250.325 42.076C251.381 41.628 252.277 41.004 253.013 40.204C253.749 39.404 254.309 38.492 254.693 37.468C255.109 36.444 255.317 35.34 255.317 34.156V20.38H257.717V44.38H255.557L255.461 39.436C254.757 41.132 253.605 42.46 252.005 43.42C250.405 44.38 248.501 44.86 246.293 44.86ZM266.252 44.38V20.38H268.268L268.556 25.42C269.164 23.724 270.14 22.38 271.484 21.388C272.828 20.396 274.444 19.9 276.332 19.9C276.972 19.9 277.548 19.964 278.06 20.092C278.572 20.22 278.988 20.428 279.308 20.716L278.78 22.828C278.428 22.604 278.044 22.428 277.628 22.3C277.212 22.172 276.588 22.108 275.756 22.108C274.54 22.108 273.388 22.492 272.3 23.26C271.212 23.996 270.332 25.036 269.66 26.38C268.988 27.692 268.652 29.212 268.652 30.94V44.38H266.252ZM301.387 42.172H320.395V44.38H298.987V12.7H301.387V42.172ZM333.934 44.86C331.726 44.86 329.758 44.364 328.03 43.372C326.302 42.38 324.942 40.956 323.95 39.1C322.99 37.212 322.51 34.972 322.51 32.38C322.51 29.788 322.99 27.564 323.95 25.708C324.942 23.82 326.27 22.38 327.934 21.388C329.598 20.396 331.502 19.9 333.646 19.9C335.822 19.9 337.678 20.38 339.214 21.34C340.75 22.3 341.934 23.644 342.766 25.372C343.598 27.068 344.014 29.036 344.014 31.276C344.014 31.564 343.998 31.852 343.966 32.14C343.966 32.396 343.95 32.636 343.918 32.86H323.998V30.7H342.862L341.662 31.036C341.63 28.284 340.894 26.092 339.454 24.46C338.046 22.828 336.094 22.012 333.598 22.012C331.87 22.012 330.35 22.428 329.038 23.26C327.726 24.06 326.702 25.244 325.966 26.812C325.23 28.348 324.862 30.204 324.862 32.38C324.862 34.524 325.23 36.38 325.966 37.948C326.734 39.516 327.79 40.716 329.134 41.548C330.51 42.348 332.094 42.748 333.886 42.748C335.742 42.748 337.326 42.348 338.638 41.548C339.982 40.748 341.022 39.644 341.758 38.236L343.678 39.34C343.102 40.492 342.334 41.484 341.374 42.316C340.414 43.116 339.31 43.74 338.062 44.188C336.814 44.636 335.438 44.86 333.934 44.86ZM366.669 20.38H369.213L359.181 44.38H356.781L346.749 20.38H349.437L358.029 41.884L366.669 20.38ZM383.762 44.86C381.554 44.86 379.586 44.364 377.858 43.372C376.13 42.38 374.77 40.956 373.778 39.1C372.818 37.212 372.338 34.972 372.338 32.38C372.338 29.788 372.818 27.564 373.778 25.708C374.77 23.82 376.098 22.38 377.762 21.388C379.426 20.396 381.33 19.9 383.474 19.9C385.65 19.9 387.506 20.38 389.042 21.34C390.578 22.3 391.762 23.644 392.594 25.372C393.426 27.068 393.842 29.036 393.842 31.276C393.842 31.564 393.826 31.852 393.794 32.14C393.794 32.396 393.778 32.636 393.746 32.86H373.826V30.7H392.69L391.49 31.036C391.458 28.284 390.722 26.092 389.282 24.46C387.874 22.828 385.922 22.012 383.426 22.012C381.698 22.012 380.178 22.428 378.866 23.26C377.554 24.06 376.53 25.244 375.794 26.812C375.058 28.348 374.69 30.204 374.69 32.38C374.69 34.524 375.058 36.38 375.794 37.948C376.562 39.516 377.618 40.716 378.962 41.548C380.338 42.348 381.922 42.748 383.714 42.748C385.57 42.748 387.154 42.348 388.466 41.548C389.81 40.748 390.85 39.644 391.586 38.236L393.506 39.34C392.93 40.492 392.162 41.484 391.202 42.316C390.242 43.116 389.138 43.74 387.89 44.188C386.642 44.636 385.266 44.86 383.762 44.86ZM402.897 9.34V38.716C402.897 40.188 403.153 41.228 403.665 41.836C404.177 42.444 404.977 42.748 406.065 42.748C406.737 42.748 407.265 42.7 407.649 42.604C408.065 42.508 408.545 42.348 409.089 42.124L408.753 44.236C408.337 44.428 407.857 44.572 407.313 44.668C406.801 44.796 406.225 44.86 405.585 44.86C403.889 44.86 402.609 44.38 401.745 43.42C400.913 42.428 400.497 40.892 400.497 38.812V9.34H402.897ZM434.945 44.86C433.025 44.86 431.345 44.54 429.905 43.9C428.465 43.228 427.345 42.3 426.545 41.116C425.745 39.932 425.345 38.556 425.345 36.988C425.345 35.836 425.505 34.796 425.825 33.868C426.177 32.94 426.689 32.076 427.361 31.276C428.065 30.444 428.929 29.66 429.953 28.924C431.009 28.188 432.241 27.468 433.649 26.764L434.849 26.188C436.193 25.42 437.345 24.7 438.305 24.028C439.265 23.324 440.017 22.556 440.561 21.724C441.105 20.86 441.377 19.82 441.377 18.604C441.377 17.292 440.945 16.268 440.081 15.532C439.249 14.764 438.113 14.38 436.673 14.38C435.105 14.38 433.889 14.828 433.025 15.724C432.161 16.588 431.729 17.692 431.729 19.036C431.729 19.708 431.809 20.348 431.969 20.956C432.161 21.532 432.529 22.252 433.073 23.116C433.617 23.948 434.417 25.068 435.473 26.476C436.529 27.852 437.937 29.676 439.697 31.948C441.553 34.284 443.089 36.188 444.305 37.66C445.521 39.132 446.561 40.252 447.425 41.02C448.289 41.788 449.073 42.316 449.777 42.604C450.513 42.892 451.281 43.036 452.081 43.036L451.553 44.86C450.657 44.86 449.809 44.7 449.009 44.38C448.209 44.092 447.329 43.548 446.369 42.748C445.409 41.916 444.273 40.732 442.961 39.196C441.649 37.66 440.033 35.692 438.113 33.292C436.417 31.148 435.009 29.356 433.889 27.916C432.801 26.476 431.921 25.26 431.249 24.268C430.609 23.276 430.145 22.38 429.857 21.58C429.601 20.78 429.473 19.932 429.473 19.036C429.473 17.82 429.745 16.7 430.289 15.676C430.865 14.652 431.697 13.836 432.785 13.228C433.873 12.62 435.217 12.316 436.817 12.316C438.161 12.316 439.329 12.556 440.321 13.036C441.313 13.516 442.081 14.22 442.625 15.148C443.201 16.044 443.489 17.116 443.489 18.364C443.489 19.708 443.217 20.908 442.673 21.964C442.161 23.02 441.361 23.996 440.273 24.892C439.185 25.788 437.761 26.732 436.001 27.724L434.993 28.108C433.361 28.972 431.985 29.82 430.865 30.652C429.777 31.452 428.961 32.332 428.417 33.292C427.873 34.252 427.601 35.42 427.601 36.796C427.601 38.044 427.937 39.132 428.609 40.06C429.281 40.988 430.177 41.692 431.297 42.172C432.417 42.652 433.681 42.892 435.089 42.892C437.009 42.892 438.657 42.524 440.033 41.788C441.409 41.052 442.609 40.044 443.633 38.764L443.969 38.38C444.961 36.94 445.697 35.26 446.177 33.34C446.657 31.42 446.849 29.356 446.753 27.148L448.865 27.292C448.929 29.436 448.689 31.596 448.145 33.772C447.633 35.916 446.753 37.82 445.505 39.484L445.073 40.108C443.953 41.548 442.545 42.7 440.849 43.564C439.185 44.428 437.217 44.86 434.945 44.86Z" fill="#1E293B"/>
<path d="M187.111 70.908H167.911V83.148H183.127V85.404H167.911V100.38H165.511V68.7H187.111V70.908ZM200.176 75.9C202.416 75.9 204.384 76.396 206.08 77.388C207.808 78.38 209.152 79.82 210.112 81.708C211.104 83.564 211.6 85.788 211.6 88.38C211.6 90.972 211.104 93.212 210.112 95.1C209.152 96.956 207.808 98.38 206.08 99.372C204.384 100.364 202.416 100.86 200.176 100.86C197.936 100.86 195.952 100.364 194.224 99.372C192.528 98.38 191.184 96.956 190.192 95.1C189.232 93.212 188.752 90.972 188.752 88.38C188.752 85.788 189.232 83.564 190.192 81.708C191.184 79.82 192.528 78.38 194.224 77.388C195.952 76.396 197.936 75.9 200.176 75.9ZM200.176 77.964C198.352 77.964 196.768 78.38 195.424 79.212C194.08 80.044 193.024 81.244 192.256 82.812C191.52 84.348 191.152 86.204 191.152 88.38C191.152 90.524 191.52 92.38 192.256 93.948C193.024 95.516 194.08 96.716 195.424 97.548C196.768 98.38 198.352 98.796 200.176 98.796C202 98.796 203.584 98.38 204.928 97.548C206.272 96.716 207.312 95.516 208.048 93.948C208.816 92.38 209.2 90.524 209.2 88.38C209.2 86.204 208.816 84.348 208.048 82.812C207.312 81.244 206.272 80.044 204.928 79.212C203.584 78.38 202 77.964 200.176 77.964ZM228.159 75.9C229.791 75.9 231.247 76.156 232.527 76.668C233.807 77.18 234.895 77.916 235.791 78.876C236.687 79.836 237.375 81.004 237.855 82.38L235.599 83.436C235.087 81.708 234.191 80.38 232.911 79.452C231.663 78.492 230.063 78.012 228.111 78.012C226.351 78.012 224.799 78.428 223.455 79.26C222.111 80.06 221.071 81.244 220.335 82.812C219.599 84.348 219.231 86.204 219.231 88.38C219.231 90.524 219.599 92.38 220.335 93.948C221.071 95.516 222.095 96.716 223.407 97.548C224.719 98.348 226.271 98.748 228.063 98.748C229.407 98.748 230.623 98.524 231.711 98.076C232.831 97.628 233.743 96.972 234.447 96.108C235.183 95.244 235.663 94.22 235.887 93.036L238.095 93.804C237.679 95.276 236.991 96.54 236.031 97.596C235.103 98.652 233.967 99.468 232.623 100.044C231.279 100.588 229.775 100.86 228.111 100.86C225.935 100.86 223.983 100.364 222.255 99.372C220.559 98.38 219.231 96.956 218.271 95.1C217.311 93.212 216.831 90.972 216.831 88.38C216.831 85.788 217.311 83.564 218.271 81.708C219.263 79.82 220.607 78.38 222.303 77.388C224.031 76.396 225.983 75.9 228.159 75.9ZM252.973 100.86C251.309 100.86 249.821 100.556 248.509 99.948C247.197 99.34 246.157 98.396 245.389 97.116C244.653 95.804 244.285 94.172 244.285 92.22V76.38H246.685V91.644C246.685 94.14 247.277 95.948 248.461 97.068C249.677 98.188 251.373 98.748 253.549 98.748C254.829 98.748 255.981 98.524 257.005 98.076C258.061 97.628 258.957 97.004 259.693 96.204C260.429 95.404 260.989 94.492 261.373 93.468C261.789 92.444 261.997 91.34 261.997 90.156V76.38H264.397V100.38H262.237L262.141 95.436C261.437 97.132 260.285 98.46 258.685 99.42C257.085 100.38 255.181 100.86 252.973 100.86ZM281.043 100.86C278.611 100.86 276.451 100.364 274.563 99.372C272.707 98.38 271.395 96.956 270.627 95.1L272.691 93.708C273.267 95.308 274.291 96.556 275.763 97.452C277.267 98.316 279.091 98.748 281.235 98.748C283.347 98.748 284.995 98.332 286.179 97.5C287.395 96.668 288.003 95.564 288.003 94.188C288.003 93.26 287.699 92.46 287.091 91.788C286.515 91.084 285.411 90.556 283.779 90.204L278.163 89.004C275.859 88.524 274.211 87.756 273.219 86.7C272.259 85.612 271.779 84.3 271.779 82.764C271.779 81.484 272.163 80.332 272.931 79.308C273.699 78.284 274.755 77.468 276.099 76.86C277.475 76.22 279.075 75.9 280.899 75.9C283.299 75.9 285.283 76.38 286.851 77.34C288.419 78.268 289.523 79.676 290.163 81.564L288.147 82.86C287.667 81.164 286.771 79.932 285.459 79.164C284.179 78.396 282.659 78.012 280.899 78.012C279.555 78.012 278.371 78.22 277.347 78.636C276.355 79.02 275.571 79.564 274.995 80.268C274.451 80.94 274.179 81.724 274.179 82.62C274.179 83.548 274.499 84.396 275.139 85.164C275.779 85.9 276.915 86.444 278.547 86.796L284.307 88.044C286.579 88.524 288.163 89.26 289.059 90.252C289.955 91.212 290.403 92.412 290.403 93.852C290.403 95.292 290.019 96.54 289.251 97.596C288.483 98.652 287.395 99.468 285.987 100.044C284.579 100.588 282.931 100.86 281.043 100.86Z" fill="#1E293B"/>
</svg>
