<svg width="485" height="528" viewBox="0 0 485 528" fill="none" xmlns="http://www.w3.org/2000/svg">
<rect width="485" height="526.5" transform="translate(0 0.620117)" fill="#D291BC"/>
<path d="M219.012 86.7801V96.7161C219.012 98.7481 218.476 100.284 217.404 101.324C216.332 102.348 214.796 102.86 212.796 102.86C210.812 102.86 209.276 102.348 208.188 101.324C207.116 100.284 206.58 98.7481 206.58 96.7161V86.7801H208.5V96.2361C208.5 97.8841 208.844 99.1001 209.532 99.8841C210.236 100.668 211.324 101.06 212.796 101.06C214.268 101.06 215.348 100.668 216.036 99.8841C216.74 99.1001 217.092 97.8841 217.092 96.2361V86.7801H219.012ZM235.02 86.7801V88.5801H229.5V102.62H227.58V88.5801H222.06V86.7801H235.02ZM249.456 88.5801H240.288V93.6921H247.44V95.4921H240.288V102.62H238.368V86.7801H249.456V88.5801ZM258.609 86.7801C259.681 86.7801 260.609 86.9801 261.393 87.3801C262.193 87.7641 262.817 88.3161 263.265 89.0361C263.713 89.7561 263.937 90.6121 263.937 91.6041C263.937 92.5961 263.713 93.4521 263.265 94.1721C262.817 94.8921 262.193 95.4521 261.393 95.8521C260.609 96.2361 259.681 96.4281 258.609 96.4281H254.937V102.62H253.017V86.7801H258.609ZM258.321 94.6281C259.569 94.6281 260.481 94.3721 261.057 93.8601C261.633 93.3321 261.921 92.5801 261.921 91.6041C261.921 90.6121 261.633 89.8601 261.057 89.3481C260.481 88.8361 259.569 88.5801 258.321 88.5801H254.937V94.6281H258.321ZM273.665 86.7801C275.281 86.7801 276.577 87.1961 277.553 88.0281C278.529 88.8601 279.017 89.9881 279.017 91.4121C279.017 92.8361 278.521 93.9481 277.529 94.7481C276.553 95.5321 275.257 95.9241 273.641 95.9241L273.473 96.0441H269.585V102.62H267.665V86.7801H273.665ZM273.641 94.2441C274.777 94.2441 275.617 94.0121 276.161 93.5481C276.721 93.0681 277.001 92.3561 277.001 91.4121C277.001 90.4681 276.721 89.7641 276.161 89.3001C275.617 88.8201 274.777 88.5801 273.641 88.5801H269.585V94.2441H273.641ZM274.745 94.6281L279.977 102.62H277.697L273.137 95.6841L274.745 94.6281Z" fill="white"/>
<path d="M18.953 160.12V158.82C20.273 157.847 21.373 156.993 22.253 156.26C23.1463 155.527 23.8596 154.86 24.393 154.26C24.9263 153.66 25.3063 153.093 25.533 152.56C25.7596 152.013 25.873 151.447 25.873 150.86C25.873 150.073 25.6196 149.44 25.113 148.96C24.6196 148.467 23.9396 148.22 23.073 148.22C22.1663 148.22 21.4396 148.52 20.893 149.12C20.3463 149.707 20.0263 150.493 19.933 151.48L18.533 150.64C18.653 149.867 18.8996 149.187 19.273 148.6C19.6596 148.013 20.173 147.553 20.813 147.22C21.4663 146.887 22.2396 146.72 23.133 146.72C23.813 146.72 24.4196 146.82 24.953 147.02C25.4996 147.22 25.9663 147.507 26.353 147.88C26.7396 148.24 27.033 148.673 27.233 149.18C27.4463 149.687 27.553 150.247 27.553 150.86C27.553 151.687 27.353 152.5 26.953 153.3C26.553 154.087 25.893 154.913 24.973 155.78C24.053 156.647 22.8063 157.607 21.233 158.66V158.68C21.3796 158.667 21.5796 158.66 21.833 158.66C22.0996 158.647 22.3596 158.64 22.613 158.64C22.8796 158.627 23.0796 158.62 23.213 158.62H27.833V160.12H18.953ZM35.3531 160.32C33.8598 160.32 32.6665 159.74 31.7731 158.58C30.8798 157.42 30.4331 155.733 30.4331 153.52C30.4331 151.307 30.8798 149.62 31.7731 148.46C32.6665 147.3 33.8598 146.72 35.3531 146.72C36.8598 146.72 38.0531 147.3 38.9331 148.46C39.8265 149.62 40.2731 151.307 40.2731 153.52C40.2731 155.733 39.8265 157.42 38.9331 158.58C38.0531 159.74 36.8598 160.32 35.3531 160.32ZM35.3531 158.88C36.0598 158.88 36.6531 158.68 37.1331 158.28C37.6265 157.867 37.9931 157.26 38.2331 156.46C38.4865 155.66 38.6131 154.68 38.6131 153.52C38.6131 152.36 38.4865 151.38 38.2331 150.58C37.9931 149.78 37.6265 149.18 37.1331 148.78C36.6531 148.367 36.0598 148.16 35.3531 148.16C34.6465 148.16 34.0465 148.367 33.5531 148.78C33.0731 149.18 32.7065 149.78 32.4531 150.58C32.2131 151.38 32.0931 152.36 32.0931 153.52C32.0931 154.68 32.2131 155.66 32.4531 156.46C32.7065 157.26 33.0731 157.867 33.5531 158.28C34.0465 158.68 34.6465 158.88 35.3531 158.88ZM46.9839 160.32C45.8106 160.32 44.7706 160.047 43.8639 159.5C42.9706 158.94 42.3639 158.173 42.0439 157.2L43.6439 156.38C43.8039 156.873 44.0239 157.307 44.3039 157.68C44.5839 158.04 44.9506 158.32 45.4039 158.52C45.8706 158.72 46.4506 158.82 47.1439 158.82C47.7306 158.82 48.2239 158.713 48.6239 158.5C49.0239 158.287 49.3306 158 49.5439 157.64C49.7572 157.267 49.8639 156.84 49.8639 156.36C49.8639 155.88 49.7706 155.48 49.5839 155.16C49.4106 154.84 49.1306 154.607 48.7439 154.46C48.3572 154.3 47.8506 154.22 47.2239 154.22C47.0772 154.22 46.9172 154.227 46.7439 154.24C46.5706 154.24 46.3906 154.253 46.2039 154.28V152.68C46.3239 152.693 46.4372 152.7 46.5439 152.7C46.6639 152.7 46.7706 152.7 46.8639 152.7C47.8372 152.7 48.5306 152.513 48.9439 152.14C49.3572 151.753 49.5639 151.153 49.5639 150.34C49.5639 149.647 49.3506 149.12 48.9239 148.76C48.4972 148.4 47.8906 148.22 47.1039 148.22C46.2639 148.22 45.6239 148.407 45.1839 148.78C44.7439 149.14 44.3972 149.633 44.1439 150.26L42.6239 149.54C42.8372 148.98 43.1572 148.487 43.5839 148.06C44.0106 147.633 44.5239 147.3 45.1239 147.06C45.7372 146.82 46.4106 146.7 47.1439 146.7C48.0639 146.7 48.8239 146.86 49.4239 147.18C50.0239 147.487 50.4706 147.9 50.7639 148.42C51.0706 148.94 51.2239 149.513 51.2239 150.14C51.2239 150.62 51.1572 151.053 51.0239 151.44C50.8906 151.813 50.7039 152.14 50.4639 152.42C50.2372 152.7 49.9772 152.927 49.6839 153.1C49.3906 153.26 49.0772 153.367 48.7439 153.42V153.46C49.1839 153.473 49.5706 153.56 49.9039 153.72C50.2506 153.88 50.5439 154.093 50.7839 154.36C51.0239 154.627 51.2039 154.933 51.3239 155.28C51.4572 155.613 51.5239 155.967 51.5239 156.34C51.5239 157.113 51.3306 157.8 50.9439 158.4C50.5706 159 50.0439 159.473 49.3639 159.82C48.6839 160.153 47.8906 160.32 46.9839 160.32ZM63.4205 158.62H70.9805V160.12H61.8205V146.92H63.4205V158.62ZM79.3136 153.66C79.3136 152.913 79.1136 152.34 78.7136 151.94C78.3136 151.527 77.7469 151.32 77.0136 151.32C76.3203 151.32 75.7336 151.473 75.2536 151.78C74.7736 152.073 74.4203 152.553 74.1936 153.22L72.8936 152.42C73.1603 151.673 73.6536 151.073 74.3736 150.62C75.0936 150.153 75.9869 149.92 77.0536 149.92C77.7736 149.92 78.4269 150.047 79.0136 150.3C79.6003 150.54 80.0603 150.913 80.3936 151.42C80.7403 151.913 80.9136 152.553 80.9136 153.34V158.18C80.9136 158.66 81.1669 158.9 81.6736 158.9C81.9269 158.9 82.1736 158.867 82.4136 158.8L82.3336 160.06C82.0669 160.193 81.7203 160.26 81.2936 160.26C80.9069 160.26 80.5603 160.187 80.2536 160.04C79.9469 159.893 79.7069 159.673 79.5336 159.38C79.3603 159.073 79.2736 158.693 79.2736 158.24V158.04L79.6736 158.1C79.5136 158.62 79.2403 159.047 78.8536 159.38C78.4669 159.7 78.0336 159.94 77.5536 160.1C77.0736 160.247 76.6003 160.32 76.1336 160.32C75.5469 160.32 75.0003 160.22 74.4936 160.02C73.9869 159.82 73.5803 159.52 73.2736 159.12C72.9803 158.707 72.8336 158.2 72.8336 157.6C72.8336 156.853 73.0803 156.24 73.5736 155.76C74.0803 155.267 74.7803 154.933 75.6736 154.76L79.6336 153.98V155.3L76.4136 155.96C75.7603 156.093 75.2736 156.28 74.9536 156.52C74.6336 156.76 74.4736 157.093 74.4736 157.52C74.4736 157.933 74.6336 158.273 74.9536 158.54C75.2869 158.793 75.7536 158.92 76.3536 158.92C76.7403 158.92 77.1069 158.873 77.4536 158.78C77.8136 158.673 78.1336 158.52 78.4136 158.32C78.6936 158.107 78.9136 157.847 79.0736 157.54C79.2336 157.22 79.3136 156.847 79.3136 156.42V153.66ZM86.3217 145.52V157.58C86.3217 158.087 86.415 158.44 86.6017 158.64C86.7884 158.827 87.0884 158.92 87.5017 158.92C87.7684 158.92 87.9884 158.9 88.1617 158.86C88.335 158.82 88.5684 158.747 88.8617 158.64L88.6017 160.04C88.3884 160.133 88.155 160.2 87.9017 160.24C87.6484 160.293 87.3884 160.32 87.1217 160.32C86.3084 160.32 85.7017 160.1 85.3017 159.66C84.915 159.22 84.7217 158.547 84.7217 157.64V145.52H86.3217ZM101.568 146.72C102.728 146.72 103.728 146.96 104.568 147.44C105.408 147.907 106.108 148.6 106.668 149.52L105.328 150.56C104.835 149.707 104.275 149.107 103.648 148.76C103.035 148.4 102.288 148.22 101.408 148.22C100.702 148.22 100.115 148.32 99.6483 148.52C99.1949 148.72 98.8616 148.987 98.6483 149.32C98.4349 149.64 98.3283 150.007 98.3283 150.42C98.3283 150.887 98.4749 151.3 98.7683 151.66C99.0616 152.007 99.6483 152.28 100.528 152.48L103.388 153.12C104.655 153.4 105.535 153.827 106.028 154.4C106.535 154.96 106.788 155.66 106.788 156.5C106.788 157.247 106.575 157.913 106.148 158.5C105.735 159.073 105.148 159.52 104.388 159.84C103.628 160.16 102.735 160.32 101.708 160.32C100.748 160.32 99.9016 160.193 99.1683 159.94C98.4483 159.673 97.8283 159.32 97.3083 158.88C96.7883 158.44 96.3616 157.947 96.0283 157.4L97.4283 156.26C97.6816 156.767 98.0083 157.213 98.4083 157.6C98.8083 157.987 99.2883 158.287 99.8483 158.5C100.422 158.713 101.075 158.82 101.808 158.82C102.488 158.82 103.075 158.74 103.568 158.58C104.075 158.407 104.462 158.16 104.728 157.84C104.995 157.507 105.128 157.107 105.128 156.64C105.128 156.213 104.988 155.833 104.708 155.5C104.428 155.153 103.902 154.893 103.128 154.72L100.028 154.02C99.2149 153.833 98.5549 153.58 98.0483 153.26C97.5549 152.927 97.1949 152.54 96.9683 152.1C96.7549 151.647 96.6483 151.16 96.6483 150.64C96.6483 149.933 96.8416 149.287 97.2283 148.7C97.6283 148.1 98.1949 147.62 98.9283 147.26C99.6749 146.9 100.555 146.72 101.568 146.72ZM112.201 147.28V157.36C112.201 157.853 112.341 158.22 112.621 158.46C112.901 158.7 113.261 158.82 113.701 158.82C114.087 158.82 114.421 158.753 114.701 158.62C114.981 158.487 115.234 158.307 115.461 158.08L116.021 159.42C115.714 159.7 115.347 159.92 114.921 160.08C114.507 160.24 114.027 160.32 113.481 160.32C112.974 160.32 112.501 160.233 112.061 160.06C111.621 159.873 111.267 159.587 111.001 159.2C110.747 158.8 110.614 158.28 110.601 157.64V147.72L112.201 147.28ZM115.841 150.12V151.5H108.601V150.12H115.841ZM118.22 160.12V150.12H119.52L119.74 151.76C120.02 151.147 120.426 150.687 120.96 150.38C121.506 150.073 122.166 149.92 122.94 149.92C123.113 149.92 123.3 149.933 123.5 149.96C123.713 149.987 123.893 150.04 124.04 150.12L123.76 151.58C123.613 151.527 123.453 151.487 123.28 151.46C123.106 151.433 122.86 151.42 122.54 151.42C122.126 151.42 121.706 151.54 121.28 151.78C120.866 152.02 120.52 152.387 120.24 152.88C119.96 153.36 119.82 153.973 119.82 154.72V160.12H118.22ZM130.251 160.32C129.305 160.32 128.458 160.113 127.711 159.7C126.978 159.287 126.405 158.693 125.991 157.92C125.578 157.133 125.371 156.2 125.371 155.12C125.371 154.04 125.578 153.113 125.991 152.34C126.405 151.553 126.971 150.953 127.691 150.54C128.411 150.127 129.231 149.92 130.151 149.92C131.085 149.92 131.878 150.12 132.531 150.52C133.198 150.92 133.705 151.467 134.051 152.16C134.398 152.84 134.571 153.607 134.571 154.46C134.571 154.687 134.565 154.893 134.551 155.08C134.538 155.267 134.518 155.433 134.491 155.58H126.411V154.16H133.791L132.971 154.32C132.971 153.36 132.705 152.62 132.171 152.1C131.651 151.58 130.965 151.32 130.111 151.32C129.458 151.32 128.891 151.473 128.411 151.78C127.945 152.073 127.578 152.507 127.311 153.08C127.058 153.64 126.931 154.32 126.931 155.12C126.931 155.907 127.065 156.587 127.331 157.16C127.598 157.733 127.971 158.173 128.451 158.48C128.945 158.773 129.531 158.92 130.211 158.92C130.945 158.92 131.538 158.78 131.991 158.5C132.458 158.22 132.831 157.84 133.111 157.36L134.371 158.1C134.118 158.553 133.791 158.947 133.391 159.28C133.005 159.613 132.545 159.873 132.011 160.06C131.491 160.233 130.905 160.32 130.251 160.32ZM141.794 160.32C140.848 160.32 140.001 160.113 139.254 159.7C138.521 159.287 137.948 158.693 137.534 157.92C137.121 157.133 136.914 156.2 136.914 155.12C136.914 154.04 137.121 153.113 137.534 152.34C137.948 151.553 138.514 150.953 139.234 150.54C139.954 150.127 140.774 149.92 141.694 149.92C142.628 149.92 143.421 150.12 144.074 150.52C144.741 150.92 145.248 151.467 145.594 152.16C145.941 152.84 146.114 153.607 146.114 154.46C146.114 154.687 146.108 154.893 146.094 155.08C146.081 155.267 146.061 155.433 146.034 155.58H137.954V154.16H145.334L144.514 154.32C144.514 153.36 144.248 152.62 143.714 152.1C143.194 151.58 142.508 151.32 141.654 151.32C141.001 151.32 140.434 151.473 139.954 151.78C139.488 152.073 139.121 152.507 138.854 153.08C138.601 153.64 138.474 154.32 138.474 155.12C138.474 155.907 138.608 156.587 138.874 157.16C139.141 157.733 139.514 158.173 139.994 158.48C140.488 158.773 141.074 158.92 141.754 158.92C142.488 158.92 143.081 158.78 143.534 158.5C144.001 158.22 144.374 157.84 144.654 157.36L145.914 158.1C145.661 158.553 145.334 158.947 144.934 159.28C144.548 159.613 144.088 159.873 143.554 160.06C143.034 160.233 142.448 160.32 141.794 160.32ZM151.224 147.28V157.36C151.224 157.853 151.364 158.22 151.644 158.46C151.924 158.7 152.284 158.82 152.724 158.82C153.111 158.82 153.444 158.753 153.724 158.62C154.004 158.487 154.258 158.307 154.484 158.08L155.044 159.42C154.738 159.7 154.371 159.92 153.944 160.08C153.531 160.24 153.051 160.32 152.504 160.32C151.998 160.32 151.524 160.233 151.084 160.06C150.644 159.873 150.291 159.587 150.024 159.2C149.771 158.8 149.638 158.28 149.624 157.64V147.72L151.224 147.28ZM154.864 150.12V151.5H147.624V150.12H154.864ZM160.843 160.32C159.87 160.32 158.97 160.113 158.143 159.7C157.33 159.287 156.703 158.7 156.263 157.94L157.623 156.96C157.916 157.573 158.343 158.053 158.903 158.4C159.476 158.747 160.163 158.92 160.963 158.92C161.67 158.92 162.223 158.787 162.623 158.52C163.023 158.24 163.223 157.88 163.223 157.44C163.223 157.16 163.13 156.907 162.943 156.68C162.77 156.44 162.43 156.267 161.923 156.16L159.523 155.66C158.55 155.46 157.85 155.127 157.423 154.66C157.01 154.193 156.803 153.613 156.803 152.92C156.803 152.373 156.956 151.873 157.263 151.42C157.583 150.967 158.03 150.607 158.603 150.34C159.19 150.06 159.876 149.92 160.663 149.92C161.65 149.92 162.483 150.113 163.163 150.5C163.843 150.887 164.35 151.433 164.683 152.14L163.343 153.02C163.116 152.433 162.75 152.007 162.243 151.74C161.736 151.46 161.21 151.32 160.663 151.32C160.183 151.32 159.77 151.387 159.423 151.52C159.09 151.653 158.83 151.84 158.643 152.08C158.47 152.307 158.383 152.567 158.383 152.86C158.383 153.153 158.483 153.427 158.683 153.68C158.883 153.92 159.256 154.093 159.803 154.2L162.303 154.72C163.236 154.907 163.89 155.213 164.263 155.64C164.636 156.067 164.823 156.587 164.823 157.2C164.823 157.827 164.656 158.38 164.323 158.86C163.99 159.327 163.523 159.687 162.923 159.94C162.323 160.193 161.63 160.32 160.843 160.32ZM187.666 146.92V160.12H186.146V151.82L186.326 148.34H186.306L181.966 160.12H180.606L176.266 148.34H176.246L176.426 151.82V160.12H174.906V146.92H177.366L180.266 154.94L181.266 158.24H181.306L182.326 154.96L185.206 146.92H187.666ZM195.66 149.92C196.607 149.92 197.44 150.127 198.16 150.54C198.894 150.953 199.467 151.553 199.88 152.34C200.294 153.113 200.5 154.04 200.5 155.12C200.5 156.2 200.294 157.133 199.88 157.92C199.467 158.693 198.894 159.287 198.16 159.7C197.44 160.113 196.607 160.32 195.66 160.32C194.727 160.32 193.894 160.113 193.16 159.7C192.427 159.287 191.854 158.693 191.44 157.92C191.027 157.133 190.82 156.2 190.82 155.12C190.82 154.04 191.027 153.113 191.44 152.34C191.854 151.553 192.427 150.953 193.16 150.54C193.894 150.127 194.727 149.92 195.66 149.92ZM195.66 151.3C194.98 151.3 194.4 151.453 193.92 151.76C193.44 152.067 193.067 152.507 192.8 153.08C192.547 153.64 192.42 154.32 192.42 155.12C192.42 155.907 192.547 156.587 192.8 157.16C193.067 157.733 193.44 158.173 193.92 158.48C194.4 158.787 194.98 158.94 195.66 158.94C196.34 158.94 196.92 158.787 197.4 158.48C197.88 158.173 198.247 157.733 198.5 157.16C198.767 156.587 198.9 155.907 198.9 155.12C198.9 154.32 198.767 153.64 198.5 153.08C198.247 152.507 197.88 152.067 197.4 151.76C196.92 151.453 196.34 151.3 195.66 151.3ZM207.133 160.32C206.493 160.32 205.886 160.2 205.313 159.96C204.753 159.72 204.293 159.333 203.933 158.8C203.586 158.253 203.413 157.547 203.413 156.68V150.12H205.013V156.26C205.013 157.273 205.233 157.973 205.673 158.36C206.113 158.733 206.733 158.92 207.533 158.92C207.906 158.92 208.273 158.86 208.633 158.74C208.993 158.607 209.313 158.407 209.593 158.14C209.886 157.86 210.113 157.507 210.273 157.08C210.446 156.653 210.533 156.147 210.533 155.56V150.12H212.133V160.12H210.733L210.633 158.6C210.286 159.2 209.813 159.64 209.213 159.92C208.626 160.187 207.933 160.32 207.133 160.32ZM215.856 160.12V150.12H217.256L217.396 152.36L217.136 152.14C217.35 151.607 217.636 151.18 217.996 150.86C218.356 150.527 218.77 150.287 219.236 150.14C219.716 149.993 220.21 149.92 220.716 149.92C221.436 149.92 222.09 150.06 222.676 150.34C223.263 150.607 223.73 151.02 224.076 151.58C224.436 152.14 224.616 152.853 224.616 153.72V160.12H223.016V154.28C223.016 153.173 222.776 152.407 222.296 151.98C221.83 151.54 221.25 151.32 220.556 151.32C220.076 151.32 219.596 151.433 219.116 151.66C218.636 151.887 218.236 152.253 217.916 152.76C217.61 153.267 217.456 153.947 217.456 154.8V160.12H215.856ZM230.462 147.28V157.36C230.462 157.853 230.602 158.22 230.882 158.46C231.162 158.7 231.522 158.82 231.962 158.82C232.349 158.82 232.682 158.753 232.962 158.62C233.242 158.487 233.496 158.307 233.722 158.08L234.282 159.42C233.976 159.7 233.609 159.92 233.182 160.08C232.769 160.24 232.289 160.32 231.742 160.32C231.236 160.32 230.762 160.233 230.322 160.06C229.882 159.873 229.529 159.587 229.262 159.2C229.009 158.8 228.876 158.28 228.862 157.64V147.72L230.462 147.28ZM234.102 150.12V151.5H226.862V150.12H234.102ZM242.321 153.66C242.321 152.913 242.121 152.34 241.721 151.94C241.321 151.527 240.755 151.32 240.021 151.32C239.328 151.32 238.741 151.473 238.261 151.78C237.781 152.073 237.428 152.553 237.201 153.22L235.901 152.42C236.168 151.673 236.661 151.073 237.381 150.62C238.101 150.153 238.995 149.92 240.061 149.92C240.781 149.92 241.435 150.047 242.021 150.3C242.608 150.54 243.068 150.913 243.401 151.42C243.748 151.913 243.921 152.553 243.921 153.34V158.18C243.921 158.66 244.175 158.9 244.681 158.9C244.935 158.9 245.181 158.867 245.421 158.8L245.341 160.06C245.075 160.193 244.728 160.26 244.301 160.26C243.915 160.26 243.568 160.187 243.261 160.04C242.955 159.893 242.715 159.673 242.541 159.38C242.368 159.073 242.281 158.693 242.281 158.24V158.04L242.681 158.1C242.521 158.62 242.248 159.047 241.861 159.38C241.475 159.7 241.041 159.94 240.561 160.1C240.081 160.247 239.608 160.32 239.141 160.32C238.555 160.32 238.008 160.22 237.501 160.02C236.995 159.82 236.588 159.52 236.281 159.12C235.988 158.707 235.841 158.2 235.841 157.6C235.841 156.853 236.088 156.24 236.581 155.76C237.088 155.267 237.788 154.933 238.681 154.76L242.641 153.98V155.3L239.421 155.96C238.768 156.093 238.281 156.28 237.961 156.52C237.641 156.76 237.481 157.093 237.481 157.52C237.481 157.933 237.641 158.273 237.961 158.54C238.295 158.793 238.761 158.92 239.361 158.92C239.748 158.92 240.115 158.873 240.461 158.78C240.821 158.673 241.141 158.52 241.421 158.32C241.701 158.107 241.921 157.847 242.081 157.54C242.241 157.22 242.321 156.847 242.321 156.42V153.66ZM248.61 148.2C248.25 148.2 247.956 148.093 247.73 147.88C247.516 147.653 247.41 147.36 247.41 147C247.41 146.64 247.516 146.353 247.73 146.14C247.956 145.913 248.25 145.8 248.61 145.8C248.97 145.8 249.256 145.913 249.47 146.14C249.696 146.353 249.81 146.64 249.81 147C249.81 147.36 249.696 147.653 249.47 147.88C249.256 148.093 248.97 148.2 248.61 148.2ZM249.41 150.12V160.12H247.81V150.12H249.41ZM253.122 160.12V150.12H254.522L254.662 152.36L254.402 152.14C254.615 151.607 254.902 151.18 255.262 150.86C255.622 150.527 256.035 150.287 256.502 150.14C256.982 149.993 257.475 149.92 257.982 149.92C258.702 149.92 259.355 150.06 259.942 150.34C260.529 150.607 260.995 151.02 261.342 151.58C261.702 152.14 261.882 152.853 261.882 153.72V160.12H260.282V154.28C260.282 153.173 260.042 152.407 259.562 151.98C259.095 151.54 258.515 151.32 257.822 151.32C257.342 151.32 256.862 151.433 256.382 151.66C255.902 151.887 255.502 152.253 255.182 152.76C254.875 153.267 254.722 153.947 254.722 154.8V160.12H253.122ZM282.178 146.92L277.178 160.12H275.358L270.338 146.92H272.058L275.418 156.04L276.258 158.66L277.098 156.06L280.458 146.92H282.178ZM285.406 148.2C285.046 148.2 284.753 148.093 284.526 147.88C284.313 147.653 284.206 147.36 284.206 147C284.206 146.64 284.313 146.353 284.526 146.14C284.753 145.913 285.046 145.8 285.406 145.8C285.766 145.8 286.053 145.913 286.266 146.14C286.493 146.353 286.606 146.64 286.606 147C286.606 147.36 286.493 147.653 286.266 147.88C286.053 148.093 285.766 148.2 285.406 148.2ZM286.206 150.12V160.12H284.606V150.12H286.206ZM294.099 160.32C293.152 160.32 292.306 160.113 291.559 159.7C290.826 159.287 290.252 158.693 289.839 157.92C289.426 157.133 289.219 156.2 289.219 155.12C289.219 154.04 289.426 153.113 289.839 152.34C290.252 151.553 290.819 150.953 291.539 150.54C292.259 150.127 293.079 149.92 293.999 149.92C294.932 149.92 295.726 150.12 296.379 150.52C297.046 150.92 297.552 151.467 297.899 152.16C298.246 152.84 298.419 153.607 298.419 154.46C298.419 154.687 298.412 154.893 298.399 155.08C298.386 155.267 298.366 155.433 298.339 155.58H290.259V154.16H297.639L296.819 154.32C296.819 153.36 296.552 152.62 296.019 152.1C295.499 151.58 294.812 151.32 293.959 151.32C293.306 151.32 292.739 151.473 292.259 151.78C291.792 152.073 291.426 152.507 291.159 153.08C290.906 153.64 290.779 154.32 290.779 155.12C290.779 155.907 290.912 156.587 291.179 157.16C291.446 157.733 291.819 158.173 292.299 158.48C292.792 158.773 293.379 158.92 294.059 158.92C294.792 158.92 295.386 158.78 295.839 158.5C296.306 158.22 296.679 157.84 296.959 157.36L298.219 158.1C297.966 158.553 297.639 158.947 297.239 159.28C296.852 159.613 296.392 159.873 295.859 160.06C295.339 160.233 294.752 160.32 294.099 160.32ZM313.767 150.12H315.547L312.067 160.12H310.467L307.647 152.16L304.987 160.12H303.387L299.907 150.12H301.687L304.207 158.26L306.927 150.12H308.527L311.247 158.26L313.767 150.12ZM317.145 157.72C317.465 157.72 317.731 157.807 317.945 157.98C318.171 158.14 318.345 158.367 318.465 158.66C318.585 158.94 318.645 159.273 318.645 159.66C318.645 160.1 318.565 160.533 318.405 160.96C318.258 161.387 318.025 161.78 317.705 162.14C317.385 162.5 316.971 162.8 316.465 163.04L315.625 162.26C315.985 162.14 316.298 161.973 316.565 161.76C316.845 161.547 317.071 161.307 317.245 161.04C317.418 160.773 317.531 160.5 317.585 160.22L317.505 160.18C317.451 160.22 317.385 160.253 317.305 160.28C317.225 160.307 317.105 160.32 316.945 160.32C316.785 160.32 316.618 160.273 316.445 160.18C316.285 160.087 316.145 159.953 316.025 159.78C315.905 159.593 315.845 159.353 315.845 159.06C315.845 158.82 315.905 158.6 316.025 158.4C316.145 158.187 316.298 158.02 316.485 157.9C316.685 157.78 316.905 157.72 317.145 157.72ZM333.014 146.72C334.174 146.72 335.174 146.96 336.014 147.44C336.854 147.907 337.554 148.6 338.114 149.52L336.774 150.56C336.28 149.707 335.72 149.107 335.094 148.76C334.48 148.4 333.734 148.22 332.854 148.22C332.147 148.22 331.56 148.32 331.094 148.52C330.64 148.72 330.307 148.987 330.094 149.32C329.88 149.64 329.774 150.007 329.774 150.42C329.774 150.887 329.92 151.3 330.214 151.66C330.507 152.007 331.094 152.28 331.974 152.48L334.834 153.12C336.1 153.4 336.98 153.827 337.474 154.4C337.98 154.96 338.234 155.66 338.234 156.5C338.234 157.247 338.02 157.913 337.594 158.5C337.18 159.073 336.594 159.52 335.834 159.84C335.074 160.16 334.18 160.32 333.154 160.32C332.194 160.32 331.347 160.193 330.614 159.94C329.894 159.673 329.274 159.32 328.754 158.88C328.234 158.44 327.807 157.947 327.474 157.4L328.874 156.26C329.127 156.767 329.454 157.213 329.854 157.6C330.254 157.987 330.734 158.287 331.294 158.5C331.867 158.713 332.52 158.82 333.254 158.82C333.934 158.82 334.52 158.74 335.014 158.58C335.52 158.407 335.907 158.16 336.174 157.84C336.44 157.507 336.574 157.107 336.574 156.64C336.574 156.213 336.434 155.833 336.154 155.5C335.874 155.153 335.347 154.893 334.574 154.72L331.474 154.02C330.66 153.833 330 153.58 329.494 153.26C329 152.927 328.64 152.54 328.414 152.1C328.2 151.647 328.094 151.16 328.094 150.64C328.094 149.933 328.287 149.287 328.674 148.7C329.074 148.1 329.64 147.62 330.374 147.26C331.12 146.9 332 146.72 333.014 146.72ZM346.931 153.66C346.931 152.913 346.731 152.34 346.331 151.94C345.931 151.527 345.364 151.32 344.631 151.32C343.937 151.32 343.351 151.473 342.871 151.78C342.391 152.073 342.037 152.553 341.811 153.22L340.511 152.42C340.777 151.673 341.271 151.073 341.991 150.62C342.711 150.153 343.604 149.92 344.671 149.92C345.391 149.92 346.044 150.047 346.631 150.3C347.217 150.54 347.677 150.913 348.011 151.42C348.357 151.913 348.531 152.553 348.531 153.34V158.18C348.531 158.66 348.784 158.9 349.291 158.9C349.544 158.9 349.791 158.867 350.031 158.8L349.951 160.06C349.684 160.193 349.337 160.26 348.911 160.26C348.524 160.26 348.177 160.187 347.871 160.04C347.564 159.893 347.324 159.673 347.151 159.38C346.977 159.073 346.891 158.693 346.891 158.24V158.04L347.291 158.1C347.131 158.62 346.857 159.047 346.471 159.38C346.084 159.7 345.651 159.94 345.171 160.1C344.691 160.247 344.217 160.32 343.751 160.32C343.164 160.32 342.617 160.22 342.111 160.02C341.604 159.82 341.197 159.52 340.891 159.12C340.597 158.707 340.451 158.2 340.451 157.6C340.451 156.853 340.697 156.24 341.191 155.76C341.697 155.267 342.397 154.933 343.291 154.76L347.251 153.98V155.3L344.031 155.96C343.377 156.093 342.891 156.28 342.571 156.52C342.251 156.76 342.091 157.093 342.091 157.52C342.091 157.933 342.251 158.273 342.571 158.54C342.904 158.793 343.371 158.92 343.971 158.92C344.357 158.92 344.724 158.873 345.071 158.78C345.431 158.673 345.751 158.52 346.031 158.32C346.311 158.107 346.531 157.847 346.691 157.54C346.851 157.22 346.931 156.847 346.931 156.42V153.66ZM352.419 160.12V150.12H353.819L353.959 152.36L353.699 152.14C353.912 151.607 354.199 151.18 354.559 150.86C354.919 150.527 355.332 150.287 355.799 150.14C356.279 149.993 356.772 149.92 357.279 149.92C357.999 149.92 358.652 150.06 359.239 150.34C359.826 150.607 360.292 151.02 360.639 151.58C360.999 152.14 361.179 152.853 361.179 153.72V160.12H359.579V154.28C359.579 153.173 359.339 152.407 358.859 151.98C358.392 151.54 357.812 151.32 357.119 151.32C356.639 151.32 356.159 151.433 355.679 151.66C355.199 151.887 354.799 152.253 354.479 152.76C354.172 153.267 354.019 153.947 354.019 154.8V160.12H352.419ZM381.158 148.42H373.518V152.68H379.478V154.18H373.518V160.12H371.918V146.92H381.158V148.42ZM383.005 160.12V150.12H384.305L384.525 151.76C384.805 151.147 385.212 150.687 385.745 150.38C386.292 150.073 386.952 149.92 387.725 149.92C387.898 149.92 388.085 149.933 388.285 149.96C388.498 149.987 388.678 150.04 388.825 150.12L388.545 151.58C388.398 151.527 388.238 151.487 388.065 151.46C387.892 151.433 387.645 151.42 387.325 151.42C386.912 151.42 386.492 151.54 386.065 151.78C385.652 152.02 385.305 152.387 385.025 152.88C384.745 153.36 384.605 153.973 384.605 154.72V160.12H383.005ZM396.735 153.66C396.735 152.913 396.535 152.34 396.135 151.94C395.735 151.527 395.169 151.32 394.435 151.32C393.742 151.32 393.155 151.473 392.675 151.78C392.195 152.073 391.842 152.553 391.615 153.22L390.315 152.42C390.582 151.673 391.075 151.073 391.795 150.62C392.515 150.153 393.409 149.92 394.475 149.92C395.195 149.92 395.849 150.047 396.435 150.3C397.022 150.54 397.482 150.913 397.815 151.42C398.162 151.913 398.335 152.553 398.335 153.34V158.18C398.335 158.66 398.589 158.9 399.095 158.9C399.349 158.9 399.595 158.867 399.835 158.8L399.755 160.06C399.489 160.193 399.142 160.26 398.715 160.26C398.329 160.26 397.982 160.187 397.675 160.04C397.369 159.893 397.129 159.673 396.955 159.38C396.782 159.073 396.695 158.693 396.695 158.24V158.04L397.095 158.1C396.935 158.62 396.662 159.047 396.275 159.38C395.889 159.7 395.455 159.94 394.975 160.1C394.495 160.247 394.022 160.32 393.555 160.32C392.969 160.32 392.422 160.22 391.915 160.02C391.409 159.82 391.002 159.52 390.695 159.12C390.402 158.707 390.255 158.2 390.255 157.6C390.255 156.853 390.502 156.24 390.995 155.76C391.502 155.267 392.202 154.933 393.095 154.76L397.055 153.98V155.3L393.835 155.96C393.182 156.093 392.695 156.28 392.375 156.52C392.055 156.76 391.895 157.093 391.895 157.52C391.895 157.933 392.055 158.273 392.375 158.54C392.709 158.793 393.175 158.92 393.775 158.92C394.162 158.92 394.529 158.873 394.875 158.78C395.235 158.673 395.555 158.52 395.835 158.32C396.115 158.107 396.335 157.847 396.495 157.54C396.655 157.22 396.735 156.847 396.735 156.42V153.66ZM402.224 160.12V150.12H403.624L403.764 152.36L403.504 152.14C403.717 151.607 404.004 151.18 404.364 150.86C404.724 150.527 405.137 150.287 405.604 150.14C406.084 149.993 406.577 149.92 407.084 149.92C407.804 149.92 408.457 150.06 409.044 150.34C409.63 150.607 410.097 151.02 410.444 151.58C410.804 152.14 410.984 152.853 410.984 153.72V160.12H409.384V154.28C409.384 153.173 409.144 152.407 408.664 151.98C408.197 151.54 407.617 151.32 406.924 151.32C406.444 151.32 405.964 151.433 405.484 151.66C405.004 151.887 404.604 152.253 404.284 152.76C403.977 153.267 403.824 153.947 403.824 154.8V160.12H402.224ZM418.746 149.92C419.44 149.92 420.046 150.027 420.566 150.24C421.1 150.453 421.56 150.76 421.946 151.16C422.333 151.56 422.646 152.033 422.886 152.58L421.366 153.3C421.153 152.66 420.826 152.173 420.386 151.84C419.96 151.493 419.4 151.32 418.706 151.32C418.04 151.32 417.466 151.473 416.986 151.78C416.506 152.073 416.14 152.507 415.886 153.08C415.633 153.64 415.506 154.32 415.506 155.12C415.506 155.907 415.633 156.587 415.886 157.16C416.14 157.733 416.506 158.173 416.986 158.48C417.466 158.773 418.04 158.92 418.706 158.92C419.226 158.92 419.673 158.84 420.046 158.68C420.433 158.52 420.746 158.287 420.986 157.98C421.24 157.673 421.413 157.3 421.506 156.86L422.986 157.38C422.76 157.993 422.446 158.52 422.046 158.96C421.66 159.4 421.186 159.74 420.626 159.98C420.08 160.207 419.453 160.32 418.746 160.32C417.813 160.32 416.98 160.113 416.246 159.7C415.513 159.287 414.94 158.693 414.526 157.92C414.113 157.133 413.906 156.2 413.906 155.12C413.906 154.04 414.113 153.113 414.526 152.34C414.94 151.553 415.513 150.953 416.246 150.54C416.98 150.127 417.813 149.92 418.746 149.92ZM426.598 148.2C426.238 148.2 425.944 148.093 425.718 147.88C425.504 147.653 425.398 147.36 425.398 147C425.398 146.64 425.504 146.353 425.718 146.14C425.944 145.913 426.238 145.8 426.598 145.8C426.958 145.8 427.244 145.913 427.458 146.14C427.684 146.353 427.798 146.64 427.798 147C427.798 147.36 427.684 147.653 427.458 147.88C427.244 148.093 426.958 148.2 426.598 148.2ZM427.398 150.12V160.12H425.798V150.12H427.398ZM434.71 160.32C433.737 160.32 432.837 160.113 432.01 159.7C431.197 159.287 430.57 158.7 430.13 157.94L431.49 156.96C431.784 157.573 432.21 158.053 432.77 158.4C433.344 158.747 434.03 158.92 434.83 158.92C435.537 158.92 436.09 158.787 436.49 158.52C436.89 158.24 437.09 157.88 437.09 157.44C437.09 157.16 436.997 156.907 436.81 156.68C436.637 156.44 436.297 156.267 435.79 156.16L433.39 155.66C432.417 155.46 431.717 155.127 431.29 154.66C430.877 154.193 430.67 153.613 430.67 152.92C430.67 152.373 430.824 151.873 431.13 151.42C431.45 150.967 431.897 150.607 432.47 150.34C433.057 150.06 433.744 149.92 434.53 149.92C435.517 149.92 436.35 150.113 437.03 150.5C437.71 150.887 438.217 151.433 438.55 152.14L437.21 153.02C436.984 152.433 436.617 152.007 436.11 151.74C435.604 151.46 435.077 151.32 434.53 151.32C434.05 151.32 433.637 151.387 433.29 151.52C432.957 151.653 432.697 151.84 432.51 152.08C432.337 152.307 432.25 152.567 432.25 152.86C432.25 153.153 432.35 153.427 432.55 153.68C432.75 153.92 433.124 154.093 433.67 154.2L436.17 154.72C437.104 154.907 437.757 155.213 438.13 155.64C438.504 156.067 438.69 156.587 438.69 157.2C438.69 157.827 438.524 158.38 438.19 158.86C437.857 159.327 437.39 159.687 436.79 159.94C436.19 160.193 435.497 160.32 434.71 160.32ZM445.797 149.92C446.491 149.92 447.097 150.027 447.617 150.24C448.151 150.453 448.611 150.76 448.997 151.16C449.384 151.56 449.697 152.033 449.937 152.58L448.417 153.3C448.204 152.66 447.877 152.173 447.437 151.84C447.011 151.493 446.451 151.32 445.757 151.32C445.091 151.32 444.517 151.473 444.037 151.78C443.557 152.073 443.191 152.507 442.937 153.08C442.684 153.64 442.557 154.32 442.557 155.12C442.557 155.907 442.684 156.587 442.937 157.16C443.191 157.733 443.557 158.173 444.037 158.48C444.517 158.773 445.091 158.92 445.757 158.92C446.277 158.92 446.724 158.84 447.097 158.68C447.484 158.52 447.797 158.287 448.037 157.98C448.291 157.673 448.464 157.3 448.557 156.86L450.037 157.38C449.811 157.993 449.497 158.52 449.097 158.96C448.711 159.4 448.237 159.74 447.677 159.98C447.131 160.207 446.504 160.32 445.797 160.32C444.864 160.32 444.031 160.113 443.297 159.7C442.564 159.287 441.991 158.693 441.577 157.92C441.164 157.133 440.957 156.2 440.957 155.12C440.957 154.04 441.164 153.113 441.577 152.34C441.991 151.553 442.564 150.953 443.297 150.54C444.031 150.127 444.864 149.92 445.797 149.92ZM456.989 149.92C457.935 149.92 458.769 150.127 459.489 150.54C460.222 150.953 460.795 151.553 461.209 152.34C461.622 153.113 461.829 154.04 461.829 155.12C461.829 156.2 461.622 157.133 461.209 157.92C460.795 158.693 460.222 159.287 459.489 159.7C458.769 160.113 457.935 160.32 456.989 160.32C456.055 160.32 455.222 160.113 454.489 159.7C453.755 159.287 453.182 158.693 452.769 157.92C452.355 157.133 452.149 156.2 452.149 155.12C452.149 154.04 452.355 153.113 452.769 152.34C453.182 151.553 453.755 150.953 454.489 150.54C455.222 150.127 456.055 149.92 456.989 149.92ZM456.989 151.3C456.309 151.3 455.729 151.453 455.249 151.76C454.769 152.067 454.395 152.507 454.129 153.08C453.875 153.64 453.749 154.32 453.749 155.12C453.749 155.907 453.875 156.587 454.129 157.16C454.395 157.733 454.769 158.173 455.249 158.48C455.729 158.787 456.309 158.94 456.989 158.94C457.669 158.94 458.249 158.787 458.729 158.48C459.209 158.173 459.575 157.733 459.829 157.16C460.095 156.587 460.229 155.907 460.229 155.12C460.229 154.32 460.095 153.64 459.829 153.08C459.575 152.507 459.209 152.067 458.729 151.76C458.249 151.453 457.669 151.3 456.989 151.3ZM465.25 157.72C465.57 157.72 465.837 157.807 466.05 157.98C466.277 158.14 466.45 158.367 466.57 158.66C466.69 158.94 466.75 159.273 466.75 159.66C466.75 160.1 466.67 160.533 466.51 160.96C466.363 161.387 466.13 161.78 465.81 162.14C465.49 162.5 465.077 162.8 464.57 163.04L463.73 162.26C464.09 162.14 464.403 161.973 464.67 161.76C464.95 161.547 465.177 161.307 465.35 161.04C465.523 160.773 465.637 160.5 465.69 160.22L465.61 160.18C465.557 160.22 465.49 160.253 465.41 160.28C465.33 160.307 465.21 160.32 465.05 160.32C464.89 160.32 464.723 160.273 464.55 160.18C464.39 160.087 464.25 159.953 464.13 159.78C464.01 159.593 463.95 159.353 463.95 159.06C463.95 158.82 464.01 158.6 464.13 158.4C464.25 158.187 464.403 158.02 464.59 157.9C464.79 157.78 465.01 157.72 465.25 157.72Z" fill="white"/>
<path d="M182.812 180.24C182.532 180.987 182.132 181.633 181.612 182.18C181.092 182.713 180.479 183.12 179.772 183.4C179.079 183.68 178.319 183.82 177.492 183.82C176.239 183.82 175.152 183.547 174.232 183C173.325 182.44 172.619 181.653 172.112 180.64C171.619 179.627 171.372 178.42 171.372 177.02C171.372 175.62 171.619 174.413 172.112 173.4C172.619 172.387 173.325 171.607 174.232 171.06C175.152 170.5 176.225 170.22 177.452 170.22C178.305 170.22 179.065 170.34 179.732 170.58C180.399 170.807 180.965 171.153 181.432 171.62C181.912 172.073 182.292 172.633 182.572 173.3L180.992 174.04C180.699 173.28 180.272 172.707 179.712 172.32C179.165 171.92 178.452 171.72 177.572 171.72C176.679 171.72 175.892 171.933 175.212 172.36C174.532 172.773 173.999 173.373 173.612 174.16C173.239 174.947 173.052 175.9 173.052 177.02C173.052 178.127 173.232 179.08 173.592 179.88C173.952 180.667 174.465 181.273 175.132 181.7C175.799 182.113 176.585 182.32 177.492 182.32C178.372 182.32 179.139 182.1 179.792 181.66C180.445 181.207 180.919 180.533 181.212 179.64L182.812 180.24ZM191.423 177.16C191.423 176.413 191.223 175.84 190.823 175.44C190.423 175.027 189.856 174.82 189.123 174.82C188.43 174.82 187.843 174.973 187.363 175.28C186.883 175.573 186.53 176.053 186.303 176.72L185.003 175.92C185.27 175.173 185.763 174.573 186.483 174.12C187.203 173.653 188.096 173.42 189.163 173.42C189.883 173.42 190.536 173.547 191.123 173.8C191.71 174.04 192.17 174.413 192.503 174.92C192.85 175.413 193.023 176.053 193.023 176.84V181.68C193.023 182.16 193.276 182.4 193.783 182.4C194.036 182.4 194.283 182.367 194.523 182.3L194.443 183.56C194.176 183.693 193.83 183.76 193.403 183.76C193.016 183.76 192.67 183.687 192.363 183.54C192.056 183.393 191.816 183.173 191.643 182.88C191.47 182.573 191.383 182.193 191.383 181.74V181.54L191.783 181.6C191.623 182.12 191.35 182.547 190.963 182.88C190.576 183.2 190.143 183.44 189.663 183.6C189.183 183.747 188.71 183.82 188.243 183.82C187.656 183.82 187.11 183.72 186.603 183.52C186.096 183.32 185.69 183.02 185.383 182.62C185.09 182.207 184.943 181.7 184.943 181.1C184.943 180.353 185.19 179.74 185.683 179.26C186.19 178.767 186.89 178.433 187.783 178.26L191.743 177.48V178.8L188.523 179.46C187.87 179.593 187.383 179.78 187.063 180.02C186.743 180.26 186.583 180.593 186.583 181.02C186.583 181.433 186.743 181.773 187.063 182.04C187.396 182.293 187.863 182.42 188.463 182.42C188.85 182.42 189.216 182.373 189.563 182.28C189.923 182.173 190.243 182.02 190.523 181.82C190.803 181.607 191.023 181.347 191.183 181.04C191.343 180.72 191.423 180.347 191.423 179.92V177.16ZM198.431 169.02V181.08C198.431 181.587 198.524 181.94 198.711 182.14C198.898 182.327 199.198 182.42 199.611 182.42C199.878 182.42 200.098 182.4 200.271 182.36C200.444 182.32 200.678 182.247 200.971 182.14L200.711 183.54C200.498 183.633 200.264 183.7 200.011 183.74C199.758 183.793 199.498 183.82 199.231 183.82C198.418 183.82 197.811 183.6 197.411 183.16C197.024 182.72 196.831 182.047 196.831 181.14V169.02H198.431ZM203.824 171.7C203.464 171.7 203.171 171.593 202.944 171.38C202.731 171.153 202.624 170.86 202.624 170.5C202.624 170.14 202.731 169.853 202.944 169.64C203.171 169.413 203.464 169.3 203.824 169.3C204.184 169.3 204.471 169.413 204.684 169.64C204.911 169.853 205.024 170.14 205.024 170.5C205.024 170.86 204.911 171.153 204.684 171.38C204.471 171.593 204.184 171.7 203.824 171.7ZM204.624 173.62V183.62H203.024V173.62H204.624ZM212.397 168.92C212.743 168.92 213.07 168.96 213.377 169.04C213.683 169.12 213.923 169.233 214.097 169.38L213.677 170.68C213.517 170.573 213.343 170.5 213.157 170.46C212.97 170.407 212.763 170.38 212.537 170.38C211.963 170.38 211.517 170.52 211.197 170.8C210.877 171.067 210.717 171.5 210.717 172.1V173.62V174.14V183.62H209.117V171.94C209.117 171.5 209.183 171.093 209.317 170.72C209.45 170.347 209.65 170.027 209.917 169.76C210.197 169.493 210.543 169.287 210.957 169.14C211.37 168.993 211.85 168.92 212.397 168.92ZM214.057 173.62V175H207.117V173.62H214.057ZM220.055 173.42C221.002 173.42 221.835 173.627 222.555 174.04C223.288 174.453 223.862 175.053 224.275 175.84C224.688 176.613 224.895 177.54 224.895 178.62C224.895 179.7 224.688 180.633 224.275 181.42C223.862 182.193 223.288 182.787 222.555 183.2C221.835 183.613 221.002 183.82 220.055 183.82C219.122 183.82 218.288 183.613 217.555 183.2C216.822 182.787 216.248 182.193 215.835 181.42C215.422 180.633 215.215 179.7 215.215 178.62C215.215 177.54 215.422 176.613 215.835 175.84C216.248 175.053 216.822 174.453 217.555 174.04C218.288 173.627 219.122 173.42 220.055 173.42ZM220.055 174.8C219.375 174.8 218.795 174.953 218.315 175.26C217.835 175.567 217.462 176.007 217.195 176.58C216.942 177.14 216.815 177.82 216.815 178.62C216.815 179.407 216.942 180.087 217.195 180.66C217.462 181.233 217.835 181.673 218.315 181.98C218.795 182.287 219.375 182.44 220.055 182.44C220.735 182.44 221.315 182.287 221.795 181.98C222.275 181.673 222.642 181.233 222.895 180.66C223.162 180.087 223.295 179.407 223.295 178.62C223.295 177.82 223.162 177.14 222.895 176.58C222.642 176.007 222.275 175.567 221.795 175.26C221.315 174.953 220.735 174.8 220.055 174.8ZM227.907 183.62V173.62H229.207L229.427 175.26C229.707 174.647 230.114 174.187 230.647 173.88C231.194 173.573 231.854 173.42 232.627 173.42C232.8 173.42 232.987 173.433 233.187 173.46C233.4 173.487 233.58 173.54 233.727 173.62L233.447 175.08C233.3 175.027 233.14 174.987 232.967 174.96C232.794 174.933 232.547 174.92 232.227 174.92C231.814 174.92 231.394 175.04 230.967 175.28C230.554 175.52 230.207 175.887 229.927 176.38C229.647 176.86 229.507 177.473 229.507 178.22V183.62H227.907ZM236.071 183.62V173.62H237.471L237.611 175.86L237.351 175.64C237.565 175.107 237.851 174.68 238.211 174.36C238.571 174.027 238.985 173.787 239.451 173.64C239.931 173.493 240.425 173.42 240.931 173.42C241.651 173.42 242.305 173.56 242.891 173.84C243.478 174.107 243.945 174.52 244.291 175.08C244.651 175.64 244.831 176.353 244.831 177.22V183.62H243.231V177.78C243.231 176.673 242.991 175.907 242.511 175.48C242.045 175.04 241.465 174.82 240.771 174.82C240.291 174.82 239.811 174.933 239.331 175.16C238.851 175.387 238.451 175.753 238.131 176.26C237.825 176.767 237.671 177.447 237.671 178.3V183.62H236.071ZM249.254 171.7C248.894 171.7 248.601 171.593 248.374 171.38C248.161 171.153 248.054 170.86 248.054 170.5C248.054 170.14 248.161 169.853 248.374 169.64C248.601 169.413 248.894 169.3 249.254 169.3C249.614 169.3 249.901 169.413 250.114 169.64C250.341 169.853 250.454 170.14 250.454 170.5C250.454 170.86 250.341 171.153 250.114 171.38C249.901 171.593 249.614 171.7 249.254 171.7ZM250.054 173.62V183.62H248.454V173.62H250.054ZM259.606 177.16C259.606 176.413 259.406 175.84 259.006 175.44C258.606 175.027 258.04 174.82 257.306 174.82C256.613 174.82 256.026 174.973 255.546 175.28C255.066 175.573 254.713 176.053 254.486 176.72L253.186 175.92C253.453 175.173 253.946 174.573 254.666 174.12C255.386 173.653 256.28 173.42 257.346 173.42C258.066 173.42 258.72 173.547 259.306 173.8C259.893 174.04 260.353 174.413 260.686 174.92C261.033 175.413 261.206 176.053 261.206 176.84V181.68C261.206 182.16 261.46 182.4 261.966 182.4C262.22 182.4 262.466 182.367 262.706 182.3L262.626 183.56C262.36 183.693 262.013 183.76 261.586 183.76C261.2 183.76 260.853 183.687 260.546 183.54C260.24 183.393 260 183.173 259.826 182.88C259.653 182.573 259.566 182.193 259.566 181.74V181.54L259.966 181.6C259.806 182.12 259.533 182.547 259.146 182.88C258.76 183.2 258.326 183.44 257.846 183.6C257.366 183.747 256.893 183.82 256.426 183.82C255.84 183.82 255.293 183.72 254.786 183.52C254.28 183.32 253.873 183.02 253.566 182.62C253.273 182.207 253.126 181.7 253.126 181.1C253.126 180.353 253.373 179.74 253.866 179.26C254.373 178.767 255.073 178.433 255.966 178.26L259.926 177.48V178.8L256.706 179.46C256.053 179.593 255.566 179.78 255.246 180.02C254.926 180.26 254.766 180.593 254.766 181.02C254.766 181.433 254.926 181.773 255.246 182.04C255.58 182.293 256.046 182.42 256.646 182.42C257.033 182.42 257.4 182.373 257.746 182.28C258.106 182.173 258.426 182.02 258.706 181.82C258.986 181.607 259.206 181.347 259.366 181.04C259.526 180.72 259.606 180.347 259.606 179.92V177.16ZM265.895 181.22C266.215 181.22 266.481 181.307 266.695 181.48C266.921 181.64 267.095 181.867 267.215 182.16C267.335 182.44 267.395 182.773 267.395 183.16C267.395 183.6 267.315 184.033 267.155 184.46C267.008 184.887 266.775 185.28 266.455 185.64C266.135 186 265.721 186.3 265.215 186.54L264.375 185.76C264.735 185.64 265.048 185.473 265.315 185.26C265.595 185.047 265.821 184.807 265.995 184.54C266.168 184.273 266.281 184 266.335 183.72L266.255 183.68C266.201 183.72 266.135 183.753 266.055 183.78C265.975 183.807 265.855 183.82 265.695 183.82C265.535 183.82 265.368 183.773 265.195 183.68C265.035 183.587 264.895 183.453 264.775 183.28C264.655 183.093 264.595 182.853 264.595 182.56C264.595 182.32 264.655 182.1 264.775 181.9C264.895 181.687 265.048 181.52 265.235 181.4C265.435 181.28 265.655 181.22 265.895 181.22ZM287.624 170.42V178.7C287.624 180.393 287.177 181.673 286.284 182.54C285.39 183.393 284.11 183.82 282.444 183.82C280.79 183.82 279.51 183.393 278.604 182.54C277.71 181.673 277.264 180.393 277.264 178.7V170.42H278.864V178.3C278.864 179.673 279.15 180.687 279.724 181.34C280.31 181.993 281.217 182.32 282.444 182.32C283.67 182.32 284.57 181.993 285.144 181.34C285.73 180.687 286.024 179.673 286.024 178.3V170.42H287.624ZM295.924 170.22C297.084 170.22 298.084 170.46 298.924 170.94C299.764 171.407 300.464 172.1 301.024 173.02L299.684 174.06C299.19 173.207 298.63 172.607 298.004 172.26C297.39 171.9 296.644 171.72 295.764 171.72C295.057 171.72 294.47 171.82 294.004 172.02C293.55 172.22 293.217 172.487 293.004 172.82C292.79 173.14 292.684 173.507 292.684 173.92C292.684 174.387 292.83 174.8 293.124 175.16C293.417 175.507 294.004 175.78 294.884 175.98L297.744 176.62C299.01 176.9 299.89 177.327 300.384 177.9C300.89 178.46 301.144 179.16 301.144 180C301.144 180.747 300.93 181.413 300.504 182C300.09 182.573 299.504 183.02 298.744 183.34C297.984 183.66 297.09 183.82 296.064 183.82C295.104 183.82 294.257 183.693 293.524 183.44C292.804 183.173 292.184 182.82 291.664 182.38C291.144 181.94 290.717 181.447 290.384 180.9L291.784 179.76C292.037 180.267 292.364 180.713 292.764 181.1C293.164 181.487 293.644 181.787 294.204 182C294.777 182.213 295.43 182.32 296.164 182.32C296.844 182.32 297.43 182.24 297.924 182.08C298.43 181.907 298.817 181.66 299.084 181.34C299.35 181.007 299.484 180.607 299.484 180.14C299.484 179.713 299.344 179.333 299.064 179C298.784 178.653 298.257 178.393 297.484 178.22L294.384 177.52C293.57 177.333 292.91 177.08 292.404 176.76C291.91 176.427 291.55 176.04 291.324 175.6C291.11 175.147 291.004 174.66 291.004 174.14C291.004 173.433 291.197 172.787 291.584 172.2C291.984 171.6 292.55 171.12 293.284 170.76C294.03 170.4 294.91 170.22 295.924 170.22ZM314.84 183.62H313.14L311.74 179.96H305.76L304.36 183.62H302.68L307.82 170.42H309.72L314.84 183.62ZM306.34 178.46H311.16L308.74 171.96L306.34 178.46Z" fill="white"/>
<rect x="151.5" y="220.12" width="50" height="50" rx="25" fill="#F7EBF3" fill-opacity="0.19"/>
<g clip-path="url(#clip0_1_273)">
<path d="M184.9 238.8C184.127 239.133 183.327 239.353 182.5 239.46C182.927 239.193 183.3 238.86 183.62 238.46C183.94 238.06 184.173 237.62 184.32 237.14C183.493 237.633 182.613 237.973 181.68 238.16C181.28 237.733 180.813 237.407 180.28 237.18C179.747 236.953 179.193 236.84 178.62 236.84C177.86 236.84 177.16 237.027 176.52 237.4C175.88 237.773 175.373 238.28 175 238.92C174.627 239.56 174.44 240.26 174.44 241.02C174.44 241.34 174.473 241.66 174.54 241.98C172.833 241.887 171.22 241.453 169.7 240.68C168.233 239.92 166.973 238.893 165.92 237.6C165.547 238.253 165.36 238.953 165.36 239.7C165.36 240.42 165.527 241.087 165.86 241.7C166.193 242.313 166.647 242.807 167.22 243.18C166.553 243.167 165.92 242.993 165.32 242.66V242.72C165.32 243.387 165.467 244.007 165.76 244.58C166.053 245.153 166.457 245.637 166.97 246.03C167.483 246.423 168.053 246.687 168.68 246.82C168.32 246.913 167.953 246.96 167.58 246.96C167.313 246.96 167.053 246.933 166.8 246.88C167.067 247.72 167.557 248.41 168.27 248.95C168.983 249.49 169.793 249.773 170.7 249.8C169.953 250.373 169.137 250.813 168.25 251.12C167.363 251.427 166.447 251.58 165.5 251.58C165.167 251.58 164.833 251.56 164.5 251.52C165.46 252.133 166.487 252.6 167.58 252.92C168.673 253.24 169.787 253.4 170.92 253.4C172.76 253.4 174.46 253.04 176.02 252.32C177.447 251.653 178.693 250.72 179.76 249.52C180.747 248.4 181.507 247.127 182.04 245.7C182.56 244.313 182.82 242.913 182.82 241.5C182.82 241.327 182.813 241.147 182.8 240.96C183.627 240.36 184.327 239.64 184.9 238.8Z" fill="white"/>
</g>
<rect x="217.5" y="220.12" width="50" height="50" rx="25" fill="#F7EBF3" fill-opacity="0.19"/>
<g clip-path="url(#clip1_1_273)">
<path d="M237.5 246.62H240L241 242.62H237.5V240.62C237.5 240.167 237.52 239.84 237.56 239.64C237.64 239.32 237.813 239.073 238.08 238.9C238.4 238.713 238.873 238.62 239.5 238.62H241V235.26C240.773 235.233 240.413 235.207 239.92 235.18C239.307 235.14 238.713 235.12 238.14 235.12C237.22 235.12 236.41 235.303 235.71 235.67C235.01 236.037 234.473 236.56 234.1 237.24C233.7 237.973 233.5 238.833 233.5 239.82V242.62H230.5V246.62H233.5V255.12H237.5V246.62Z" fill="white"/>
</g>
<rect x="283.5" y="220.12" width="50" height="50" rx="25" fill="#F7EBF3" fill-opacity="0.19"/>
<g clip-path="url(#clip2_1_273)">
<path d="M306.5 242.12C305.953 242.12 305.45 242.253 304.99 242.52C304.53 242.787 304.167 243.15 303.9 243.61C303.633 244.07 303.5 244.573 303.5 245.12C303.5 245.667 303.633 246.17 303.9 246.63C304.167 247.09 304.53 247.453 304.99 247.72C305.45 247.987 305.953 248.12 306.5 248.12C307.047 248.12 307.55 247.987 308.01 247.72C308.47 247.453 308.833 247.09 309.1 246.63C309.367 246.17 309.5 245.667 309.5 245.12C309.5 244.573 309.367 244.07 309.1 243.61C308.833 243.15 308.47 242.787 308.01 242.52C307.55 242.253 307.047 242.12 306.5 242.12ZM306.5 240.12C307.407 240.12 308.243 240.343 309.01 240.79C309.777 241.237 310.383 241.843 310.83 242.61C311.277 243.377 311.5 244.213 311.5 245.12C311.5 246.027 311.277 246.863 310.83 247.63C310.383 248.397 309.777 249.003 309.01 249.45C308.243 249.897 307.407 250.12 306.5 250.12C305.593 250.12 304.757 249.897 303.99 249.45C303.223 249.003 302.617 248.397 302.17 247.63C301.723 246.863 301.5 246.027 301.5 245.12C301.5 244.213 301.723 243.377 302.17 242.61C302.617 241.843 303.223 241.237 303.99 240.79C304.757 240.343 305.593 240.12 306.5 240.12ZM313 239.86C313 240.207 312.877 240.503 312.63 240.75C312.383 240.997 312.09 241.12 311.75 241.12C311.41 241.12 311.117 240.997 310.87 240.75C310.623 240.503 310.5 240.21 310.5 239.87C310.5 239.53 310.623 239.237 310.87 238.99C311.117 238.743 311.41 238.62 311.75 238.62C312.09 238.62 312.383 238.743 312.63 238.99C312.877 239.237 313 239.527 313 239.86ZM306.5 237.12C305.273 237.12 304.44 237.123 304 237.13C303.56 237.137 303.053 237.153 302.48 237.18C301.76 237.207 301.16 237.313 300.68 237.5C300.267 237.66 299.903 237.897 299.59 238.21C299.277 238.523 299.04 238.887 298.88 239.3C298.693 239.78 298.587 240.38 298.56 241.1C298.533 241.647 298.517 242.137 298.51 242.57C298.503 243.003 298.5 243.853 298.5 245.12C298.5 246.347 298.503 247.18 298.51 247.62C298.517 248.06 298.533 248.567 298.56 249.14C298.587 249.86 298.693 250.46 298.88 250.94C299.04 251.353 299.277 251.717 299.59 252.03C299.903 252.343 300.267 252.573 300.68 252.72C301.16 252.92 301.76 253.033 302.48 253.06C303.027 253.087 303.517 253.103 303.95 253.11C304.383 253.117 305.233 253.12 306.5 253.12C307.727 253.12 308.56 253.117 309 253.11C309.44 253.103 309.947 253.087 310.52 253.06C311.24 253.033 311.84 252.927 312.32 252.74C312.733 252.58 313.097 252.343 313.41 252.03C313.723 251.717 313.953 251.353 314.1 250.94C314.3 250.46 314.413 249.86 314.44 249.14C314.467 248.593 314.483 248.103 314.49 247.67C314.497 247.237 314.5 246.387 314.5 245.12C314.5 243.893 314.497 243.06 314.49 242.62C314.483 242.18 314.467 241.673 314.44 241.1C314.413 240.38 314.307 239.78 314.12 239.3C313.96 238.887 313.723 238.523 313.41 238.21C313.097 237.897 312.733 237.66 312.32 237.5C311.84 237.313 311.24 237.207 310.52 237.18C309.973 237.153 309.483 237.137 309.05 237.13C308.617 237.123 307.767 237.12 306.5 237.12ZM306.5 235.12C307.807 235.12 308.7 235.127 309.18 235.14C309.58 235.14 310.06 235.153 310.62 235.18C311.553 235.22 312.36 235.373 313.04 235.64C313.72 235.907 314.313 236.293 314.82 236.8C315.327 237.307 315.713 237.9 315.98 238.58C316.247 239.26 316.4 240.067 316.44 241C316.467 241.573 316.48 242.053 316.48 242.44C316.493 242.947 316.5 243.847 316.5 245.14C316.5 246.433 316.493 247.32 316.48 247.8C316.48 248.2 316.467 248.68 316.44 249.24C316.4 250.173 316.247 250.98 315.98 251.66C315.713 252.34 315.327 252.933 314.82 253.44C314.313 253.947 313.72 254.333 313.04 254.6C312.36 254.867 311.553 255.02 310.62 255.06C310.047 255.087 309.567 255.1 309.18 255.1C308.673 255.113 307.773 255.12 306.48 255.12C305.187 255.12 304.3 255.113 303.82 255.1C303.42 255.1 302.94 255.087 302.38 255.06C301.447 255.02 300.64 254.867 299.96 254.6C299.28 254.333 298.687 253.947 298.18 253.44C297.673 252.933 297.287 252.34 297.02 251.66C296.753 250.98 296.6 250.173 296.56 249.24C296.533 248.667 296.52 248.187 296.52 247.8C296.507 247.293 296.5 246.393 296.5 245.1C296.5 243.807 296.507 242.92 296.52 242.44C296.52 242.04 296.533 241.56 296.56 241C296.6 240.067 296.753 239.26 297.02 238.58C297.287 237.9 297.673 237.307 298.18 236.8C298.687 236.293 299.28 235.907 299.96 235.64C300.64 235.373 301.447 235.22 302.38 235.18C302.953 235.153 303.433 235.14 303.82 235.14C304.327 235.127 305.22 235.12 306.5 235.12Z" fill="white"/>
</g>
<path d="M95.045 440.687C94.8434 441.224 94.5554 441.69 94.181 442.083C93.8066 442.467 93.365 442.76 92.8562 442.962C92.357 443.163 91.8098 443.264 91.2146 443.264C90.3122 443.264 89.5298 443.067 88.8674 442.674C88.2146 442.271 87.7058 441.704 87.341 440.975C86.9858 440.245 86.8082 439.376 86.8082 438.368C86.8082 437.36 86.9858 436.491 87.341 435.762C87.7058 435.032 88.2146 434.471 88.8674 434.077C89.5298 433.674 90.3026 433.472 91.1858 433.472C91.8002 433.472 92.3474 433.559 92.8274 433.731C93.3074 433.895 93.7154 434.144 94.0514 434.48C94.397 434.807 94.6706 435.21 94.8722 435.69L93.7346 436.223C93.5234 435.675 93.2162 435.263 92.813 434.984C92.4194 434.696 91.9058 434.552 91.2722 434.552C90.629 434.552 90.0626 434.706 89.573 435.013C89.0834 435.311 88.6994 435.743 88.421 436.309C88.1522 436.875 88.0178 437.562 88.0178 438.368C88.0178 439.165 88.1474 439.851 88.4066 440.427C88.6658 440.994 89.0354 441.431 89.5154 441.738C89.9954 442.035 90.5618 442.184 91.2146 442.184C91.8482 442.184 92.4002 442.026 92.8706 441.709C93.341 441.383 93.6818 440.898 93.893 440.255L95.045 440.687ZM100.021 435.776C100.703 435.776 101.303 435.925 101.821 436.223C102.349 436.52 102.762 436.952 103.059 437.519C103.357 438.075 103.506 438.743 103.506 439.52C103.506 440.298 103.357 440.97 103.059 441.536C102.762 442.093 102.349 442.52 101.821 442.818C101.303 443.115 100.703 443.264 100.021 443.264C99.3489 443.264 98.7489 443.115 98.2209 442.818C97.6929 442.52 97.2801 442.093 96.9825 441.536C96.6849 440.97 96.5361 440.298 96.5361 439.52C96.5361 438.743 96.6849 438.075 96.9825 437.519C97.2801 436.952 97.6929 436.52 98.2209 436.223C98.7489 435.925 99.3489 435.776 100.021 435.776ZM100.021 436.77C99.5313 436.77 99.1137 436.88 98.7681 437.101C98.4225 437.322 98.1537 437.639 97.9617 438.051C97.7793 438.455 97.6881 438.944 97.6881 439.52C97.6881 440.087 97.7793 440.576 97.9617 440.989C98.1537 441.402 98.4225 441.719 98.7681 441.939C99.1137 442.16 99.5313 442.271 100.021 442.271C100.511 442.271 100.928 442.16 101.274 441.939C101.619 441.719 101.883 441.402 102.066 440.989C102.258 440.576 102.354 440.087 102.354 439.52C102.354 438.944 102.258 438.455 102.066 438.051C101.883 437.639 101.619 437.322 101.274 437.101C100.928 436.88 100.511 436.77 100.021 436.77ZM105.674 446.144V435.92H106.682L106.783 437.677L106.625 437.475C106.75 437.139 106.937 436.847 107.186 436.597C107.436 436.338 107.738 436.136 108.094 435.992C108.449 435.848 108.833 435.776 109.246 435.776C109.831 435.776 110.369 435.925 110.858 436.223C111.358 436.52 111.756 436.947 112.054 437.504C112.351 438.061 112.5 438.733 112.5 439.52C112.5 440.298 112.346 440.97 112.039 441.536C111.742 442.093 111.343 442.52 110.844 442.818C110.345 443.115 109.798 443.264 109.202 443.264C108.607 443.264 108.084 443.12 107.633 442.832C107.191 442.535 106.874 442.16 106.682 441.709L106.826 441.493V446.144H105.674ZM109.087 442.256C109.798 442.256 110.35 442.007 110.743 441.507C111.146 441.008 111.348 440.346 111.348 439.52C111.348 438.695 111.151 438.032 110.758 437.533C110.374 437.034 109.831 436.784 109.13 436.784C108.67 436.784 108.266 436.899 107.921 437.13C107.575 437.351 107.306 437.667 107.114 438.08C106.922 438.483 106.826 438.963 106.826 439.52C106.826 440.067 106.918 440.547 107.1 440.96C107.292 441.373 107.556 441.695 107.892 441.925C108.238 442.146 108.636 442.256 109.087 442.256ZM120.41 435.92L117.026 444.33C116.844 444.8 116.642 445.17 116.421 445.439C116.21 445.717 115.97 445.914 115.701 446.029C115.442 446.154 115.14 446.216 114.794 446.216C114.468 446.216 114.165 446.168 113.887 446.072C113.618 445.986 113.378 445.866 113.167 445.712L113.484 444.704C113.676 444.877 113.877 445.002 114.088 445.079C114.309 445.165 114.525 445.208 114.736 445.208C114.986 445.208 115.221 445.131 115.442 444.978C115.663 444.824 115.864 444.512 116.047 444.042L116.421 443.106L115.701 441.392L113.412 435.92H114.722L116.522 440.615L116.968 441.896L117.487 440.471L119.172 435.92H120.41ZM121.917 443.12V435.92H122.853L123.011 437.101C123.213 436.659 123.505 436.328 123.889 436.107C124.283 435.887 124.758 435.776 125.315 435.776C125.44 435.776 125.574 435.786 125.718 435.805C125.872 435.824 126.001 435.863 126.107 435.92L125.905 436.971C125.8 436.933 125.685 436.904 125.56 436.885C125.435 436.866 125.257 436.856 125.027 436.856C124.729 436.856 124.427 436.943 124.12 437.115C123.822 437.288 123.573 437.552 123.371 437.907C123.169 438.253 123.069 438.695 123.069 439.232V443.12H121.917ZM128.371 434.538C128.112 434.538 127.9 434.461 127.737 434.307C127.584 434.144 127.507 433.933 127.507 433.674C127.507 433.415 127.584 433.208 127.737 433.055C127.9 432.891 128.112 432.81 128.371 432.81C128.63 432.81 128.836 432.891 128.99 433.055C129.153 433.208 129.235 433.415 129.235 433.674C129.235 433.933 129.153 434.144 128.99 434.307C128.836 434.461 128.63 434.538 128.371 434.538ZM128.947 435.92V443.12H127.795V435.92H128.947ZM137.682 434.595L137.941 435.618C137.932 435.618 137.917 435.618 137.898 435.618C137.879 435.618 137.86 435.618 137.841 435.618C137.37 435.618 137.005 435.714 136.746 435.906C136.497 436.088 136.372 436.386 136.372 436.799L135.666 436.439C135.666 436.064 135.753 435.738 135.925 435.459C136.098 435.181 136.333 434.97 136.631 434.826C136.929 434.672 137.255 434.595 137.61 434.595C137.62 434.595 137.629 434.595 137.639 434.595C137.658 434.595 137.673 434.595 137.682 434.595ZM135.493 442.199C136.175 442.199 136.708 442.357 137.092 442.674C137.476 442.981 137.668 443.394 137.668 443.912C137.668 444.383 137.509 444.791 137.193 445.136C136.885 445.482 136.468 445.746 135.94 445.928C135.421 446.12 134.836 446.216 134.183 446.216C133.05 446.216 132.201 446.024 131.634 445.64C131.077 445.256 130.799 444.795 130.799 444.258C130.799 443.874 130.924 443.528 131.173 443.221C131.433 442.923 131.865 442.755 132.469 442.717L132.369 442.933C132.042 442.847 131.764 442.703 131.533 442.501C131.313 442.29 131.202 441.987 131.202 441.594C131.202 441.2 131.346 440.864 131.634 440.586C131.932 440.298 132.369 440.12 132.945 440.053L133.708 440.442H133.564C133.093 440.49 132.757 440.61 132.556 440.802C132.364 440.984 132.268 441.186 132.268 441.407C132.268 441.675 132.364 441.877 132.556 442.011C132.757 442.136 133.036 442.199 133.391 442.199H135.493ZM134.169 445.251C134.725 445.251 135.181 445.194 135.537 445.079C135.901 444.963 136.17 444.815 136.343 444.632C136.516 444.45 136.602 444.253 136.602 444.042C136.602 443.783 136.497 443.576 136.285 443.423C136.084 443.269 135.714 443.192 135.177 443.192H132.959C132.652 443.192 132.393 443.269 132.181 443.423C131.97 443.586 131.865 443.807 131.865 444.085C131.865 444.44 132.066 444.723 132.469 444.935C132.882 445.146 133.449 445.251 134.169 445.251ZM134.068 435.776C134.644 435.776 135.153 435.882 135.594 436.093C136.045 436.295 136.396 436.578 136.645 436.943C136.895 437.307 137.02 437.73 137.02 438.21C137.02 438.68 136.895 439.103 136.645 439.477C136.396 439.842 136.045 440.13 135.594 440.341C135.153 440.543 134.644 440.643 134.068 440.643C133.117 440.643 132.388 440.418 131.879 439.967C131.37 439.506 131.116 438.92 131.116 438.21C131.116 437.73 131.241 437.307 131.49 436.943C131.749 436.578 132.1 436.295 132.541 436.093C132.983 435.882 133.492 435.776 134.068 435.776ZM134.068 436.712C133.569 436.712 133.151 436.851 132.815 437.13C132.479 437.399 132.311 437.759 132.311 438.21C132.311 438.651 132.479 439.011 132.815 439.29C133.151 439.568 133.569 439.707 134.068 439.707C134.567 439.707 134.985 439.568 135.321 439.29C135.657 439.011 135.825 438.651 135.825 438.21C135.825 437.759 135.657 437.399 135.321 437.13C134.985 436.851 134.567 436.712 134.068 436.712ZM139.284 443.12V432.608H140.436V437C140.685 436.568 141.017 436.256 141.429 436.064C141.842 435.872 142.293 435.776 142.783 435.776C143.301 435.776 143.772 435.877 144.194 436.079C144.617 436.271 144.953 436.568 145.202 436.971C145.461 437.375 145.591 437.888 145.591 438.512V443.12H144.439V438.915C144.439 438.119 144.266 437.567 143.921 437.259C143.585 436.943 143.167 436.784 142.668 436.784C142.322 436.784 141.977 436.866 141.631 437.029C141.285 437.192 140.997 437.461 140.767 437.835C140.546 438.2 140.436 438.69 140.436 439.304V443.12H139.284ZM149.8 433.875V441.133C149.8 441.488 149.901 441.752 150.103 441.925C150.304 442.098 150.563 442.184 150.88 442.184C151.159 442.184 151.399 442.136 151.6 442.04C151.802 441.944 151.984 441.815 152.147 441.651L152.551 442.616C152.33 442.818 152.066 442.976 151.759 443.091C151.461 443.207 151.115 443.264 150.722 443.264C150.357 443.264 150.016 443.202 149.699 443.077C149.383 442.943 149.128 442.736 148.936 442.458C148.754 442.17 148.658 441.795 148.648 441.335V434.192L149.8 433.875ZM152.421 435.92V436.914H147.208V435.92H152.421ZM163.606 443.264C162.627 443.264 161.768 443.048 161.029 442.616C160.29 442.184 159.714 441.599 159.301 440.859C158.888 440.12 158.682 439.29 158.682 438.368C158.682 437.437 158.888 436.607 159.301 435.877C159.714 435.138 160.29 434.552 161.029 434.12C161.768 433.688 162.627 433.472 163.606 433.472C164.586 433.472 165.445 433.688 166.184 434.12C166.923 434.552 167.499 435.138 167.912 435.877C168.325 436.607 168.531 437.437 168.531 438.368C168.531 439.29 168.325 440.12 167.912 440.859C167.499 441.599 166.923 442.184 166.184 442.616C165.445 443.048 164.586 443.264 163.606 443.264ZM163.606 442.328C164.384 442.328 165.066 442.155 165.651 441.81C166.237 441.455 166.693 440.979 167.019 440.384C167.346 439.779 167.509 439.107 167.509 438.368C167.509 437.629 167.346 436.962 167.019 436.367C166.693 435.762 166.237 435.287 165.651 434.941C165.066 434.586 164.384 434.408 163.606 434.408C162.838 434.408 162.157 434.586 161.562 434.941C160.976 435.287 160.52 435.762 160.194 436.367C159.867 436.962 159.704 437.629 159.704 438.368C159.704 439.107 159.867 439.779 160.194 440.384C160.52 440.979 160.976 441.455 161.562 441.81C162.157 442.155 162.838 442.328 163.606 442.328ZM163.707 441.061C162.891 441.061 162.248 440.826 161.778 440.355C161.317 439.875 161.086 439.223 161.086 438.397C161.086 437.571 161.317 436.923 161.778 436.453C162.248 435.973 162.891 435.733 163.707 435.733C164.274 435.733 164.744 435.858 165.118 436.107C165.493 436.347 165.771 436.679 165.954 437.101L165.118 437.519C164.994 437.211 164.816 436.981 164.586 436.827C164.355 436.674 164.058 436.597 163.693 436.597C163.184 436.597 162.781 436.755 162.483 437.072C162.195 437.389 162.051 437.831 162.051 438.397C162.051 438.963 162.195 439.405 162.483 439.722C162.781 440.039 163.184 440.197 163.693 440.197C164.077 440.197 164.394 440.12 164.643 439.967C164.902 439.803 165.094 439.559 165.219 439.232L166.011 439.549C165.829 440.019 165.546 440.389 165.162 440.658C164.778 440.927 164.293 441.061 163.707 441.061ZM175.488 443.12V442.184C176.439 441.483 177.231 440.869 177.864 440.341C178.508 439.813 179.021 439.333 179.405 438.901C179.789 438.469 180.063 438.061 180.226 437.677C180.389 437.283 180.471 436.875 180.471 436.453C180.471 435.887 180.288 435.431 179.924 435.085C179.568 434.73 179.079 434.552 178.455 434.552C177.802 434.552 177.279 434.768 176.885 435.2C176.492 435.623 176.261 436.189 176.194 436.899L175.186 436.295C175.272 435.738 175.45 435.248 175.719 434.826C175.997 434.403 176.367 434.072 176.828 433.832C177.298 433.592 177.855 433.472 178.498 433.472C178.988 433.472 179.424 433.544 179.808 433.688C180.202 433.832 180.538 434.039 180.816 434.307C181.095 434.567 181.306 434.879 181.45 435.243C181.604 435.608 181.68 436.011 181.68 436.453C181.68 437.048 181.536 437.634 181.248 438.21C180.96 438.776 180.485 439.371 179.823 439.995C179.16 440.619 178.263 441.311 177.13 442.069V442.083C177.236 442.074 177.38 442.069 177.562 442.069C177.754 442.059 177.941 442.055 178.124 442.055C178.316 442.045 178.46 442.04 178.556 442.04H181.882V443.12H175.488ZM187.297 443.264C186.221 443.264 185.362 442.847 184.719 442.011C184.076 441.176 183.754 439.962 183.754 438.368C183.754 436.775 184.076 435.56 184.719 434.725C185.362 433.89 186.221 433.472 187.297 433.472C188.381 433.472 189.241 433.89 189.874 434.725C190.517 435.56 190.839 436.775 190.839 438.368C190.839 439.962 190.517 441.176 189.874 442.011C189.241 442.847 188.381 443.264 187.297 443.264ZM187.297 442.227C187.805 442.227 188.233 442.083 188.578 441.795C188.933 441.498 189.197 441.061 189.37 440.485C189.553 439.909 189.644 439.203 189.644 438.368C189.644 437.533 189.553 436.827 189.37 436.251C189.197 435.675 188.933 435.243 188.578 434.955C188.233 434.658 187.805 434.509 187.297 434.509C186.788 434.509 186.356 434.658 186.001 434.955C185.655 435.243 185.391 435.675 185.209 436.251C185.036 436.827 184.949 437.533 184.949 438.368C184.949 439.203 185.036 439.909 185.209 440.485C185.391 441.061 185.655 441.498 186.001 441.795C186.356 442.083 186.788 442.227 187.297 442.227ZM192.842 443.12V442.184C193.792 441.483 194.584 440.869 195.218 440.341C195.861 439.813 196.374 439.333 196.758 438.901C197.142 438.469 197.416 438.061 197.579 437.677C197.742 437.283 197.824 436.875 197.824 436.453C197.824 435.887 197.642 435.431 197.277 435.085C196.922 434.73 196.432 434.552 195.808 434.552C195.155 434.552 194.632 434.768 194.238 435.2C193.845 435.623 193.614 436.189 193.547 436.899L192.539 436.295C192.626 435.738 192.803 435.248 193.072 434.826C193.35 434.403 193.72 434.072 194.181 433.832C194.651 433.592 195.208 433.472 195.851 433.472C196.341 433.472 196.778 433.544 197.162 433.688C197.555 433.832 197.891 434.039 198.17 434.307C198.448 434.567 198.659 434.879 198.803 435.243C198.957 435.608 199.034 436.011 199.034 436.453C199.034 437.048 198.89 437.634 198.602 438.21C198.314 438.776 197.838 439.371 197.176 439.995C196.514 440.619 195.616 441.311 194.483 442.069V442.083C194.589 442.074 194.733 442.069 194.915 442.069C195.107 442.059 195.294 442.055 195.477 442.055C195.669 442.045 195.813 442.04 195.909 442.04H199.235V443.12H192.842ZM204.347 443.264C203.502 443.264 202.754 443.067 202.101 442.674C201.458 442.271 201.021 441.719 200.79 441.018L201.942 440.427C202.058 440.783 202.216 441.095 202.418 441.363C202.619 441.623 202.883 441.824 203.21 441.968C203.546 442.112 203.963 442.184 204.462 442.184C204.885 442.184 205.24 442.107 205.528 441.954C205.816 441.8 206.037 441.594 206.19 441.335C206.344 441.066 206.421 440.759 206.421 440.413C206.421 440.067 206.354 439.779 206.219 439.549C206.094 439.319 205.893 439.151 205.614 439.045C205.336 438.93 204.971 438.872 204.52 438.872C204.414 438.872 204.299 438.877 204.174 438.887C204.05 438.887 203.92 438.896 203.786 438.915V437.763C203.872 437.773 203.954 437.778 204.03 437.778C204.117 437.778 204.194 437.778 204.261 437.778C204.962 437.778 205.461 437.643 205.758 437.375C206.056 437.096 206.205 436.664 206.205 436.079C206.205 435.579 206.051 435.2 205.744 434.941C205.437 434.682 205 434.552 204.434 434.552C203.829 434.552 203.368 434.687 203.051 434.955C202.734 435.215 202.485 435.57 202.302 436.021L201.208 435.503C201.362 435.099 201.592 434.744 201.899 434.437C202.206 434.13 202.576 433.89 203.008 433.717C203.45 433.544 203.934 433.458 204.462 433.458C205.125 433.458 205.672 433.573 206.104 433.803C206.536 434.024 206.858 434.322 207.069 434.696C207.29 435.071 207.4 435.483 207.4 435.935C207.4 436.28 207.352 436.592 207.256 436.871C207.16 437.139 207.026 437.375 206.853 437.576C206.69 437.778 206.502 437.941 206.291 438.066C206.08 438.181 205.854 438.258 205.614 438.296V438.325C205.931 438.335 206.21 438.397 206.45 438.512C206.699 438.627 206.91 438.781 207.083 438.973C207.256 439.165 207.386 439.386 207.472 439.635C207.568 439.875 207.616 440.13 207.616 440.399C207.616 440.955 207.477 441.45 207.198 441.882C206.93 442.314 206.55 442.655 206.061 442.904C205.571 443.144 205 443.264 204.347 443.264ZM222.302 433.616V439.578C222.302 440.797 221.98 441.719 221.337 442.343C220.694 442.957 219.772 443.264 218.572 443.264C217.382 443.264 216.46 442.957 215.807 442.343C215.164 441.719 214.842 440.797 214.842 439.578V433.616H215.994V439.29C215.994 440.279 216.201 441.008 216.614 441.479C217.036 441.949 217.689 442.184 218.572 442.184C219.455 442.184 220.103 441.949 220.516 441.479C220.938 441.008 221.15 440.279 221.15 439.29V433.616H222.302ZM231.906 433.616V434.696H228.594V443.12H227.442V434.696H224.13V433.616H231.906ZM240.568 434.696H235.067V437.763H239.359V438.843H235.067V443.12H233.915V433.616H240.568V434.696ZM246.06 433.616C246.703 433.616 247.26 433.736 247.73 433.976C248.21 434.207 248.585 434.538 248.853 434.97C249.122 435.402 249.257 435.915 249.257 436.511C249.257 437.106 249.122 437.619 248.853 438.051C248.585 438.483 248.21 438.819 247.73 439.059C247.26 439.29 246.703 439.405 246.06 439.405H243.857V443.12H242.705V433.616H246.06ZM245.887 438.325C246.636 438.325 247.183 438.171 247.529 437.864C247.874 437.547 248.047 437.096 248.047 436.511C248.047 435.915 247.874 435.464 247.529 435.157C247.183 434.85 246.636 434.696 245.887 434.696H243.857V438.325H245.887ZM255.094 433.616C256.063 433.616 256.841 433.866 257.426 434.365C258.012 434.864 258.305 435.541 258.305 436.395C258.305 437.25 258.007 437.917 257.412 438.397C256.826 438.867 256.049 439.103 255.079 439.103L254.978 439.175H252.646V443.12H251.494V433.616H255.094ZM255.079 438.095C255.761 438.095 256.265 437.955 256.591 437.677C256.927 437.389 257.095 436.962 257.095 436.395C257.095 435.829 256.927 435.407 256.591 435.128C256.265 434.84 255.761 434.696 255.079 434.696H252.646V438.095H255.079ZM255.742 438.325L258.881 443.12H257.513L254.777 438.959L255.742 438.325ZM261.43 441.392C261.709 441.392 261.934 441.479 262.107 441.651C262.28 441.824 262.366 442.05 262.366 442.328C262.366 442.607 262.28 442.832 262.107 443.005C261.934 443.178 261.709 443.264 261.43 443.264C261.152 443.264 260.926 443.178 260.753 443.005C260.581 442.832 260.494 442.607 260.494 442.328C260.494 442.05 260.581 441.824 260.753 441.651C260.926 441.479 261.152 441.392 261.43 441.392ZM276.801 443.12H275.577L274.569 440.485H270.263L269.255 443.12H268.046L271.746 433.616H273.114L276.801 443.12ZM270.681 439.405H274.151L272.409 434.725L270.681 439.405ZM279.611 432.608V441.291C279.611 441.656 279.678 441.911 279.813 442.055C279.947 442.189 280.163 442.256 280.461 442.256C280.653 442.256 280.811 442.242 280.936 442.213C281.061 442.184 281.229 442.131 281.44 442.055L281.253 443.063C281.099 443.13 280.931 443.178 280.749 443.207C280.566 443.245 280.379 443.264 280.187 443.264C279.601 443.264 279.165 443.106 278.877 442.789C278.598 442.472 278.459 441.987 278.459 441.335V432.608H279.611ZM284.013 432.608V441.291C284.013 441.656 284.08 441.911 284.214 442.055C284.349 442.189 284.565 442.256 284.862 442.256C285.054 442.256 285.213 442.242 285.337 442.213C285.462 442.184 285.63 442.131 285.841 442.055L285.654 443.063C285.501 443.13 285.333 443.178 285.15 443.207C284.968 443.245 284.781 443.264 284.589 443.264C284.003 443.264 283.566 443.106 283.278 442.789C283 442.472 282.861 441.987 282.861 441.335V432.608H284.013ZM291.721 443.12V435.92H292.657L292.816 437.101C293.017 436.659 293.31 436.328 293.694 436.107C294.088 435.887 294.563 435.776 295.12 435.776C295.245 435.776 295.379 435.786 295.523 435.805C295.677 435.824 295.806 435.863 295.912 435.92L295.71 436.971C295.605 436.933 295.489 436.904 295.365 436.885C295.24 436.866 295.062 436.856 294.832 436.856C294.534 436.856 294.232 436.943 293.925 437.115C293.627 437.288 293.377 437.552 293.176 437.907C292.974 438.253 292.873 438.695 292.873 439.232V443.12H291.721ZM298.175 434.538C297.916 434.538 297.705 434.461 297.542 434.307C297.388 434.144 297.311 433.933 297.311 433.674C297.311 433.415 297.388 433.208 297.542 433.055C297.705 432.891 297.916 432.81 298.175 432.81C298.435 432.81 298.641 432.891 298.795 433.055C298.958 433.208 299.039 433.415 299.039 433.674C299.039 433.933 298.958 434.144 298.795 434.307C298.641 434.461 298.435 434.538 298.175 434.538ZM298.751 435.92V443.12H297.599V435.92H298.751ZM307.487 434.595L307.746 435.618C307.736 435.618 307.722 435.618 307.703 435.618C307.684 435.618 307.664 435.618 307.645 435.618C307.175 435.618 306.81 435.714 306.551 435.906C306.301 436.088 306.176 436.386 306.176 436.799L305.471 436.439C305.471 436.064 305.557 435.738 305.73 435.459C305.903 435.181 306.138 434.97 306.436 434.826C306.733 434.672 307.06 434.595 307.415 434.595C307.424 434.595 307.434 434.595 307.444 434.595C307.463 434.595 307.477 434.595 307.487 434.595ZM305.298 442.199C305.98 442.199 306.512 442.357 306.896 442.674C307.28 442.981 307.472 443.394 307.472 443.912C307.472 444.383 307.314 444.791 306.997 445.136C306.69 445.482 306.272 445.746 305.744 445.928C305.226 446.12 304.64 446.216 303.988 446.216C302.855 446.216 302.005 446.024 301.439 445.64C300.882 445.256 300.604 444.795 300.604 444.258C300.604 443.874 300.728 443.528 300.978 443.221C301.237 442.923 301.669 442.755 302.274 442.717L302.173 442.933C301.847 442.847 301.568 442.703 301.338 442.501C301.117 442.29 301.007 441.987 301.007 441.594C301.007 441.2 301.151 440.864 301.439 440.586C301.736 440.298 302.173 440.12 302.749 440.053L303.512 440.442H303.368C302.898 440.49 302.562 440.61 302.36 440.802C302.168 440.984 302.072 441.186 302.072 441.407C302.072 441.675 302.168 441.877 302.36 442.011C302.562 442.136 302.84 442.199 303.196 442.199H305.298ZM303.973 445.251C304.53 445.251 304.986 445.194 305.341 445.079C305.706 444.963 305.975 444.815 306.148 444.632C306.32 444.45 306.407 444.253 306.407 444.042C306.407 443.783 306.301 443.576 306.09 443.423C305.888 443.269 305.519 443.192 304.981 443.192H302.764C302.456 443.192 302.197 443.269 301.986 443.423C301.775 443.586 301.669 443.807 301.669 444.085C301.669 444.44 301.871 444.723 302.274 444.935C302.687 445.146 303.253 445.251 303.973 445.251ZM303.872 435.776C304.448 435.776 304.957 435.882 305.399 436.093C305.85 436.295 306.2 436.578 306.45 436.943C306.7 437.307 306.824 437.73 306.824 438.21C306.824 438.68 306.7 439.103 306.45 439.477C306.2 439.842 305.85 440.13 305.399 440.341C304.957 440.543 304.448 440.643 303.872 440.643C302.922 440.643 302.192 440.418 301.684 439.967C301.175 439.506 300.92 438.92 300.92 438.21C300.92 437.73 301.045 437.307 301.295 436.943C301.554 436.578 301.904 436.295 302.346 436.093C302.788 435.882 303.296 435.776 303.872 435.776ZM303.872 436.712C303.373 436.712 302.956 436.851 302.62 437.13C302.284 437.399 302.116 437.759 302.116 438.21C302.116 438.651 302.284 439.011 302.62 439.29C302.956 439.568 303.373 439.707 303.872 439.707C304.372 439.707 304.789 439.568 305.125 439.29C305.461 439.011 305.629 438.651 305.629 438.21C305.629 437.759 305.461 437.399 305.125 437.13C304.789 436.851 304.372 436.712 303.872 436.712ZM309.089 443.12V432.608H310.241V437C310.49 436.568 310.821 436.256 311.234 436.064C311.647 435.872 312.098 435.776 312.588 435.776C313.106 435.776 313.577 435.877 313.999 436.079C314.421 436.271 314.757 436.568 315.007 436.971C315.266 437.375 315.396 437.888 315.396 438.512V443.12H314.244V438.915C314.244 438.119 314.071 437.567 313.725 437.259C313.389 436.943 312.972 436.784 312.473 436.784C312.127 436.784 311.781 436.866 311.436 437.029C311.09 437.192 310.802 437.461 310.572 437.835C310.351 438.2 310.241 438.69 310.241 439.304V443.12H309.089ZM319.605 433.875V441.133C319.605 441.488 319.706 441.752 319.907 441.925C320.109 442.098 320.368 442.184 320.685 442.184C320.963 442.184 321.203 442.136 321.405 442.04C321.607 441.944 321.789 441.815 321.952 441.651L322.355 442.616C322.135 442.818 321.871 442.976 321.563 443.091C321.266 443.207 320.92 443.264 320.527 443.264C320.162 443.264 319.821 443.202 319.504 443.077C319.187 442.943 318.933 442.736 318.741 442.458C318.559 442.17 318.463 441.795 318.453 441.335V434.192L319.605 433.875ZM322.226 435.92V436.914H317.013V435.92H322.226ZM326.531 443.264C325.83 443.264 325.182 443.115 324.587 442.818C324.001 442.52 323.55 442.098 323.233 441.551L324.212 440.845C324.423 441.287 324.731 441.632 325.134 441.882C325.547 442.131 326.041 442.256 326.617 442.256C327.126 442.256 327.524 442.16 327.812 441.968C328.1 441.767 328.244 441.507 328.244 441.191C328.244 440.989 328.177 440.807 328.043 440.643C327.918 440.471 327.673 440.346 327.308 440.269L325.58 439.909C324.879 439.765 324.375 439.525 324.068 439.189C323.771 438.853 323.622 438.435 323.622 437.936C323.622 437.543 323.732 437.183 323.953 436.856C324.183 436.53 324.505 436.271 324.918 436.079C325.34 435.877 325.835 435.776 326.401 435.776C327.111 435.776 327.711 435.915 328.201 436.194C328.691 436.472 329.055 436.866 329.295 437.375L328.331 438.008C328.167 437.586 327.903 437.279 327.539 437.087C327.174 436.885 326.795 436.784 326.401 436.784C326.055 436.784 325.758 436.832 325.508 436.928C325.268 437.024 325.081 437.159 324.947 437.331C324.822 437.495 324.759 437.682 324.759 437.893C324.759 438.104 324.831 438.301 324.975 438.483C325.119 438.656 325.388 438.781 325.782 438.858L327.582 439.232C328.254 439.367 328.724 439.587 328.993 439.895C329.262 440.202 329.396 440.576 329.396 441.018C329.396 441.469 329.276 441.867 329.036 442.213C328.796 442.549 328.46 442.808 328.028 442.991C327.596 443.173 327.097 443.264 326.531 443.264ZM336.44 443.12V435.92H337.376L337.535 437.101C337.736 436.659 338.029 436.328 338.413 436.107C338.807 435.887 339.282 435.776 339.839 435.776C339.963 435.776 340.098 435.786 340.242 435.805C340.395 435.824 340.525 435.863 340.631 435.92L340.429 436.971C340.323 436.933 340.208 436.904 340.083 436.885C339.959 436.866 339.781 436.856 339.551 436.856C339.253 436.856 338.951 436.943 338.643 437.115C338.346 437.288 338.096 437.552 337.895 437.907C337.693 438.253 337.592 438.695 337.592 439.232V443.12H336.44ZM345.103 443.264C344.421 443.264 343.812 443.115 343.274 442.818C342.746 442.52 342.333 442.093 342.036 441.536C341.738 440.97 341.589 440.298 341.589 439.52C341.589 438.743 341.738 438.075 342.036 437.519C342.333 436.952 342.741 436.52 343.26 436.223C343.778 435.925 344.368 435.776 345.031 435.776C345.703 435.776 346.274 435.92 346.744 436.208C347.224 436.496 347.589 436.89 347.839 437.389C348.088 437.879 348.213 438.431 348.213 439.045C348.213 439.208 348.208 439.357 348.199 439.491C348.189 439.626 348.175 439.746 348.156 439.851H342.338V438.829H347.652L347.061 438.944C347.061 438.253 346.869 437.72 346.485 437.346C346.111 436.971 345.616 436.784 345.002 436.784C344.532 436.784 344.124 436.895 343.778 437.115C343.442 437.327 343.178 437.639 342.986 438.051C342.804 438.455 342.712 438.944 342.712 439.52C342.712 440.087 342.808 440.576 343 440.989C343.192 441.402 343.461 441.719 343.807 441.939C344.162 442.151 344.584 442.256 345.074 442.256C345.602 442.256 346.029 442.155 346.356 441.954C346.692 441.752 346.96 441.479 347.162 441.133L348.069 441.666C347.887 441.992 347.652 442.275 347.364 442.515C347.085 442.755 346.754 442.943 346.37 443.077C345.996 443.202 345.573 443.264 345.103 443.264ZM352.996 443.264C352.295 443.264 351.647 443.115 351.052 442.818C350.467 442.52 350.015 442.098 349.699 441.551L350.678 440.845C350.889 441.287 351.196 441.632 351.599 441.882C352.012 442.131 352.507 442.256 353.083 442.256C353.591 442.256 353.99 442.16 354.278 441.968C354.566 441.767 354.71 441.507 354.71 441.191C354.71 440.989 354.643 440.807 354.508 440.643C354.383 440.471 354.139 440.346 353.774 440.269L352.046 439.909C351.345 439.765 350.841 439.525 350.534 439.189C350.236 438.853 350.087 438.435 350.087 437.936C350.087 437.543 350.198 437.183 350.419 436.856C350.649 436.53 350.971 436.271 351.383 436.079C351.806 435.877 352.3 435.776 352.867 435.776C353.577 435.776 354.177 435.915 354.667 436.194C355.156 436.472 355.521 436.866 355.761 437.375L354.796 438.008C354.633 437.586 354.369 437.279 354.004 437.087C353.639 436.885 353.26 436.784 352.867 436.784C352.521 436.784 352.223 436.832 351.974 436.928C351.734 437.024 351.547 437.159 351.412 437.331C351.287 437.495 351.225 437.682 351.225 437.893C351.225 438.104 351.297 438.301 351.441 438.483C351.585 438.656 351.854 438.781 352.247 438.858L354.047 439.232C354.719 439.367 355.19 439.587 355.459 439.895C355.727 440.202 355.862 440.576 355.862 441.018C355.862 441.469 355.742 441.867 355.502 442.213C355.262 442.549 354.926 442.808 354.494 442.991C354.062 443.173 353.563 443.264 352.996 443.264ZM361.008 443.264C360.326 443.264 359.716 443.115 359.179 442.818C358.651 442.52 358.238 442.093 357.94 441.536C357.643 440.97 357.494 440.298 357.494 439.52C357.494 438.743 357.643 438.075 357.94 437.519C358.238 436.952 358.646 436.52 359.164 436.223C359.683 435.925 360.273 435.776 360.936 435.776C361.608 435.776 362.179 435.92 362.649 436.208C363.129 436.496 363.494 436.89 363.744 437.389C363.993 437.879 364.118 438.431 364.118 439.045C364.118 439.208 364.113 439.357 364.104 439.491C364.094 439.626 364.08 439.746 364.06 439.851H358.243V438.829H363.556L362.966 438.944C362.966 438.253 362.774 437.72 362.39 437.346C362.016 436.971 361.521 436.784 360.907 436.784C360.436 436.784 360.028 436.895 359.683 437.115C359.347 437.327 359.083 437.639 358.891 438.051C358.708 438.455 358.617 438.944 358.617 439.52C358.617 440.087 358.713 440.576 358.905 440.989C359.097 441.402 359.366 441.719 359.712 441.939C360.067 442.151 360.489 442.256 360.979 442.256C361.507 442.256 361.934 442.155 362.26 441.954C362.596 441.752 362.865 441.479 363.067 441.133L363.974 441.666C363.792 441.992 363.556 442.275 363.268 442.515C362.99 442.755 362.659 442.943 362.275 443.077C361.9 443.202 361.478 443.264 361.008 443.264ZM366.309 443.12V435.92H367.245L367.403 437.101C367.605 436.659 367.898 436.328 368.282 436.107C368.675 435.887 369.15 435.776 369.707 435.776C369.832 435.776 369.966 435.786 370.11 435.805C370.264 435.824 370.394 435.863 370.499 435.92L370.298 436.971C370.192 436.933 370.077 436.904 369.952 436.885C369.827 436.866 369.65 436.856 369.419 436.856C369.122 436.856 368.819 436.943 368.512 437.115C368.214 437.288 367.965 437.552 367.763 437.907C367.562 438.253 367.461 438.695 367.461 439.232V443.12H366.309ZM376.953 435.92H378.163L375.168 443.12H374.016L371.021 435.92H372.331L374.606 441.954L376.953 435.92ZM382.678 443.264C381.996 443.264 381.387 443.115 380.849 442.818C380.321 442.52 379.908 442.093 379.611 441.536C379.313 440.97 379.164 440.298 379.164 439.52C379.164 438.743 379.313 438.075 379.611 437.519C379.908 436.952 380.316 436.52 380.835 436.223C381.353 435.925 381.943 435.776 382.606 435.776C383.278 435.776 383.849 435.92 384.319 436.208C384.799 436.496 385.164 436.89 385.414 437.389C385.663 437.879 385.788 438.431 385.788 439.045C385.788 439.208 385.783 439.357 385.774 439.491C385.764 439.626 385.75 439.746 385.731 439.851H379.913V438.829H385.227L384.636 438.944C384.636 438.253 384.444 437.72 384.06 437.346C383.686 436.971 383.191 436.784 382.577 436.784C382.107 436.784 381.699 436.895 381.353 437.115C381.017 437.327 380.753 437.639 380.561 438.051C380.379 438.455 380.287 438.944 380.287 439.52C380.287 440.087 380.383 440.576 380.575 440.989C380.767 441.402 381.036 441.719 381.382 441.939C381.737 442.151 382.159 442.256 382.649 442.256C383.177 442.256 383.604 442.155 383.931 441.954C384.267 441.752 384.535 441.479 384.737 441.133L385.644 441.666C385.462 441.992 385.227 442.275 384.939 442.515C384.66 442.755 384.329 442.943 383.945 443.077C383.571 443.202 383.148 443.264 382.678 443.264ZM390.787 443.264C390.192 443.264 389.645 443.115 389.146 442.818C388.646 442.52 388.248 442.093 387.95 441.536C387.653 440.97 387.504 440.298 387.504 439.52C387.504 438.723 387.662 438.047 387.979 437.49C388.296 436.933 388.714 436.511 389.232 436.223C389.75 435.925 390.307 435.776 390.902 435.776C391.498 435.776 392.011 435.93 392.443 436.237C392.885 436.544 393.178 436.952 393.322 437.461L393.178 437.562V432.608H394.33V443.12H393.322L393.221 441.378L393.379 441.291C393.312 441.714 393.149 442.074 392.89 442.371C392.64 442.659 392.328 442.88 391.954 443.034C391.589 443.187 391.2 443.264 390.787 443.264ZM390.902 442.256C391.363 442.256 391.762 442.141 392.098 441.911C392.443 441.68 392.707 441.354 392.89 440.931C393.082 440.499 393.178 439.995 393.178 439.419C393.178 438.872 393.082 438.402 392.89 438.008C392.707 437.615 392.448 437.312 392.112 437.101C391.786 436.89 391.402 436.784 390.96 436.784C390.23 436.784 389.664 437.034 389.261 437.533C388.858 438.032 388.656 438.695 388.656 439.52C388.656 440.346 388.853 441.008 389.246 441.507C389.64 442.007 390.192 442.256 390.902 442.256ZM397.583 441.392C397.862 441.392 398.087 441.479 398.26 441.651C398.433 441.824 398.519 442.05 398.519 442.328C398.519 442.607 398.433 442.832 398.26 443.005C398.087 443.178 397.862 443.264 397.583 443.264C397.305 443.264 397.079 443.178 396.906 443.005C396.734 442.832 396.647 442.607 396.647 442.328C396.647 442.05 396.734 441.824 396.906 441.651C397.079 441.479 397.305 441.392 397.583 441.392Z" fill="white"/>
<defs>
<clipPath id="clip0_1_273">
<rect width="24" height="24" fill="white" transform="matrix(1 0 0 -1 164.5 257.12)"/>
</clipPath>
<clipPath id="clip1_1_273">
<rect width="24" height="24" fill="white" transform="matrix(1 0 0 -1 230.5 257.12)"/>
</clipPath>
<clipPath id="clip2_1_273">
<rect width="24" height="24" fill="white" transform="matrix(1 0 0 -1 296.5 257.12)"/>
</clipPath>
</defs>
</svg>
