<svg width="453" height="411" viewBox="0 0 453 411" fill="none" xmlns="http://www.w3.org/2000/svg">
<path d="M12.8782 139.88V97.64H41.7422V100.584H16.0782V116.904H36.3662V119.912H16.0782V136.936H42.7662V139.88H12.8782ZM61.8177 92.84C62.9697 92.84 63.9937 92.9893 64.8897 93.288C65.7857 93.5867 66.4897 94.0133 67.0017 94.568L66.1057 97.128C65.551 96.616 64.9537 96.2533 64.3137 96.04C63.6737 95.8267 62.927 95.72 62.0737 95.72C59.983 95.72 58.3617 96.3173 57.2097 97.512C56.0577 98.7067 55.4817 100.477 55.4817 102.824V107.88V109.032V139.88H52.2817V102.504C52.2817 101.053 52.4737 99.7307 52.8577 98.536C53.2843 97.3413 53.903 96.3387 54.7137 95.528C55.5243 94.6747 56.527 94.0133 57.7217 93.544C58.9163 93.0747 60.2817 92.84 61.8177 92.84ZM66.7457 107.88V110.632H45.8817V107.88H66.7457ZM83.8977 92.84C85.0497 92.84 86.0737 92.9893 86.9697 93.288C87.8657 93.5867 88.5697 94.0133 89.0817 94.568L88.1857 97.128C87.631 96.616 87.0337 96.2533 86.3937 96.04C85.7537 95.8267 85.007 95.72 84.1537 95.72C82.063 95.72 80.4417 96.3173 79.2897 97.512C78.1377 98.7067 77.5617 100.477 77.5617 102.824V107.88V109.032V139.88H74.3617V102.504C74.3617 101.053 74.5537 99.7307 74.9377 98.536C75.3643 97.3413 75.983 96.3387 76.7937 95.528C77.6043 94.6747 78.607 94.0133 79.8017 93.544C80.9963 93.0747 82.3617 92.84 83.8977 92.84ZM88.8257 107.88V110.632H67.9617V107.88H88.8257ZM106.787 140.52C103.843 140.52 101.219 139.859 98.9147 138.536C96.6107 137.213 94.7973 135.315 93.4747 132.84C92.1947 130.323 91.5547 127.336 91.5547 123.88C91.5547 120.424 92.1947 117.459 93.4747 114.984C94.7973 112.467 96.568 110.547 98.7867 109.224C101.005 107.901 103.544 107.24 106.403 107.24C109.304 107.24 111.779 107.88 113.827 109.16C115.875 110.44 117.453 112.232 118.563 114.536C119.672 116.797 120.227 119.421 120.227 122.408C120.227 122.792 120.205 123.176 120.163 123.56C120.163 123.901 120.141 124.221 120.099 124.52H93.5387V121.64H118.691L117.091 122.088C117.048 118.419 116.067 115.496 114.147 113.32C112.269 111.144 109.667 110.056 106.339 110.056C104.035 110.056 102.008 110.611 100.259 111.72C98.5093 112.787 97.144 114.365 96.1627 116.456C95.1813 118.504 94.6907 120.979 94.6907 123.88C94.6907 126.739 95.1813 129.213 96.1627 131.304C97.1867 133.395 98.5947 134.995 100.387 136.104C102.221 137.171 104.333 137.704 106.723 137.704C109.197 137.704 111.309 137.171 113.059 136.104C114.851 135.037 116.237 133.565 117.219 131.688L119.779 133.16C119.011 134.696 117.987 136.019 116.707 137.128C115.427 138.195 113.955 139.027 112.291 139.624C110.627 140.221 108.792 140.52 106.787 140.52ZM142.284 107.24C144.46 107.24 146.401 107.581 148.108 108.264C149.814 108.947 151.265 109.928 152.46 111.208C153.654 112.488 154.572 114.045 155.212 115.88L152.204 117.288C151.521 114.984 150.326 113.213 148.62 111.976C146.956 110.696 144.822 110.056 142.22 110.056C139.873 110.056 137.804 110.611 136.012 111.72C134.22 112.787 132.833 114.365 131.852 116.456C130.87 118.504 130.38 120.979 130.38 123.88C130.38 126.739 130.87 129.213 131.852 131.304C132.833 133.395 134.198 134.995 135.948 136.104C137.697 137.171 139.766 137.704 142.156 137.704C143.948 137.704 145.569 137.405 147.02 136.808C148.513 136.211 149.729 135.336 150.668 134.184C151.649 133.032 152.289 131.667 152.588 130.088L155.532 131.112C154.977 133.075 154.06 134.76 152.78 136.168C151.542 137.576 150.028 138.664 148.236 139.432C146.444 140.157 144.438 140.52 142.22 140.52C139.318 140.52 136.716 139.859 134.412 138.536C132.15 137.213 130.38 135.315 129.1 132.84C127.82 130.323 127.18 127.336 127.18 123.88C127.18 120.424 127.82 117.459 129.1 114.984C130.422 112.467 132.214 110.547 134.476 109.224C136.78 107.901 139.382 107.24 142.284 107.24ZM169.418 98.984V131.432C169.418 133.437 169.887 134.973 170.826 136.04C171.807 137.064 173.215 137.576 175.05 137.576C176.244 137.576 177.29 137.384 178.186 137C179.124 136.573 179.956 135.976 180.682 135.208L181.898 137.832C181.087 138.643 180.063 139.304 178.826 139.816C177.588 140.285 176.202 140.52 174.666 140.52C173.002 140.52 171.53 140.221 170.25 139.624C168.97 138.984 167.967 138.024 167.242 136.744C166.559 135.464 166.218 133.843 166.218 131.88V99.88L169.418 98.984ZM181.386 107.88V110.632H159.818V107.88H181.386ZM189.831 101.672C189.02 101.672 188.359 101.437 187.847 100.968C187.377 100.456 187.143 99.7947 187.143 98.984C187.143 98.1733 187.377 97.5333 187.847 97.064C188.359 96.552 189.02 96.296 189.831 96.296C190.641 96.296 191.281 96.552 191.751 97.064C192.263 97.5333 192.519 98.1733 192.519 98.984C192.519 99.7947 192.263 100.456 191.751 100.968C191.281 101.437 190.641 101.672 189.831 101.672ZM191.431 107.88V139.88H188.231V107.88H191.431ZM224.745 107.88H228.137L214.761 139.88H211.561L198.185 107.88H201.769L213.225 136.552L224.745 107.88ZM247.537 140.52C244.593 140.52 241.969 139.859 239.665 138.536C237.361 137.213 235.547 135.315 234.225 132.84C232.945 130.323 232.305 127.336 232.305 123.88C232.305 120.424 232.945 117.459 234.225 114.984C235.547 112.467 237.318 110.547 239.537 109.224C241.755 107.901 244.294 107.24 247.153 107.24C250.054 107.24 252.529 107.88 254.577 109.16C256.625 110.44 258.203 112.232 259.313 114.536C260.422 116.797 260.977 119.421 260.977 122.408C260.977 122.792 260.955 123.176 260.913 123.56C260.913 123.901 260.891 124.221 260.849 124.52H234.289V121.64H259.441L257.841 122.088C257.798 118.419 256.817 115.496 254.897 113.32C253.019 111.144 250.417 110.056 247.089 110.056C244.785 110.056 242.758 110.611 241.009 111.72C239.259 112.787 237.894 114.365 236.913 116.456C235.931 118.504 235.441 120.979 235.441 123.88C235.441 126.739 235.931 129.213 236.913 131.304C237.937 133.395 239.345 134.995 241.137 136.104C242.971 137.171 245.083 137.704 247.473 137.704C249.947 137.704 252.059 137.171 253.809 136.104C255.601 135.037 256.987 133.565 257.969 131.688L260.529 133.16C259.761 134.696 258.737 136.019 257.457 137.128C256.177 138.195 254.705 139.027 253.041 139.624C251.377 140.221 249.542 140.52 247.537 140.52ZM316.081 97.64L301.105 123.432V139.88H297.905V123.432L282.929 97.64H286.705L294.961 112.104L299.505 120.104L304.049 112.104L312.305 97.64H316.081ZM338.834 97C342.844 97 346.3 97.896 349.202 99.688C352.103 101.437 354.343 103.933 355.922 107.176C357.5 110.419 358.29 114.28 358.29 118.76C358.29 123.24 357.5 127.101 355.922 130.344C354.343 133.587 352.103 136.104 349.202 137.896C346.3 139.645 342.844 140.52 338.834 140.52C334.866 140.52 331.41 139.645 328.466 137.896C325.564 136.104 323.324 133.587 321.746 130.344C320.167 127.101 319.378 123.24 319.378 118.76C319.378 114.28 320.167 110.419 321.746 107.176C323.324 103.933 325.564 101.437 328.466 99.688C331.41 97.896 334.866 97 338.834 97ZM338.834 99.944C335.548 99.944 332.69 100.712 330.258 102.248C327.868 103.741 326.012 105.896 324.69 108.712C323.367 111.528 322.706 114.877 322.706 118.76C322.706 122.643 323.367 125.992 324.69 128.808C326.012 131.624 327.868 133.8 330.258 135.336C332.69 136.829 335.548 137.576 338.834 137.576C342.162 137.576 345.02 136.829 347.41 135.336C349.799 133.8 351.655 131.624 352.978 128.808C354.3 125.992 354.962 122.643 354.962 118.76C354.962 114.877 354.3 111.528 352.978 108.712C351.655 105.896 349.799 103.741 347.41 102.248C345.02 100.712 342.162 99.944 338.834 99.944ZM385.645 140.52C381.677 140.52 378.242 139.645 375.341 137.896C372.439 136.104 370.199 133.587 368.621 130.344C367.042 127.101 366.253 123.24 366.253 118.76C366.253 114.28 367.063 110.419 368.685 107.176C370.349 103.933 372.631 101.437 375.533 99.688C378.477 97.896 381.869 97 385.709 97C390.018 97 393.495 97.8533 396.141 99.56C398.829 101.267 400.855 103.869 402.221 107.368L399.277 108.904C398.295 105.96 396.674 103.741 394.413 102.248C392.151 100.712 389.25 99.944 385.709 99.944C382.509 99.944 379.693 100.712 377.261 102.248C374.871 103.741 372.994 105.896 371.629 108.712C370.263 111.528 369.581 114.877 369.581 118.76C369.581 122.643 370.221 125.992 371.501 128.808C372.781 131.624 374.615 133.8 377.005 135.336C379.437 136.829 382.359 137.576 385.773 137.576C388.119 137.576 390.146 137.213 391.853 136.488C393.602 135.72 395.031 134.739 396.141 133.544C397.293 132.307 398.146 130.92 398.701 129.384C399.255 127.805 399.533 126.205 399.533 124.584V122.216H385.197V119.208H402.541V139.88H399.917L399.789 130.728L400.365 130.856C399.341 133.843 397.57 136.211 395.053 137.96C392.578 139.667 389.442 140.52 385.645 140.52ZM445.944 139.88H442.552L437.24 126.632H417.08L411.768 139.88H408.376L425.272 97.64H429.048L445.944 139.88ZM418.232 123.688H436.088L427.128 100.776L418.232 123.688Z" fill="#1E293B"/>
<path d="M56.8728 180.76C60.2435 180.76 62.8355 181.656 64.6488 183.448C66.4835 185.219 67.4008 187.789 67.4008 191.16C67.4008 194.637 66.4835 197.293 64.6488 199.128C62.8355 200.963 60.2435 201.88 56.8728 201.88H50.2168V180.76H56.8728ZM57.0008 200.408C59.8168 200.408 61.9715 199.608 63.4648 198.008C64.9795 196.408 65.7368 194.125 65.7368 191.16C65.7368 188.301 64.9795 186.104 63.4648 184.568C61.9715 183.011 59.8168 182.232 57.0008 182.232H51.8168V200.408H57.0008ZM78.7648 185.56C80.2581 185.56 81.5701 185.891 82.7008 186.552C83.8528 187.213 84.7488 188.173 85.3888 189.432C86.0501 190.669 86.3808 192.152 86.3808 193.88C86.3808 195.608 86.0501 197.101 85.3888 198.36C84.7488 199.597 83.8528 200.547 82.7008 201.208C81.5701 201.869 80.2581 202.2 78.7648 202.2C77.2715 202.2 75.9488 201.869 74.7968 201.208C73.6661 200.547 72.7701 199.597 72.1088 198.36C71.4688 197.101 71.1488 195.608 71.1488 193.88C71.1488 192.152 71.4688 190.669 72.1088 189.432C72.7701 188.173 73.6661 187.213 74.7968 186.552C75.9488 185.891 77.2715 185.56 78.7648 185.56ZM78.7648 186.936C77.5488 186.936 76.4928 187.213 75.5968 187.768C74.7008 188.323 73.9968 189.123 73.4848 190.168C72.9941 191.192 72.7488 192.429 72.7488 193.88C72.7488 195.309 72.9941 196.547 73.4848 197.592C73.9968 198.637 74.7008 199.437 75.5968 199.992C76.4928 200.547 77.5488 200.824 78.7648 200.824C79.9808 200.824 81.0368 200.547 81.9328 199.992C82.8288 199.437 83.5221 198.637 84.0128 197.592C84.5248 196.547 84.7808 195.309 84.7808 193.88C84.7808 192.429 84.5248 191.192 84.0128 190.168C83.5221 189.123 82.8288 188.323 81.9328 187.768C81.0368 187.213 79.9808 186.936 78.7648 186.936ZM112.782 185.88L105.038 204.824C104.654 205.805 104.238 206.584 103.79 207.16C103.342 207.736 102.841 208.141 102.286 208.376C101.732 208.632 101.092 208.76 100.366 208.76C99.7263 208.76 99.1396 208.664 98.6063 208.472C98.073 208.28 97.6356 208.013 97.2943 207.672L97.8063 206.296C98.1263 206.68 98.5103 206.947 98.9583 207.096C99.4063 207.267 99.865 207.352 100.334 207.352C101.017 207.352 101.625 207.149 102.158 206.744C102.692 206.36 103.193 205.592 103.662 204.44L104.718 201.88L103.022 197.912L97.9663 185.88H99.7903L104.686 198.008L105.486 200.152L106.35 197.848L111.054 185.88H112.782ZM122.484 185.56C123.977 185.56 125.289 185.891 126.42 186.552C127.572 187.213 128.468 188.173 129.108 189.432C129.769 190.669 130.1 192.152 130.1 193.88C130.1 195.608 129.769 197.101 129.108 198.36C128.468 199.597 127.572 200.547 126.42 201.208C125.289 201.869 123.977 202.2 122.484 202.2C120.99 202.2 119.668 201.869 118.516 201.208C117.385 200.547 116.489 199.597 115.828 198.36C115.188 197.101 114.868 195.608 114.868 193.88C114.868 192.152 115.188 190.669 115.828 189.432C116.489 188.173 117.385 187.213 118.516 186.552C119.668 185.891 120.99 185.56 122.484 185.56ZM122.484 186.936C121.268 186.936 120.212 187.213 119.316 187.768C118.42 188.323 117.716 189.123 117.204 190.168C116.713 191.192 116.468 192.429 116.468 193.88C116.468 195.309 116.713 196.547 117.204 197.592C117.716 198.637 118.42 199.437 119.316 199.992C120.212 200.547 121.268 200.824 122.484 200.824C123.7 200.824 124.756 200.547 125.652 199.992C126.548 199.437 127.241 198.637 127.732 197.592C128.244 196.547 128.5 195.309 128.5 193.88C128.5 192.429 128.244 191.192 127.732 190.168C127.241 189.123 126.548 188.323 125.652 187.768C124.756 187.213 123.7 186.936 122.484 186.936ZM147.922 182.936L148.306 184.344C148.285 184.344 148.264 184.344 148.242 184.344C148.221 184.344 148.189 184.344 148.146 184.344C147.101 184.344 146.29 184.621 145.714 185.176C145.16 185.709 144.882 186.467 144.882 187.448L143.858 186.936C143.858 186.125 144.029 185.421 144.37 184.824C144.712 184.227 145.181 183.768 145.778 183.448C146.376 183.107 147.048 182.936 147.794 182.936C147.837 182.936 147.858 182.936 147.858 182.936C147.88 182.936 147.901 182.936 147.922 182.936ZM142.866 200.248C144.445 200.248 145.682 200.579 146.578 201.24C147.474 201.901 147.922 202.787 147.922 203.896C147.922 204.877 147.592 205.731 146.93 206.456C146.29 207.181 145.405 207.747 144.274 208.152C143.144 208.557 141.853 208.76 140.402 208.76C137.992 208.76 136.146 208.344 134.866 207.512C133.586 206.701 132.946 205.677 132.946 204.44C132.946 203.544 133.266 202.765 133.906 202.104C134.568 201.443 135.528 201.048 136.786 200.92L136.658 201.208C135.976 201.016 135.368 200.696 134.834 200.248C134.322 199.8 134.066 199.16 134.066 198.328C134.066 197.432 134.397 196.707 135.058 196.152C135.741 195.576 136.637 195.245 137.746 195.16L139.442 195.736H138.77C137.789 195.8 137 196.045 136.402 196.472C135.826 196.877 135.538 197.411 135.538 198.072C135.538 198.797 135.816 199.341 136.37 199.704C136.946 200.067 137.672 200.248 138.546 200.248H142.866ZM140.402 207.416C141.661 207.416 142.738 207.267 143.634 206.968C144.53 206.669 145.213 206.264 145.682 205.752C146.173 205.261 146.418 204.707 146.418 204.088C146.418 203.341 146.088 202.744 145.426 202.296C144.786 201.848 143.805 201.624 142.482 201.624H137.938C136.936 201.624 136.104 201.859 135.442 202.328C134.781 202.797 134.45 203.427 134.45 204.216C134.45 205.176 134.973 205.944 136.018 206.52C137.085 207.117 138.546 207.416 140.402 207.416ZM140.178 185.56C141.437 185.56 142.546 185.784 143.506 186.232C144.488 186.659 145.245 187.267 145.778 188.056C146.312 188.824 146.578 189.731 146.578 190.776C146.578 191.8 146.312 192.717 145.778 193.528C145.245 194.317 144.488 194.936 143.506 195.384C142.546 195.811 141.437 196.024 140.178 196.024C138.152 196.024 136.562 195.544 135.41 194.584C134.28 193.603 133.714 192.333 133.714 190.776C133.714 189.731 133.981 188.824 134.514 188.056C135.069 187.267 135.826 186.659 136.786 186.232C137.768 185.784 138.898 185.56 140.178 185.56ZM140.178 186.872C138.77 186.872 137.618 187.235 136.722 187.96C135.826 188.664 135.378 189.603 135.378 190.776C135.378 191.949 135.826 192.899 136.722 193.624C137.618 194.349 138.77 194.712 140.178 194.712C141.586 194.712 142.728 194.349 143.602 193.624C144.498 192.899 144.946 191.949 144.946 190.776C144.946 189.603 144.498 188.664 143.602 187.96C142.728 187.235 141.586 186.872 140.178 186.872ZM160.935 191.352C160.935 189.965 160.562 188.888 159.815 188.12C159.068 187.352 158.002 186.968 156.615 186.968C155.399 186.968 154.354 187.235 153.479 187.768C152.604 188.28 151.954 189.144 151.527 190.36L150.215 189.528C150.684 188.269 151.463 187.299 152.551 186.616C153.66 185.912 155.026 185.56 156.647 185.56C157.82 185.56 158.844 185.773 159.719 186.2C160.615 186.605 161.308 187.213 161.799 188.024C162.29 188.835 162.535 189.848 162.535 191.064V199.064C162.535 200.195 163.047 200.76 164.071 200.76C164.519 200.76 164.903 200.685 165.223 200.536L165.127 201.816C164.764 202.008 164.295 202.104 163.719 202.104C163.228 202.104 162.77 202.008 162.343 201.816C161.916 201.624 161.564 201.304 161.287 200.856C161.031 200.408 160.903 199.8 160.903 199.032V198.168L161.351 198.136C161.159 199.053 160.732 199.821 160.071 200.44C159.431 201.037 158.684 201.485 157.831 201.784C156.978 202.061 156.124 202.2 155.271 202.2C154.268 202.2 153.372 202.04 152.583 201.72C151.794 201.4 151.175 200.941 150.727 200.344C150.279 199.725 150.055 198.968 150.055 198.072C150.055 196.877 150.45 195.917 151.239 195.192C152.05 194.445 153.18 193.933 154.631 193.656L161.255 192.344V193.688L155.431 194.84C154.172 195.096 153.234 195.469 152.615 195.96C151.996 196.451 151.687 197.123 151.687 197.976C151.687 198.851 152.018 199.544 152.679 200.056C153.34 200.547 154.279 200.792 155.495 200.792C156.114 200.792 156.743 200.707 157.383 200.536C158.023 200.365 158.61 200.099 159.143 199.736C159.698 199.352 160.135 198.883 160.455 198.328C160.775 197.752 160.935 197.059 160.935 196.248V191.352ZM179.768 181.432V197.656C179.768 198.659 180.002 199.427 180.472 199.96C180.962 200.472 181.666 200.728 182.584 200.728C183.181 200.728 183.704 200.632 184.152 200.44C184.621 200.227 185.037 199.928 185.4 199.544L186.008 200.856C185.602 201.261 185.09 201.592 184.472 201.848C183.853 202.083 183.16 202.2 182.392 202.2C181.56 202.2 180.824 202.051 180.184 201.752C179.544 201.432 179.042 200.952 178.68 200.312C178.338 199.672 178.168 198.861 178.168 197.88V181.88L179.768 181.432ZM185.752 185.88V187.256H174.968V185.88H185.752ZM195.702 185.56C197.196 185.56 198.508 185.891 199.638 186.552C200.79 187.213 201.686 188.173 202.326 189.432C202.988 190.669 203.318 192.152 203.318 193.88C203.318 195.608 202.988 197.101 202.326 198.36C201.686 199.597 200.79 200.547 199.638 201.208C198.508 201.869 197.196 202.2 195.702 202.2C194.209 202.2 192.886 201.869 191.734 201.208C190.604 200.547 189.708 199.597 189.046 198.36C188.406 197.101 188.086 195.608 188.086 193.88C188.086 192.152 188.406 190.669 189.046 189.432C189.708 188.173 190.604 187.213 191.734 186.552C192.886 185.891 194.209 185.56 195.702 185.56ZM195.702 186.936C194.486 186.936 193.43 187.213 192.534 187.768C191.638 188.323 190.934 189.123 190.422 190.168C189.932 191.192 189.686 192.429 189.686 193.88C189.686 195.309 189.932 196.547 190.422 197.592C190.934 198.637 191.638 199.437 192.534 199.992C193.43 200.547 194.486 200.824 195.702 200.824C196.918 200.824 197.974 200.547 198.87 199.992C199.766 199.437 200.46 198.637 200.95 197.592C201.462 196.547 201.718 195.309 201.718 193.88C201.718 192.429 201.462 191.192 200.95 190.168C200.46 189.123 199.766 188.323 198.87 187.768C197.974 187.213 196.918 186.936 195.702 186.936ZM214.133 202.2C212.746 202.2 211.498 201.869 210.389 201.208C209.28 200.547 208.405 199.597 207.765 198.36C207.146 197.101 206.837 195.608 206.837 193.88C206.837 192.109 207.168 190.605 207.829 189.368C208.49 188.131 209.386 187.192 210.517 186.552C211.648 185.891 212.896 185.56 214.261 185.56C215.754 185.56 217.024 185.955 218.069 186.744C219.136 187.533 219.85 188.632 220.213 190.04L220.021 190.168V178.52H221.621V201.88H220.181L220.085 197.432L220.277 197.368C220.085 198.392 219.69 199.267 219.093 199.992C218.517 200.717 217.792 201.272 216.917 201.656C216.064 202.019 215.136 202.2 214.133 202.2ZM214.325 200.792C215.456 200.792 216.448 200.515 217.301 199.96C218.154 199.384 218.816 198.563 219.285 197.496C219.776 196.429 220.021 195.181 220.021 193.752C220.021 192.344 219.776 191.139 219.285 190.136C218.816 189.112 218.154 188.333 217.301 187.8C216.469 187.245 215.498 186.968 214.389 186.968C212.554 186.968 211.104 187.587 210.037 188.824C208.97 190.061 208.437 191.747 208.437 193.88C208.437 196.013 208.96 197.699 210.005 198.936C211.072 200.173 212.512 200.792 214.325 200.792ZM237.123 191.352C237.123 189.965 236.749 188.888 236.003 188.12C235.256 187.352 234.189 186.968 232.803 186.968C231.587 186.968 230.541 187.235 229.667 187.768C228.792 188.28 228.141 189.144 227.715 190.36L226.403 189.528C226.872 188.269 227.651 187.299 228.739 186.616C229.848 185.912 231.213 185.56 232.835 185.56C234.008 185.56 235.032 185.773 235.907 186.2C236.803 186.605 237.496 187.213 237.987 188.024C238.477 188.835 238.723 189.848 238.723 191.064V199.064C238.723 200.195 239.235 200.76 240.259 200.76C240.707 200.76 241.091 200.685 241.411 200.536L241.315 201.816C240.952 202.008 240.483 202.104 239.907 202.104C239.416 202.104 238.957 202.008 238.531 201.816C238.104 201.624 237.752 201.304 237.475 200.856C237.219 200.408 237.091 199.8 237.091 199.032V198.168L237.539 198.136C237.347 199.053 236.92 199.821 236.259 200.44C235.619 201.037 234.872 201.485 234.019 201.784C233.165 202.061 232.312 202.2 231.459 202.2C230.456 202.2 229.56 202.04 228.771 201.72C227.981 201.4 227.363 200.941 226.915 200.344C226.467 199.725 226.243 198.968 226.243 198.072C226.243 196.877 226.637 195.917 227.427 195.192C228.237 194.445 229.368 193.933 230.819 193.656L237.443 192.344V193.688L231.619 194.84C230.36 195.096 229.421 195.469 228.803 195.96C228.184 196.451 227.875 197.123 227.875 197.976C227.875 198.851 228.205 199.544 228.867 200.056C229.528 200.547 230.467 200.792 231.683 200.792C232.301 200.792 232.931 200.707 233.571 200.536C234.211 200.365 234.797 200.099 235.331 199.736C235.885 199.352 236.323 198.883 236.643 198.328C236.963 197.752 237.123 197.059 237.123 196.248V191.352ZM256.564 185.88L248.82 204.824C248.436 205.805 248.02 206.584 247.572 207.16C247.124 207.736 246.622 208.141 246.068 208.376C245.513 208.632 244.873 208.76 244.148 208.76C243.508 208.76 242.921 208.664 242.388 208.472C241.854 208.28 241.417 208.013 241.076 207.672L241.588 206.296C241.908 206.68 242.292 206.947 242.74 207.096C243.188 207.267 243.646 207.352 244.116 207.352C244.798 207.352 245.406 207.149 245.94 206.744C246.473 206.36 246.974 205.592 247.444 204.44L248.5 201.88L246.804 197.912L241.748 185.88H243.572L248.468 198.008L249.268 200.152L250.132 197.848L254.836 185.88H256.564ZM274.437 178.36C275.013 178.36 275.525 178.435 275.973 178.584C276.421 178.733 276.773 178.947 277.029 179.224L276.581 180.504C276.303 180.248 276.005 180.067 275.685 179.96C275.365 179.853 274.991 179.8 274.565 179.8C273.519 179.8 272.709 180.099 272.133 180.696C271.557 181.293 271.269 182.179 271.269 183.352V185.88V186.456V201.88H269.669V183.192C269.669 182.467 269.765 181.805 269.957 181.208C270.17 180.611 270.479 180.109 270.885 179.704C271.29 179.277 271.791 178.947 272.389 178.712C272.986 178.477 273.669 178.36 274.437 178.36ZM276.901 185.88V187.256H266.469V185.88H276.901ZM285.921 185.56C287.414 185.56 288.726 185.891 289.857 186.552C291.009 187.213 291.905 188.173 292.545 189.432C293.206 190.669 293.537 192.152 293.537 193.88C293.537 195.608 293.206 197.101 292.545 198.36C291.905 199.597 291.009 200.547 289.857 201.208C288.726 201.869 287.414 202.2 285.921 202.2C284.428 202.2 283.105 201.869 281.953 201.208C280.822 200.547 279.926 199.597 279.265 198.36C278.625 197.101 278.305 195.608 278.305 193.88C278.305 192.152 278.625 190.669 279.265 189.432C279.926 188.173 280.822 187.213 281.953 186.552C283.105 185.891 284.428 185.56 285.921 185.56ZM285.921 186.936C284.705 186.936 283.649 187.213 282.753 187.768C281.857 188.323 281.153 189.123 280.641 190.168C280.15 191.192 279.905 192.429 279.905 193.88C279.905 195.309 280.15 196.547 280.641 197.592C281.153 198.637 281.857 199.437 282.753 199.992C283.649 200.547 284.705 200.824 285.921 200.824C287.137 200.824 288.193 200.547 289.089 199.992C289.985 199.437 290.678 198.637 291.169 197.592C291.681 196.547 291.937 195.309 291.937 193.88C291.937 192.429 291.681 191.192 291.169 190.168C290.678 189.123 289.985 188.323 289.089 187.768C288.193 187.213 287.137 186.936 285.921 186.936ZM298.112 201.88V185.88H299.456L299.648 189.24C300.053 188.109 300.704 187.213 301.6 186.552C302.496 185.891 303.573 185.56 304.832 185.56C305.258 185.56 305.642 185.603 305.984 185.688C306.325 185.773 306.602 185.912 306.816 186.104L306.464 187.512C306.229 187.363 305.973 187.245 305.696 187.16C305.418 187.075 305.002 187.032 304.448 187.032C303.637 187.032 302.869 187.288 302.144 187.8C301.418 188.291 300.832 188.984 300.384 189.88C299.936 190.755 299.712 191.768 299.712 192.92V201.88H298.112ZM326.976 202.2C325.994 202.2 325.077 202.019 324.224 201.656C323.392 201.293 322.677 200.771 322.08 200.088C321.504 199.405 321.077 198.605 320.8 197.688L321.024 197.432L320.896 201.88H319.456V178.52H321.056V190.168L320.864 189.88C321.29 188.557 322.048 187.512 323.136 186.744C324.245 185.955 325.525 185.56 326.976 185.56C328.384 185.56 329.632 185.891 330.72 186.552C331.808 187.213 332.672 188.163 333.312 189.4C333.952 190.637 334.272 192.131 334.272 193.88C334.272 195.608 333.952 197.101 333.312 198.36C332.672 199.597 331.797 200.547 330.688 201.208C329.6 201.869 328.362 202.2 326.976 202.2ZM326.784 200.792C328.597 200.792 330.026 200.173 331.072 198.936C332.138 197.699 332.672 196.013 332.672 193.88C332.672 191.747 332.149 190.061 331.104 188.824C330.058 187.587 328.629 186.968 326.816 186.968C325.706 186.968 324.714 187.256 323.84 187.832C322.965 188.387 322.282 189.187 321.792 190.232C321.301 191.277 321.056 192.504 321.056 193.912C321.056 195.32 321.301 196.547 321.792 197.592C322.282 198.616 322.954 199.405 323.808 199.96C324.682 200.515 325.674 200.792 326.784 200.792ZM345.421 202.2C343.949 202.2 342.637 201.869 341.485 201.208C340.333 200.547 339.426 199.597 338.765 198.36C338.125 197.101 337.805 195.608 337.805 193.88C337.805 192.152 338.125 190.669 338.765 189.432C339.426 188.173 340.312 187.213 341.421 186.552C342.53 185.891 343.8 185.56 345.229 185.56C346.68 185.56 347.917 185.88 348.941 186.52C349.965 187.16 350.754 188.056 351.309 189.208C351.864 190.339 352.141 191.651 352.141 193.144C352.141 193.336 352.13 193.528 352.109 193.72C352.109 193.891 352.098 194.051 352.077 194.2H338.797V192.76H351.373L350.573 192.984C350.552 191.149 350.061 189.688 349.101 188.6C348.162 187.512 346.861 186.968 345.197 186.968C344.045 186.968 343.032 187.245 342.157 187.8C341.282 188.333 340.6 189.123 340.109 190.168C339.618 191.192 339.373 192.429 339.373 193.88C339.373 195.309 339.618 196.547 340.109 197.592C340.621 198.637 341.325 199.437 342.221 199.992C343.138 200.525 344.194 200.792 345.389 200.792C346.626 200.792 347.682 200.525 348.557 199.992C349.453 199.459 350.146 198.723 350.637 197.784L351.917 198.52C351.533 199.288 351.021 199.949 350.381 200.504C349.741 201.037 349.005 201.453 348.173 201.752C347.341 202.051 346.424 202.2 345.421 202.2ZM359.018 181.432V197.656C359.018 198.659 359.252 199.427 359.722 199.96C360.212 200.472 360.916 200.728 361.834 200.728C362.431 200.728 362.954 200.632 363.402 200.44C363.871 200.227 364.287 199.928 364.65 199.544L365.258 200.856C364.852 201.261 364.34 201.592 363.722 201.848C363.103 202.083 362.41 202.2 361.642 202.2C360.81 202.2 360.074 202.051 359.434 201.752C358.794 201.432 358.292 200.952 357.93 200.312C357.588 199.672 357.418 198.861 357.418 197.88V181.88L359.018 181.432ZM365.002 185.88V187.256H354.218V185.88H365.002ZM369.987 181.432V197.656C369.987 198.659 370.221 199.427 370.691 199.96C371.181 200.472 371.885 200.728 372.803 200.728C373.4 200.728 373.923 200.632 374.371 200.44C374.84 200.227 375.256 199.928 375.619 199.544L376.227 200.856C375.821 201.261 375.309 201.592 374.691 201.848C374.072 202.083 373.379 202.2 372.611 202.2C371.779 202.2 371.043 202.051 370.403 201.752C369.763 201.432 369.261 200.952 368.899 200.312C368.557 199.672 368.387 198.861 368.387 197.88V181.88L369.987 181.432ZM375.971 185.88V187.256H365.187V185.88H375.971ZM385.921 202.2C384.449 202.2 383.137 201.869 381.985 201.208C380.833 200.547 379.926 199.597 379.265 198.36C378.625 197.101 378.305 195.608 378.305 193.88C378.305 192.152 378.625 190.669 379.265 189.432C379.926 188.173 380.812 187.213 381.921 186.552C383.03 185.891 384.3 185.56 385.729 185.56C387.18 185.56 388.417 185.88 389.441 186.52C390.465 187.16 391.254 188.056 391.809 189.208C392.364 190.339 392.641 191.651 392.641 193.144C392.641 193.336 392.63 193.528 392.609 193.72C392.609 193.891 392.598 194.051 392.577 194.2H379.297V192.76H391.873L391.073 192.984C391.052 191.149 390.561 189.688 389.601 188.6C388.662 187.512 387.361 186.968 385.697 186.968C384.545 186.968 383.532 187.245 382.657 187.8C381.782 188.333 381.1 189.123 380.609 190.168C380.118 191.192 379.873 192.429 379.873 193.88C379.873 195.309 380.118 196.547 380.609 197.592C381.121 198.637 381.825 199.437 382.721 199.992C383.638 200.525 384.694 200.792 385.889 200.792C387.126 200.792 388.182 200.525 389.057 199.992C389.953 199.459 390.646 198.723 391.137 197.784L392.417 198.52C392.033 199.288 391.521 199.949 390.881 200.504C390.241 201.037 389.505 201.453 388.673 201.752C387.841 202.051 386.924 202.2 385.921 202.2ZM397.206 201.88V185.88H398.55L398.742 189.24C399.147 188.109 399.798 187.213 400.694 186.552C401.59 185.891 402.667 185.56 403.926 185.56C404.352 185.56 404.736 185.603 405.078 185.688C405.419 185.773 405.696 185.912 405.91 186.104L405.558 187.512C405.323 187.363 405.067 187.245 404.79 187.16C404.512 187.075 404.096 187.032 403.542 187.032C402.731 187.032 401.963 187.288 401.238 187.8C400.512 188.291 399.926 188.984 399.478 189.88C399.03 190.755 398.806 191.768 398.806 192.92V201.88H397.206Z" fill="#64748B"/>
<path d="M158.252 219.432V235.656C158.252 236.659 158.487 237.427 158.956 237.96C159.447 238.472 160.151 238.728 161.068 238.728C161.666 238.728 162.188 238.632 162.636 238.44C163.106 238.227 163.522 237.928 163.884 237.544L164.492 238.856C164.087 239.261 163.575 239.592 162.956 239.848C162.338 240.083 161.644 240.2 160.876 240.2C160.044 240.2 159.308 240.051 158.668 239.752C158.028 239.432 157.527 238.952 157.164 238.312C156.823 237.672 156.652 236.861 156.652 235.88V219.88L158.252 219.432ZM164.236 223.88V225.256H153.452V223.88H164.236ZM174.187 223.56C175.68 223.56 176.992 223.891 178.123 224.552C179.275 225.213 180.171 226.173 180.811 227.432C181.472 228.669 181.803 230.152 181.803 231.88C181.803 233.608 181.472 235.101 180.811 236.36C180.171 237.597 179.275 238.547 178.123 239.208C176.992 239.869 175.68 240.2 174.187 240.2C172.693 240.2 171.371 239.869 170.219 239.208C169.088 238.547 168.192 237.597 167.531 236.36C166.891 235.101 166.571 233.608 166.571 231.88C166.571 230.152 166.891 228.669 167.531 227.432C168.192 226.173 169.088 225.213 170.219 224.552C171.371 223.891 172.693 223.56 174.187 223.56ZM174.187 224.936C172.971 224.936 171.915 225.213 171.019 225.768C170.123 226.323 169.419 227.123 168.907 228.168C168.416 229.192 168.171 230.429 168.171 231.88C168.171 233.309 168.416 234.547 168.907 235.592C169.419 236.637 170.123 237.437 171.019 237.992C171.915 238.547 172.971 238.824 174.187 238.824C175.403 238.824 176.459 238.547 177.355 237.992C178.251 237.437 178.944 236.637 179.435 235.592C179.947 234.547 180.203 233.309 180.203 231.88C180.203 230.429 179.947 229.192 179.435 228.168C178.944 227.123 178.251 226.323 177.355 225.768C176.459 225.213 175.403 224.936 174.187 224.936ZM186.377 239.88V223.88H187.817L187.913 227.208C188.383 226.056 189.14 225.16 190.185 224.52C191.252 223.88 192.436 223.56 193.737 223.56C195.124 223.56 196.319 223.891 197.321 224.552C198.345 225.213 199.049 226.184 199.433 227.464C199.711 226.653 200.159 225.96 200.777 225.384C201.396 224.787 202.121 224.328 202.953 224.008C203.785 223.688 204.649 223.528 205.545 223.528C206.655 223.528 207.657 223.752 208.553 224.2C209.471 224.627 210.196 225.288 210.729 226.184C211.284 227.059 211.561 228.157 211.561 229.48V239.848H209.961V229.64C209.961 228.061 209.535 226.888 208.681 226.12C207.849 225.331 206.74 224.936 205.353 224.936C204.351 224.936 203.423 225.181 202.569 225.672C201.716 226.141 201.033 226.813 200.521 227.688C200.031 228.541 199.785 229.533 199.785 230.664V239.88H198.185V229.672C198.185 228.093 197.759 226.92 196.905 226.152C196.052 225.363 194.943 224.968 193.577 224.968C192.617 224.968 191.711 225.203 190.857 225.672C190.004 226.141 189.311 226.813 188.777 227.688C188.244 228.563 187.977 229.608 187.977 230.824V239.88H186.377ZM223.624 223.56C225.118 223.56 226.43 223.891 227.56 224.552C228.712 225.213 229.608 226.173 230.248 227.432C230.91 228.669 231.24 230.152 231.24 231.88C231.24 233.608 230.91 235.101 230.248 236.36C229.608 237.597 228.712 238.547 227.56 239.208C226.43 239.869 225.118 240.2 223.624 240.2C222.131 240.2 220.808 239.869 219.656 239.208C218.526 238.547 217.63 237.597 216.968 236.36C216.328 235.101 216.008 233.608 216.008 231.88C216.008 230.152 216.328 228.669 216.968 227.432C217.63 226.173 218.526 225.213 219.656 224.552C220.808 223.891 222.131 223.56 223.624 223.56ZM223.624 224.936C222.408 224.936 221.352 225.213 220.456 225.768C219.56 226.323 218.856 227.123 218.344 228.168C217.854 229.192 217.608 230.429 217.608 231.88C217.608 233.309 217.854 234.547 218.344 235.592C218.856 236.637 219.56 237.437 220.456 237.992C221.352 238.547 222.408 238.824 223.624 238.824C224.84 238.824 225.896 238.547 226.792 237.992C227.688 237.437 228.382 236.637 228.872 235.592C229.384 234.547 229.64 233.309 229.64 231.88C229.64 230.429 229.384 229.192 228.872 228.168C228.382 227.123 227.688 226.323 226.792 225.768C225.896 225.213 224.84 224.936 223.624 224.936ZM235.815 239.88V223.88H237.159L237.351 227.24C237.756 226.109 238.407 225.213 239.303 224.552C240.199 223.891 241.276 223.56 242.535 223.56C242.962 223.56 243.346 223.603 243.687 223.688C244.028 223.773 244.306 223.912 244.519 224.104L244.167 225.512C243.932 225.363 243.676 225.245 243.399 225.16C243.122 225.075 242.706 225.032 242.151 225.032C241.34 225.032 240.572 225.288 239.847 225.8C239.122 226.291 238.535 226.984 238.087 227.88C237.639 228.755 237.415 229.768 237.415 230.92V239.88H235.815ZM247.909 239.88V223.88H249.253L249.445 227.24C249.85 226.109 250.501 225.213 251.397 224.552C252.293 223.891 253.37 223.56 254.629 223.56C255.055 223.56 255.439 223.603 255.781 223.688C256.122 223.773 256.399 223.912 256.613 224.104L256.261 225.512C256.026 225.363 255.77 225.245 255.493 225.16C255.215 225.075 254.799 225.032 254.245 225.032C253.434 225.032 252.666 225.288 251.941 225.8C251.215 226.291 250.629 226.984 250.181 227.88C249.733 228.755 249.509 229.768 249.509 230.92V239.88H247.909ZM265.78 223.56C267.274 223.56 268.586 223.891 269.716 224.552C270.868 225.213 271.764 226.173 272.404 227.432C273.066 228.669 273.396 230.152 273.396 231.88C273.396 233.608 273.066 235.101 272.404 236.36C271.764 237.597 270.868 238.547 269.716 239.208C268.586 239.869 267.274 240.2 265.78 240.2C264.287 240.2 262.964 239.869 261.812 239.208C260.682 238.547 259.786 237.597 259.124 236.36C258.484 235.101 258.164 233.608 258.164 231.88C258.164 230.152 258.484 228.669 259.124 227.432C259.786 226.173 260.682 225.213 261.812 224.552C262.964 223.891 264.287 223.56 265.78 223.56ZM265.78 224.936C264.564 224.936 263.508 225.213 262.612 225.768C261.716 226.323 261.012 227.123 260.5 228.168C260.01 229.192 259.764 230.429 259.764 231.88C259.764 233.309 260.01 234.547 260.5 235.592C261.012 236.637 261.716 237.437 262.612 237.992C263.508 238.547 264.564 238.824 265.78 238.824C266.996 238.824 268.052 238.547 268.948 237.992C269.844 237.437 270.538 236.637 271.028 235.592C271.54 234.547 271.796 233.309 271.796 231.88C271.796 230.429 271.54 229.192 271.028 228.168C270.538 227.123 269.844 226.323 268.948 225.768C268.052 225.213 266.996 224.936 265.78 224.936ZM297.949 223.88H299.709L294.269 239.88H292.669L287.613 225.96L282.653 239.88H281.053L275.613 223.88H277.373L281.885 237.96L286.845 223.88H288.477L293.469 237.96L297.949 223.88Z" fill="#64748B"/>
<rect x="142.03" y="279.88" width="169" height="50.5" rx="25.25" fill="#D291BC"/>
<path d="M171.247 299.789V310.88H169.904V301.197H169.839L167.132 302.995V301.63L169.904 299.789H171.247ZM177.903 311.032C177.268 311.032 176.695 310.905 176.186 310.653C175.677 310.4 175.269 310.053 174.962 309.613C174.656 309.172 174.488 308.67 174.459 308.107H175.759C175.809 308.609 176.037 309.024 176.441 309.353C176.849 309.678 177.336 309.84 177.903 309.84C178.358 309.84 178.762 309.734 179.116 309.521C179.474 309.308 179.753 309.015 179.956 308.643C180.161 308.268 180.264 307.844 180.264 307.371C180.264 306.887 180.158 306.456 179.945 306.076C179.735 305.694 179.446 305.392 179.078 305.172C178.71 304.952 178.289 304.84 177.816 304.836C177.477 304.833 177.129 304.885 176.771 304.993C176.414 305.098 176.12 305.233 175.888 305.4L174.632 305.248L175.304 299.789H181.066V300.981H176.43L176.04 304.251H176.105C176.333 304.071 176.618 303.921 176.961 303.802C177.304 303.683 177.661 303.623 178.033 303.623C178.712 303.623 179.316 303.786 179.847 304.111C180.382 304.432 180.8 304.872 181.104 305.432C181.41 305.992 181.564 306.631 181.564 307.349C181.564 308.057 181.405 308.689 181.087 309.245C180.773 309.797 180.34 310.234 179.788 310.555C179.235 310.873 178.607 311.032 177.903 311.032ZM191.622 310.88H188.199V299.789H191.773C192.849 299.789 193.77 300.011 194.535 300.455C195.301 300.896 195.887 301.529 196.295 302.356C196.703 303.179 196.907 304.165 196.907 305.313C196.907 306.468 196.702 307.463 196.29 308.297C195.878 309.127 195.279 309.766 194.492 310.214C193.705 310.658 192.748 310.88 191.622 310.88ZM189.542 309.689H191.535C192.452 309.689 193.212 309.512 193.815 309.158C194.418 308.804 194.868 308.3 195.164 307.647C195.46 306.993 195.608 306.215 195.608 305.313C195.608 304.418 195.461 303.647 195.169 303C194.877 302.351 194.44 301.852 193.858 301.506C193.277 301.156 192.553 300.981 191.687 300.981H189.542V309.689ZM201.435 311.075C200.908 311.075 200.429 310.976 200 310.777C199.57 310.575 199.229 310.284 198.976 309.905C198.723 309.523 198.597 309.06 198.597 308.519C198.597 308.042 198.691 307.656 198.879 307.36C199.066 307.06 199.317 306.826 199.631 306.656C199.945 306.486 200.292 306.36 200.671 306.277C201.054 306.19 201.438 306.122 201.825 306.071C202.33 306.006 202.74 305.957 203.054 305.925C203.372 305.889 203.603 305.829 203.747 305.746C203.895 305.663 203.969 305.519 203.969 305.313V305.27C203.969 304.735 203.823 304.32 203.53 304.024C203.242 303.728 202.803 303.58 202.215 303.58C201.604 303.58 201.126 303.714 200.779 303.981C200.433 304.248 200.189 304.533 200.048 304.836L198.835 304.403C199.052 303.898 199.341 303.504 199.702 303.223C200.066 302.937 200.464 302.739 200.893 302.627C201.326 302.511 201.752 302.454 202.171 302.454C202.438 302.454 202.745 302.486 203.092 302.551C203.442 302.612 203.78 302.741 204.105 302.935C204.433 303.13 204.706 303.425 204.922 303.818C205.139 304.212 205.247 304.739 205.247 305.4V310.88H203.969V309.754H203.904C203.817 309.934 203.673 310.127 203.471 310.333C203.269 310.539 203 310.714 202.664 310.858C202.328 311.003 201.918 311.075 201.435 311.075ZM201.63 309.927C202.135 309.927 202.561 309.828 202.908 309.629C203.258 309.43 203.521 309.174 203.698 308.86C203.879 308.546 203.969 308.216 203.969 307.869V306.699C203.915 306.764 203.796 306.824 203.612 306.878C203.431 306.929 203.222 306.974 202.984 307.013C202.749 307.049 202.52 307.082 202.296 307.111C202.076 307.136 201.897 307.158 201.76 307.176C201.427 307.219 201.117 307.29 200.828 307.387C200.543 307.481 200.312 307.623 200.135 307.815C199.962 308.003 199.875 308.259 199.875 308.584C199.875 309.028 200.039 309.364 200.368 309.591C200.7 309.815 201.121 309.927 201.63 309.927ZM208.105 313.999C207.889 313.999 207.695 313.981 207.526 313.945C207.356 313.913 207.239 313.88 207.174 313.848L207.499 312.721C207.809 312.801 208.084 312.83 208.322 312.808C208.56 312.786 208.771 312.68 208.955 312.488C209.143 312.301 209.315 311.996 209.47 311.573L209.708 310.923L206.632 302.562H208.019L210.315 309.19H210.401L212.698 302.562H214.084L210.553 312.093C210.394 312.523 210.197 312.878 209.963 313.16C209.728 313.445 209.455 313.656 209.145 313.794C208.838 313.931 208.492 313.999 208.105 313.999ZM221.663 304.425L220.515 304.75C220.443 304.558 220.336 304.372 220.195 304.192C220.058 304.008 219.87 303.856 219.632 303.737C219.394 303.618 219.089 303.558 218.717 303.558C218.208 303.558 217.784 303.676 217.444 303.91C217.108 304.141 216.941 304.436 216.941 304.793C216.941 305.111 217.056 305.362 217.287 305.546C217.518 305.73 217.879 305.883 218.37 306.006L219.605 306.309C220.349 306.49 220.903 306.766 221.268 307.138C221.632 307.506 221.814 307.981 221.814 308.562C221.814 309.039 221.677 309.465 221.403 309.84C221.132 310.216 220.753 310.512 220.266 310.728C219.778 310.945 219.211 311.053 218.565 311.053C217.717 311.053 217.015 310.869 216.459 310.501C215.903 310.133 215.551 309.595 215.403 308.887L216.616 308.584C216.731 309.032 216.95 309.367 217.271 309.591C217.596 309.815 218.02 309.927 218.544 309.927C219.139 309.927 219.612 309.801 219.962 309.548C220.316 309.291 220.493 308.985 220.493 308.627C220.493 308.338 220.392 308.096 220.19 307.901C219.988 307.703 219.677 307.555 219.258 307.457L217.872 307.132C217.11 306.952 216.551 306.672 216.193 306.293C215.839 305.91 215.663 305.432 215.663 304.858C215.663 304.389 215.794 303.973 216.058 303.612C216.325 303.251 216.688 302.968 217.146 302.762C217.608 302.556 218.132 302.454 218.717 302.454C219.54 302.454 220.186 302.634 220.656 302.995C221.129 303.356 221.464 303.833 221.663 304.425ZM231.732 302.562V303.645H227.248V302.562H231.732ZM228.591 310.88V301.414C228.591 300.937 228.703 300.54 228.926 300.222C229.15 299.905 229.441 299.666 229.798 299.507C230.156 299.349 230.533 299.269 230.93 299.269C231.244 299.269 231.501 299.294 231.699 299.345C231.898 299.396 232.046 299.443 232.143 299.486L231.775 300.591C231.71 300.569 231.62 300.542 231.504 300.509C231.392 300.477 231.244 300.461 231.06 300.461C230.638 300.461 230.333 300.567 230.145 300.78C229.961 300.993 229.869 301.305 229.869 301.717V310.88H228.591ZM233.523 310.88V302.562H234.758V303.818H234.844C234.996 303.407 235.27 303.073 235.667 302.816C236.064 302.56 236.512 302.432 237.01 302.432C237.104 302.432 237.222 302.434 237.362 302.437C237.503 302.441 237.61 302.446 237.682 302.454V303.753C237.639 303.742 237.539 303.726 237.384 303.704C237.232 303.679 237.072 303.667 236.902 303.667C236.498 303.667 236.137 303.751 235.819 303.921C235.505 304.087 235.256 304.318 235.072 304.614C234.891 304.907 234.801 305.241 234.801 305.616V310.88H233.523ZM242.431 311.053C241.63 311.053 240.938 310.876 240.357 310.523C239.779 310.165 239.334 309.667 239.019 309.028C238.709 308.385 238.554 307.638 238.554 306.786C238.554 305.934 238.709 305.183 239.019 304.533C239.334 303.88 239.77 303.371 240.33 303.006C240.893 302.638 241.55 302.454 242.301 302.454C242.735 302.454 243.162 302.526 243.585 302.67C244.007 302.815 244.392 303.049 244.738 303.374C245.085 303.695 245.361 304.121 245.567 304.652C245.773 305.183 245.875 305.836 245.875 306.613V307.154H239.464V306.049H244.576C244.576 305.58 244.482 305.161 244.294 304.793C244.11 304.425 243.846 304.134 243.504 303.921C243.164 303.708 242.763 303.602 242.301 303.602C241.792 303.602 241.352 303.728 240.98 303.981C240.612 304.23 240.328 304.555 240.13 304.955C239.931 305.356 239.832 305.786 239.832 306.244V306.981C239.832 307.609 239.94 308.142 240.157 308.578C240.377 309.012 240.682 309.342 241.072 309.569C241.462 309.793 241.915 309.905 242.431 309.905C242.767 309.905 243.07 309.858 243.341 309.764C243.615 309.667 243.852 309.523 244.05 309.331C244.249 309.136 244.402 308.894 244.511 308.606L245.746 308.952C245.616 309.371 245.397 309.739 245.09 310.057C244.783 310.371 244.404 310.616 243.953 310.793C243.502 310.967 242.994 311.053 242.431 311.053ZM251.307 311.053C250.506 311.053 249.814 310.876 249.233 310.523C248.655 310.165 248.21 309.667 247.895 309.028C247.585 308.385 247.43 307.638 247.43 306.786C247.43 305.934 247.585 305.183 247.895 304.533C248.21 303.88 248.646 303.371 249.206 303.006C249.769 302.638 250.426 302.454 251.177 302.454C251.61 302.454 252.038 302.526 252.461 302.67C252.883 302.815 253.268 303.049 253.614 303.374C253.961 303.695 254.237 304.121 254.443 304.652C254.649 305.183 254.751 305.836 254.751 306.613V307.154H248.34V306.049H253.452C253.452 305.58 253.358 305.161 253.17 304.793C252.986 304.425 252.722 304.134 252.379 303.921C252.04 303.708 251.639 303.602 251.177 303.602C250.668 303.602 250.228 303.728 249.856 303.981C249.488 304.23 249.204 304.555 249.006 304.955C248.807 305.356 248.708 305.786 248.708 306.244V306.981C248.708 307.609 248.816 308.142 249.033 308.578C249.253 309.012 249.558 309.342 249.948 309.569C250.338 309.793 250.791 309.905 251.307 309.905C251.643 309.905 251.946 309.858 252.217 309.764C252.491 309.667 252.728 309.523 252.926 309.331C253.125 309.136 253.278 308.894 253.387 308.606L254.621 308.952C254.492 309.371 254.273 309.739 253.966 310.057C253.659 310.371 253.28 310.616 252.829 310.793C252.378 310.967 251.87 311.053 251.307 311.053ZM264.602 302.562V303.645H260.292V302.562H264.602ZM261.548 300.569H262.826V308.497C262.826 308.858 262.878 309.129 262.983 309.31C263.091 309.486 263.229 309.606 263.395 309.667C263.564 309.725 263.743 309.754 263.931 309.754C264.072 309.754 264.187 309.746 264.277 309.732C264.368 309.714 264.44 309.699 264.494 309.689L264.754 310.837C264.667 310.869 264.546 310.902 264.391 310.934C264.236 310.97 264.039 310.988 263.801 310.988C263.44 310.988 263.086 310.911 262.739 310.755C262.396 310.6 262.111 310.364 261.884 310.046C261.66 309.728 261.548 309.328 261.548 308.844V300.569ZM266.525 310.88V302.562H267.759V303.818H267.846C267.998 303.407 268.272 303.073 268.669 302.816C269.066 302.56 269.514 302.432 270.012 302.432C270.106 302.432 270.223 302.434 270.364 302.437C270.505 302.441 270.612 302.446 270.684 302.454V303.753C270.64 303.742 270.541 303.726 270.386 303.704C270.234 303.679 270.074 303.667 269.904 303.667C269.5 303.667 269.139 303.751 268.821 303.921C268.507 304.087 268.258 304.318 268.074 304.614C267.893 304.907 267.803 305.241 267.803 305.616V310.88H266.525ZM272.199 310.88V302.562H273.477V310.88H272.199ZM272.849 301.175C272.6 301.175 272.385 301.091 272.204 300.921C272.027 300.751 271.939 300.547 271.939 300.309C271.939 300.071 272.027 299.867 272.204 299.697C272.385 299.527 272.6 299.443 272.849 299.443C273.098 299.443 273.311 299.527 273.488 299.697C273.668 299.867 273.758 300.071 273.758 300.309C273.758 300.547 273.668 300.751 273.488 300.921C273.311 301.091 273.098 301.175 272.849 301.175ZM278.265 311.075C277.738 311.075 277.26 310.976 276.83 310.777C276.401 310.575 276.06 310.284 275.807 309.905C275.554 309.523 275.428 309.06 275.428 308.519C275.428 308.042 275.522 307.656 275.709 307.36C275.897 307.06 276.148 306.826 276.462 306.656C276.776 306.486 277.123 306.36 277.502 306.277C277.885 306.19 278.269 306.122 278.655 306.071C279.161 306.006 279.571 305.957 279.885 305.925C280.202 305.889 280.433 305.829 280.578 305.746C280.726 305.663 280.8 305.519 280.8 305.313V305.27C280.8 304.735 280.654 304.32 280.361 304.024C280.072 303.728 279.634 303.58 279.045 303.58C278.435 303.58 277.957 303.714 277.61 303.981C277.264 304.248 277.02 304.533 276.879 304.836L275.666 304.403C275.883 303.898 276.172 303.504 276.533 303.223C276.897 302.937 277.294 302.739 277.724 302.627C278.157 302.511 278.583 302.454 279.002 302.454C279.269 302.454 279.576 302.486 279.923 302.551C280.273 302.612 280.61 302.741 280.935 302.935C281.264 303.13 281.536 303.425 281.753 303.818C281.97 304.212 282.078 304.739 282.078 305.4V310.88H280.8V309.754H280.735C280.648 309.934 280.504 310.127 280.302 310.333C280.1 310.539 279.831 310.714 279.495 310.858C279.159 311.003 278.749 311.075 278.265 311.075ZM278.46 309.927C278.966 309.927 279.392 309.828 279.739 309.629C280.089 309.43 280.352 309.174 280.529 308.86C280.71 308.546 280.8 308.216 280.8 307.869V306.699C280.746 306.764 280.627 306.824 280.443 306.878C280.262 306.929 280.053 306.974 279.814 307.013C279.58 307.049 279.35 307.082 279.127 307.111C278.906 307.136 278.728 307.158 278.59 307.176C278.258 307.219 277.948 307.29 277.659 307.387C277.374 307.481 277.143 307.623 276.966 307.815C276.792 308.003 276.706 308.259 276.706 308.584C276.706 309.028 276.87 309.364 277.199 309.591C277.531 309.815 277.951 309.927 278.46 309.927ZM285.689 299.789V310.88H284.411V299.789H285.689Z" fill="white"/>
</svg>
